<?xml version="1.0" encoding="utf-8"?>
<!-- Generator: Adobe Illustrator 16.0.0, SVG Export Plug-In . SVG Version: 6.00 Build 0)  -->
<!DOCTYPE svg PUBLIC "-//W3C//DTD SVG 1.1//EN" "http://www.w3.org/Graphics/SVG/1.1/DTD/svg11.dtd">
<svg version="1.1" id="Layer_1" xmlns="http://www.w3.org/2000/svg" xmlns:xlink="http://www.w3.org/1999/xlink" x="0px" y="0px"
	 width="89.852px" height="89.292px" viewBox="1.611 1 89.852 89.292" enable-background="new 1.611 1 89.852 89.292"
	 xml:space="preserve">
<g>
	
		<ellipse fill="none" stroke="#F1C646" stroke-width="2" stroke-linecap="round" stroke-linejoin="round" stroke-miterlimit="10" cx="23.798" cy="49.992" rx="12.237" ry="12.134"/>
	<path fill="none" stroke="#F1C646" stroke-width="2" stroke-linecap="round" stroke-linejoin="round" stroke-miterlimit="10" d="
		M16.857,51.438c0,2.9,2.375,5.434,5.48,5.434"/>
	<path fill="none" stroke="#F1C646" stroke-width="2" stroke-linecap="round" stroke-linejoin="round" stroke-miterlimit="10" d="
		M30.008,77.157c0-3.262-2.74-5.977-6.027-5.977c-11.689,0-21.37-9.418-21.37-21.188c0-11.048,8.401-20.103,19.36-21.008
		c-0.912-1.448-1.645-3.26-1.645-5.071c0-3.802,2.375-6.882,5.481-8.331c1.096,0.724,2.009,1.268,3.288,1.63
		c2.556,1.087,4.749,2.536,6.573,4.346c1.295,1.29,2.402,2.753,3.288,4.347c0.183,0.542,0.366,0.904,0.731,1.449
		c0.182,0.181,0.182,0.543,0.366,0.724c1.096,2.354,2.556,4.709,4.384,6.52c1.827,1.811,4.018,3.259,6.574,4.346
		c2.558,1.086,4.75,2.536,6.575,4.346c1.827,1.811,3.472,4.164,4.384,6.52c0.548,1.449,1.462,2.896,2.373,4.164
		c0.184,2.717,1.462,5.434,3.473,7.426c2.19,2.172,3.652,5.252,3.652,8.512c0,6.701-5.48,12.135-12.237,12.135
		c-3.104,0-6.209,1.266-8.584,3.621c-2.191,2.174-5.296,3.623-8.583,3.623C35.304,89.108,30.008,83.858,30.008,77.157L30.008,77.157
		z"/>
	<g>
		<path fill="none" stroke="#F1C646" stroke-width="2" stroke-linecap="round" stroke-linejoin="round" stroke-miterlimit="10" d="
			M64.892,36.047c1.827,1.812,3.471,4.166,4.384,6.52c1.096,2.354,2.558,4.708,4.384,6.518c1.827,1.812,4.018,3.262,6.576,4.348
			 M29.825,5.622c1.827,1.812,4.019,3.26,6.576,4.346c2.556,1.086,4.749,2.536,6.574,4.347c1.828,1.811,3.471,4.165,4.384,6.519"/>
		<path fill="none" stroke="#F1C646" stroke-width="2" stroke-linecap="round" stroke-linejoin="round" stroke-miterlimit="10" d="
			M33.478,2c1.826,1.812,4.019,3.26,6.576,4.346c2.555,1.087,4.749,2.536,6.573,4.346c1.827,1.812,3.471,4.166,4.384,6.52
			c1.096,2.354,2.557,4.709,4.382,6.52c1.829,1.812,4.02,3.259,6.576,4.346c2.558,1.087,4.749,2.536,6.576,4.346
			c1.825,1.811,3.47,4.166,4.383,6.52c1.096,2.354,2.557,4.708,4.384,6.52c1.826,1.81,4.018,3.259,6.574,4.347
			c2.558,1.086,4.749,2.535,6.576,4.346c-2.923,4.525-6.758,8.148-10.959,10.867c-1.827-1.812-4.019-3.262-6.575-4.348
			c-2.558-1.086-4.749-2.535-6.576-4.348c-1.825-1.811-3.47-4.164-4.383-6.518c-1.096-2.355-2.557-4.709-4.384-6.521
			c-1.826-1.812-4.018-3.26-6.574-4.346c-2.558-1.086-4.749-2.536-6.575-4.347c-1.828-1.811-3.472-4.165-4.383-6.519
			c-1.098-2.354-2.558-4.708-4.386-6.519c-1.826-1.812-4.017-3.261-6.573-4.347c-2.557-1.086-4.75-2.535-6.576-4.346
			C25.442,8.339,29.276,4.718,33.478,2z"/>
		<path fill="none" stroke="#F1C646" stroke-width="2" stroke-linecap="round" stroke-linejoin="round" stroke-miterlimit="10" d="
			M48.09,30.977c-1.827-1.811-3.471-4.166-4.384-6.52c-1.096-2.354-2.556-4.708-4.383-6.52c-1.827-1.811-4.019-3.259-6.574-4.346
			 M83.158,61.401c-1.826-1.812-4.018-3.262-6.575-4.348s-4.749-2.535-6.576-4.348c-1.826-1.811-3.471-4.164-4.383-6.518"/>
	</g>
</g>
</svg>
