<svg xmlns="http://www.w3.org/2000/svg" width="93.148" height="93.338" viewBox="591.221 294.087 93.148 93.338"><circle fill="none" stroke="#000" stroke-width="2" stroke-linecap="round" stroke-linejoin="round" stroke-miterlimit="10" cx="661.388" cy="345.304" r="12.696"/><path fill="none" stroke="#000" stroke-width="2" stroke-linecap="round" stroke-linejoin="round" stroke-miterlimit="10" d="M668.589 346.82c0 3.032-2.464 5.685-5.686 5.685M654.944 373.729c0-3.411 2.843-6.253 6.253-6.253 12.129 0 22.172-9.854 22.172-22.171 0-11.56-8.717-21.034-20.087-21.982.947-1.516 1.706-3.411 1.706-5.306 0-3.979-2.464-7.201-5.686-8.717-1.137.758-2.084 1.327-3.411 1.706-2.653 1.137-4.927 2.653-6.821 4.548a20.424 20.424 0 0 0-3.411 4.548c-.189.568-.38.947-.759 1.516-.188.19-.188.569-.379.758-1.137 2.463-2.652 4.927-4.548 6.822-1.895 1.895-4.168 3.411-6.821 4.548-2.653 1.137-4.927 2.653-6.822 4.548-1.895 1.895-3.601 4.358-4.548 6.822-.568 1.516-1.516 3.032-2.463 4.358-.189 2.842-1.516 5.685-3.601 7.769-2.274 2.274-3.79 5.496-3.79 8.906 0 7.012 5.685 12.697 12.696 12.697 3.221 0 6.442 1.327 8.906 3.79 2.274 2.274 5.495 3.79 8.906 3.79 7.013-.191 12.508-5.686 12.508-12.697z"/><g fill="none" stroke="#000" stroke-width="2" stroke-linecap="round" stroke-linejoin="round" stroke-miterlimit="10"><path d="M618.75 330.713c-1.895 1.895-3.601 4.358-4.548 6.822-1.137 2.463-2.653 4.927-4.548 6.822s-4.169 3.411-6.822 4.548M655.134 298.877c-1.896 1.895-4.169 3.411-6.822 4.548-2.652 1.137-4.927 2.653-6.821 4.548-1.896 1.895-3.601 4.358-4.548 6.822"/><path d="M651.344 295.087c-1.895 1.896-4.169 3.411-6.822 4.548-2.652 1.137-4.927 2.653-6.821 4.548-1.895 1.895-3.601 4.358-4.548 6.822-1.137 2.464-2.653 4.927-4.548 6.822-1.896 1.896-4.169 3.411-6.822 4.548-2.653 1.137-4.927 2.653-6.822 4.548s-3.601 4.358-4.548 6.822c-1.137 2.463-2.653 4.927-4.548 6.822-1.895 1.895-4.169 3.411-6.822 4.548-2.653 1.137-4.927 2.653-6.822 4.548 3.032 4.737 7.011 8.527 11.37 11.37 1.895-1.895 4.169-3.411 6.822-4.548 2.653-1.137 4.927-2.653 6.822-4.548 1.895-1.895 3.601-4.358 4.548-6.822 1.137-2.463 2.653-4.927 4.548-6.822 1.895-1.895 4.169-3.411 6.822-4.548 2.653-1.137 4.927-2.653 6.821-4.548 1.896-1.895 3.602-4.358 4.548-6.822 1.138-2.464 2.653-4.927 4.549-6.822 1.895-1.895 4.168-3.411 6.821-4.548 2.653-1.137 4.927-2.653 6.822-4.548-3.032-4.737-7.011-8.527-11.37-11.37z"/><path d="M636.184 325.407c1.895-1.895 3.601-4.358 4.548-6.822 1.137-2.463 2.652-4.927 4.547-6.822 1.896-1.895 4.17-3.411 6.822-4.548M599.8 357.242c1.895-1.895 4.169-3.411 6.822-4.548 2.653-1.137 4.927-2.653 6.822-4.548s3.601-4.358 4.548-6.822"/></g></svg>