<?xml version="1.0" encoding="utf-8"?>
<!-- Generator: Adobe Illustrator 16.0.0, SVG Export Plug-In . SVG Version: 6.00 Build 0)  -->
<!DOCTYPE svg PUBLIC "-//W3C//DTD SVG 1.1//EN" "http://www.w3.org/Graphics/SVG/1.1/DTD/svg11.dtd" [
	<!ENTITY ns_flows "http://ns.adobe.com/Flows/1.0/">
	<!ENTITY ns_extend "http://ns.adobe.com/Extensibility/1.0/">
	<!ENTITY ns_ai "http://ns.adobe.com/AdobeIllustrator/10.0/">
	<!ENTITY ns_graphs "http://ns.adobe.com/Graphs/1.0/">
]>
<svg version="1.1" id="Layer_1" xmlns:x="&ns_extend;" xmlns:i="&ns_ai;" xmlns:graph="&ns_graphs;"
	 xmlns="http://www.w3.org/2000/svg" xmlns:xlink="http://www.w3.org/1999/xlink" xmlns:a="http://ns.adobe.com/AdobeSVGViewerExtensions/3.0/"
	 x="0px" y="0px" width="93.148px" height="93.338px" viewBox="591.221 294.087 93.148 93.338"
	 enable-background="new 591.221 294.087 93.148 93.338" xml:space="preserve">
<circle fill="none" stroke="#000000" stroke-width="2" stroke-linecap="round" stroke-linejoin="round" stroke-miterlimit="10" cx="661.388" cy="345.304" r="12.696"/>
<path fill="none" stroke="#000000" stroke-width="2" stroke-linecap="round" stroke-linejoin="round" stroke-miterlimit="10" d="
	M668.589,346.82c0,3.032-2.464,5.685-5.686,5.685"/>
<path fill="none" stroke="#000000" stroke-width="2" stroke-linecap="round" stroke-linejoin="round" stroke-miterlimit="10" d="
	M654.944,373.729c0-3.411,2.843-6.253,6.253-6.253l0,0c12.129,0,22.172-9.854,22.172-22.171c0-11.56-8.717-21.034-20.087-21.982
	c0.947-1.516,1.706-3.411,1.706-5.306l0,0c0-3.979-2.464-7.201-5.686-8.717c-1.137,0.758-2.084,1.327-3.411,1.706l0,0
	c-2.653,1.137-4.927,2.653-6.821,4.548c-1.326,1.327-2.464,2.843-3.411,4.548c-0.189,0.568-0.38,0.947-0.759,1.516
	c-0.188,0.19-0.188,0.569-0.379,0.758l0,0c-1.137,2.463-2.652,4.927-4.548,6.822c-1.895,1.895-4.168,3.411-6.821,4.548
	c-2.653,1.137-4.927,2.653-6.822,4.548c-1.895,1.895-3.601,4.358-4.548,6.822c-0.568,1.516-1.516,3.032-2.463,4.358
	c-0.189,2.842-1.516,5.685-3.601,7.769l0,0c-2.274,2.274-3.79,5.496-3.79,8.906c0,7.012,5.685,12.697,12.696,12.697l0,0
	c3.221,0,6.442,1.327,8.906,3.79c2.274,2.274,5.495,3.79,8.906,3.79C649.449,386.235,654.944,380.74,654.944,373.729z"/>
<g>
	<path fill="none" stroke="#000000" stroke-width="2" stroke-linecap="round" stroke-linejoin="round" stroke-miterlimit="10" d="
		M618.75,330.713c-1.895,1.895-3.601,4.358-4.548,6.822c-1.137,2.463-2.653,4.927-4.548,6.822s-4.169,3.411-6.822,4.548"/>
	<path fill="none" stroke="#000000" stroke-width="2" stroke-linecap="round" stroke-linejoin="round" stroke-miterlimit="10" d="
		M655.134,298.877c-1.896,1.895-4.169,3.411-6.822,4.548l0,0c-2.652,1.137-4.927,2.653-6.821,4.548
		c-1.896,1.895-3.601,4.358-4.548,6.822"/>
	<path fill="none" stroke="#000000" stroke-width="2" stroke-linecap="round" stroke-linejoin="round" stroke-miterlimit="10" d="
		M651.344,295.087L651.344,295.087c-1.895,1.896-4.169,3.411-6.822,4.548l0,0c-2.652,1.137-4.927,2.653-6.821,4.548
		c-1.895,1.895-3.601,4.358-4.548,6.822l0,0c-1.137,2.464-2.653,4.927-4.548,6.822c-1.896,1.896-4.169,3.411-6.822,4.548l0,0
		c-2.653,1.137-4.927,2.653-6.822,4.548s-3.601,4.358-4.548,6.822c-1.137,2.463-2.653,4.927-4.548,6.822
		c-1.895,1.895-4.169,3.411-6.822,4.548l0,0c-2.653,1.137-4.927,2.653-6.822,4.548l0,0c3.032,4.737,7.011,8.527,11.37,11.37l0,0
		c1.895-1.895,4.169-3.411,6.822-4.548l0,0c2.653-1.137,4.927-2.653,6.822-4.548c1.895-1.895,3.601-4.358,4.548-6.822
		c1.137-2.463,2.653-4.927,4.548-6.822c1.895-1.895,4.169-3.411,6.822-4.548l0,0c2.653-1.137,4.927-2.653,6.821-4.548
		c1.896-1.895,3.602-4.358,4.548-6.822l0,0c1.138-2.464,2.653-4.927,4.549-6.822c1.895-1.895,4.168-3.411,6.821-4.548l0,0
		c2.653-1.137,4.927-2.653,6.822-4.548l0,0C659.682,301.72,655.703,297.93,651.344,295.087z"/>
	<path fill="none" stroke="#000000" stroke-width="2" stroke-linecap="round" stroke-linejoin="round" stroke-miterlimit="10" d="
		M636.184,325.407c1.895-1.895,3.601-4.358,4.548-6.822c1.137-2.463,2.652-4.927,4.547-6.822c1.896-1.895,4.17-3.411,6.822-4.548"/>
	<path fill="none" stroke="#000000" stroke-width="2" stroke-linecap="round" stroke-linejoin="round" stroke-miterlimit="10" d="
		M599.8,357.242c1.895-1.895,4.169-3.411,6.822-4.548l0,0c2.653-1.137,4.927-2.653,6.822-4.548s3.601-4.358,4.548-6.822"/>
</g>
</svg>
