<?xml version="1.0" encoding="utf-8"?>
<!-- Generator: Adobe Illustrator 16.0.0, SVG Export Plug-In . SVG Version: 6.00 Build 0)  -->
<!DOCTYPE svg PUBLIC "-//W3C//DTD SVG 1.1//EN" "http://www.w3.org/Graphics/SVG/1.1/DTD/svg11.dtd">
<svg version="1.1" id="Layer_1" xmlns="http://www.w3.org/2000/svg" xmlns:xlink="http://www.w3.org/1999/xlink" x="0px" y="0px"
	 width="93.148px" height="93.338px" viewBox="0 0 93.148 93.338" enable-background="new 0 0 93.148 93.338" xml:space="preserve">
<g>
	
		<circle fill="none" stroke="#F1C646" stroke-width="2" stroke-linecap="round" stroke-linejoin="round" stroke-miterlimit="10" cx="69.167" cy="50.217" r="12.696"/>
	<path fill="none" stroke="#F1C646" stroke-width="2" stroke-linecap="round" stroke-linejoin="round" stroke-miterlimit="10" d="
		M76.368,51.732c0,3.033-2.464,5.686-5.686,5.686"/>
	<path fill="none" stroke="#F1C646" stroke-width="2" stroke-linecap="round" stroke-linejoin="round" stroke-miterlimit="10" d="
		M62.723,78.643c0-3.412,2.843-6.254,6.253-6.254c12.129,0,22.172-9.854,22.172-22.17c0-11.561-8.717-21.035-20.087-21.982
		c0.946-1.516,1.706-3.411,1.706-5.307c0-3.979-2.464-7.201-5.687-8.717c-1.137,0.758-2.084,1.327-3.411,1.706
		c-2.652,1.138-4.927,2.653-6.82,4.548c-1.344,1.35-2.492,2.881-3.411,4.549c-0.189,0.567-0.38,0.946-0.759,1.516
		c-0.188,0.189-0.188,0.568-0.379,0.758c-1.138,2.463-2.652,4.928-4.549,6.822c-1.895,1.895-4.168,3.41-6.82,4.548
		c-2.653,1.137-4.928,2.653-6.822,4.548c-1.896,1.895-3.602,4.357-4.548,6.822c-0.568,1.516-1.517,3.031-2.463,4.357
		c-0.189,2.842-1.517,5.686-3.602,7.77c-2.273,2.273-3.79,5.496-3.79,8.906c0,7.012,5.686,12.697,12.696,12.697
		c3.221,0,6.442,1.326,8.906,3.789c2.273,2.274,5.495,3.79,8.905,3.79C57.228,91.148,62.723,85.653,62.723,78.643L62.723,78.643z"/>
	<g>
		<path fill="none" stroke="#F1C646" stroke-width="2" stroke-linecap="round" stroke-linejoin="round" stroke-miterlimit="10" d="
			M26.529,35.626c-1.895,1.896-3.601,4.358-4.548,6.822c-1.137,2.463-2.653,4.927-4.548,6.821c-1.896,1.896-4.169,3.412-6.822,4.549
			 M62.913,3.79c-1.896,1.896-4.169,3.411-6.822,4.548c-2.651,1.137-4.927,2.653-6.82,4.549c-1.896,1.895-3.602,4.357-4.548,6.821"
			/>
		<path fill="none" stroke="#F1C646" stroke-width="2" stroke-linecap="round" stroke-linejoin="round" stroke-miterlimit="10" d="
			M59.123,0c-1.895,1.896-4.169,3.411-6.822,4.548c-2.651,1.138-4.927,2.653-6.82,4.548c-1.896,1.896-3.602,4.358-4.548,6.822
			c-1.138,2.464-2.653,4.928-4.548,6.822c-1.896,1.896-4.17,3.41-6.822,4.548c-2.653,1.138-4.927,2.653-6.822,4.548
			c-1.895,1.895-3.601,4.358-4.548,6.822c-1.137,2.463-2.653,4.927-4.548,6.822c-1.896,1.895-4.169,3.41-6.822,4.548
			C4.169,51.165,1.895,52.682,0,54.576c3.032,4.736,7.012,8.527,11.37,11.37c1.896-1.896,4.169-3.411,6.822-4.548
			s4.927-2.653,6.822-4.549c1.895-1.895,3.601-4.357,4.548-6.821c1.137-2.464,2.652-4.927,4.548-6.822
			c1.895-1.896,4.169-3.411,6.822-4.548c2.652-1.137,4.927-2.653,6.82-4.549c1.896-1.895,3.603-4.357,4.548-6.821
			c1.139-2.464,2.653-4.927,4.55-6.821c1.895-1.896,4.168-3.412,6.82-4.549c2.653-1.137,4.928-2.652,6.822-4.548
			C67.461,6.633,63.482,2.844,59.123,0z"/>
		<path fill="none" stroke="#F1C646" stroke-width="2" stroke-linecap="round" stroke-linejoin="round" stroke-miterlimit="10" d="
			M43.963,30.32c1.896-1.895,3.602-4.358,4.549-6.822c1.137-2.463,2.651-4.927,4.547-6.822c1.896-1.895,4.17-3.41,6.821-4.548
			 M7.579,62.155c1.896-1.896,4.169-3.411,6.822-4.548s4.927-2.653,6.822-4.549c1.895-1.895,3.601-4.357,4.548-6.821"/>
	</g>
</g>
</svg>
