<?xml version="1.0" encoding="utf-8"?>
<!-- Generator: Adobe Illustrator 16.0.0, SVG Export Plug-In . SVG Version: 6.00 Build 0)  -->
<!DOCTYPE svg PUBLIC "-//W3C//DTD SVG 1.1//EN" "http://www.w3.org/Graphics/SVG/1.1/DTD/svg11.dtd">
<svg version="1.1" id="Layer_1" xmlns="http://www.w3.org/2000/svg" xmlns:xlink="http://www.w3.org/1999/xlink" x="0px" y="0px"
	 width="18.856px" height="40.408px" viewBox="11.303 -11.619 18.856 40.408" enable-background="new 11.303 -11.619 18.856 40.408"
	 xml:space="preserve">
<path fill="#FFFFFF" d="M11.305,1.289l-0.002-2.933c0-0.206,0.166-0.373,0.371-0.373l18.11-0.016c0.205,0,0.372,0.166,0.372,0.372
	c0.002,0,0.002,0,0.001,0.001l0.002,2.932c0.001,0.206-0.167,0.374-0.372,0.375L11.678,1.66c-0.205,0.002-0.371-0.163-0.372-0.367
	C11.305,1.291,11.306,1.289,11.305,1.289z M29.411-1.286L12.048-1.272l0.001,2.187l17.365-0.014L29.411-1.286z"/>
<path fill="#FFFFFF" d="M14.072,28.436L12.624,1.307c-0.004-0.103,0.032-0.203,0.102-0.276c0.071-0.075,0.169-0.118,0.271-0.116
	l15.473-0.012c0.207,0.001,0.373,0.169,0.371,0.376c0.001,0.005,0.002,0.01,0.001,0.015l-1.403,27.132
	c-0.011,0.198-0.174,0.353-0.372,0.353L14.446,28.79C14.248,28.79,14.084,28.634,14.072,28.436z M28.076,1.647L13.391,1.66
	l1.408,26.384l11.911-0.011L28.076,1.647z"/>
<path fill="#FFFFFF" d="M27.648,17.525c0.19,0,0.35-0.145,0.369-0.334c0.004-0.048,0.414-4.723-6.069-5.77
	c-6.244-1.011-8.002-3.485-8.291-3.971c-0.106-0.177-0.335-0.235-0.512-0.13s-0.235,0.335-0.13,0.512l0,0
	c0.319,0.535,2.242,3.263,8.812,4.324c5.797,0.938,5.451,4.917,5.448,4.957c-0.021,0.206,0.128,0.389,0.334,0.409
	C27.623,17.524,27.636,17.526,27.648,17.525z M27.331,22.583c0.19,0,0.351-0.144,0.37-0.333c0.004-0.046,0.396-4.524-5.812-5.529
	c-5.955-0.963-7.63-3.321-7.905-3.783c-0.109-0.175-0.341-0.228-0.515-0.117c-0.168,0.105-0.224,0.324-0.128,0.497
	c0.306,0.514,2.146,3.123,8.43,4.139c5.49,0.888,5.202,4.562,5.188,4.718c-0.021,0.205,0.129,0.387,0.334,0.407
	C27.307,22.583,27.318,22.583,27.331,22.583z M19.618-1.651l-0.008-9.593c0-0.206,0.165-0.374,0.372-0.374v0l1.478-0.001
	c0.204-0.001,0.371,0.163,0.372,0.368c0,0.001,0,0.003,0,0.004l0.009,9.593c0,0.206-0.166,0.373-0.372,0.374l-1.478,0
	C19.785-1.279,19.619-1.445,19.618-1.651z M21.088-10.872l-0.731-0.001l0.008,8.849l0.731,0L21.088-10.872z"/>
<path fill="#FFFFFF" d="M19.985-8.056c0.103,0,0.205-0.042,0.279-0.125l1.475-1.656c0.129-0.16,0.104-0.396-0.057-0.525
	c-0.149-0.119-0.365-0.106-0.5,0.028l-1.476,1.658c-0.136,0.152-0.123,0.388,0.03,0.525C19.806-8.089,19.895-8.056,19.985-8.056z
	 M19.988-4.79c0.103,0,0.205-0.042,0.279-0.125l1.475-1.656c0.138-0.154,0.123-0.39-0.03-0.526c-0.153-0.137-0.39-0.123-0.525,0.03
	l-1.476,1.658c-0.137,0.153-0.123,0.389,0.03,0.525C19.81-4.824,19.897-4.79,19.988-4.79z M19.991-1.521
	c0.103-0.001,0.204-0.042,0.278-0.125l1.476-1.657c0.129-0.161,0.104-0.396-0.058-0.523c-0.148-0.121-0.364-0.108-0.499,0.028
	l-1.475,1.657c-0.138,0.154-0.124,0.389,0.028,0.525C19.811-1.555,19.9-1.521,19.991-1.521z"/>
</svg>
