<svg xmlns="http://www.w3.org/2000/svg" width="38.824" height="28.79" viewBox="0 0 38.824 28.79"><path fill="#FFF" d="M22.563 1.473L25.125.047c.18-.1.407-.036.507.144l8.807 15.824a.372.372 0 0 1-.145.507l-2.562 1.426a.373.373 0 0 1-.507-.144L22.419 1.979a.37.37 0 0 1 .144-.506zm11.043 14.579L25.162.879l-1.911 1.063 8.444 15.173 1.911-1.063z"/><path fill="#FFF" d="M.175 17.075l23.013-14.44c.087-.054.192-.07.291-.045s.184.09.232.18l7.524 13.519a.375.375 0 0 1-.162.516l-24.4 11.947a.372.372 0 0 1-.489-.153L.047 17.572a.373.373 0 0 1 .128-.497zm30.218-.767L23.251 3.476.87 17.519l5.793 10.408 23.73-11.619z"/><path fill="#FFF" d="M16.304 23.644a.373.373 0 0 0 .472.161c.044-.019 4.329-1.931 2.097-8.108-2.149-5.949-.839-8.687-.555-9.176a.373.373 0 1 0-.645-.375c-.313.539-1.764 3.544.499 9.804 1.995 5.522-1.652 7.153-1.689 7.169a.374.374 0 0 0-.179.525zM11.729 25.822a.372.372 0 0 0 .471.162c.042-.018 4.148-1.85 2.012-7.764-2.05-5.674-.802-8.284-.531-8.749a.373.373 0 0 0-.644-.376c-.301.516-1.688 3.392.475 9.378 1.89 5.231-1.462 6.763-1.605 6.826a.373.373 0 0 0-.178.523zM29.169 7.313l8.383-4.665a.372.372 0 0 1 .507.144l.718 1.291a.37.37 0 0 1-.145.506L30.25 9.255a.373.373 0 0 1-.507-.144l-.718-1.291a.373.373 0 0 1 .144-.507zm8.775-3.193l-.355-.639-7.731 4.303.355.639 7.731-4.303z"/><path fill="#FFF" d="M34.947 4.524c.05.089.136.159.244.183l2.165.485a.373.373 0 0 0 .163-.727l-2.165-.485a.372.372 0 0 0-.407.544zM32.093 6.113c.05.089.136.158.244.183l2.165.485a.372.372 0 0 0 .163-.727l-2.166-.485a.372.372 0 0 0-.406.544zM29.237 7.702c.05.089.136.158.244.183l2.165.485a.373.373 0 0 0 .163-.727l-2.165-.485a.372.372 0 0 0-.407.544z"/></svg>