<?xml version="1.0" encoding="utf-8"?>
<!-- Generator: Adobe Illustrator 16.0.0, SVG Export Plug-In . SVG Version: 6.00 Build 0)  -->
<!DOCTYPE svg PUBLIC "-//W3C//DTD SVG 1.1//EN" "http://www.w3.org/Graphics/SVG/1.1/DTD/svg11.dtd" [
	<!ENTITY ns_flows "http://ns.adobe.com/Flows/1.0/">
	<!ENTITY ns_extend "http://ns.adobe.com/Extensibility/1.0/">
	<!ENTITY ns_ai "http://ns.adobe.com/AdobeIllustrator/10.0/">
	<!ENTITY ns_graphs "http://ns.adobe.com/Graphs/1.0/">
]>
<svg version="1.1" id="Isolation_Mode" xmlns:x="&ns_extend;" xmlns:i="&ns_ai;" xmlns:graph="&ns_graphs;"
	 xmlns="http://www.w3.org/2000/svg" xmlns:xlink="http://www.w3.org/1999/xlink" xmlns:a="http://ns.adobe.com/AdobeSVGViewerExtensions/3.0/"
	 x="0px" y="0px" width="38.824px" height="28.79px" viewBox="0 0 38.824 28.79" enable-background="new 0 0 38.824 28.79"
	 xml:space="preserve">
<g>
	<g>
		<path fill="#FFFFFF" d="M22.563,1.473l2.562-1.426c0.18-0.1,0.407-0.036,0.507,0.144l8.807,15.824
			c0.101,0.18,0.035,0.407-0.145,0.507l-2.562,1.426c-0.18,0.1-0.407,0.036-0.507-0.144L22.419,1.979
			C22.318,1.799,22.383,1.573,22.563,1.473z M33.606,16.052L25.162,0.879l-1.911,1.063l8.444,15.173L33.606,16.052z"/>
	</g>
	<g>
		<path fill="#FFFFFF" d="M0.175,17.075l23.013-14.44c0.087-0.054,0.192-0.07,0.291-0.045s0.184,0.09,0.232,0.18l7.524,13.519
			c0.049,0.089,0.061,0.195,0.029,0.292c-0.03,0.098-0.1,0.178-0.191,0.224l-24.4,11.947c-0.178,0.087-0.393,0.02-0.489-0.153
			L0.047,17.572C-0.049,17.399,0.007,17.18,0.175,17.075z M30.393,16.308L23.251,3.476L0.87,17.519l5.793,10.408L30.393,16.308z"/>
	</g>
	<g>
		<path fill="#FFFFFF" d="M16.304,23.644c0.092,0.165,0.295,0.236,0.472,0.161c0.044-0.019,4.329-1.931,2.097-8.108
			c-2.149-5.949-0.839-8.687-0.555-9.176c0.104-0.178,0.043-0.406-0.135-0.51s-0.406-0.043-0.51,0.135
			c-0.313,0.539-1.764,3.544,0.499,9.804c1.995,5.522-1.652,7.153-1.689,7.169c-0.188,0.081-0.276,0.3-0.196,0.489
			C16.292,23.62,16.298,23.632,16.304,23.644z"/>
	</g>
	<g>
		<path fill="#FFFFFF" d="M11.729,25.822c0.091,0.165,0.294,0.237,0.471,0.162c0.042-0.018,4.148-1.85,2.012-7.764
			c-2.05-5.674-0.802-8.284-0.531-8.749c0.104-0.178,0.043-0.406-0.135-0.51s-0.405-0.043-0.509,0.134
			c-0.301,0.516-1.688,3.392,0.475,9.378c1.89,5.231-1.462,6.763-1.605,6.826c-0.188,0.082-0.275,0.301-0.194,0.489
			C11.717,25.799,11.722,25.811,11.729,25.822z"/>
	</g>
	<g>
		<path fill="#FFFFFF" d="M29.169,7.313l8.383-4.665c0.18-0.101,0.406-0.036,0.507,0.144l0.718,1.291
			c0.101,0.18,0.036,0.407-0.145,0.506L30.25,9.255c-0.18,0.1-0.407,0.036-0.507-0.144L29.025,7.82
			C28.925,7.641,28.989,7.414,29.169,7.313z M37.944,4.12l-0.355-0.639l-7.731,4.303l0.355,0.639L37.944,4.12z"/>
	</g>
	<g>
		<path fill="#FFFFFF" d="M34.947,4.524c0.05,0.089,0.136,0.159,0.244,0.183l2.165,0.485c0.201,0.045,0.4-0.082,0.445-0.282
			c0.045-0.201-0.081-0.4-0.282-0.445L35.354,3.98c-0.201-0.045-0.4,0.081-0.445,0.282C34.889,4.355,34.904,4.447,34.947,4.524z"/>
	</g>
	<g>
		<path fill="#FFFFFF" d="M32.093,6.113c0.05,0.089,0.136,0.158,0.244,0.183l2.165,0.485c0.2,0.045,0.399-0.082,0.444-0.282
			c0.046-0.202-0.08-0.4-0.281-0.445l-2.166-0.485c-0.2-0.045-0.399,0.081-0.444,0.282C32.033,5.944,32.05,6.036,32.093,6.113z"/>
	</g>
	<g>
		<path fill="#FFFFFF" d="M29.237,7.702c0.05,0.089,0.136,0.158,0.244,0.183l2.165,0.485c0.201,0.045,0.4-0.082,0.445-0.282
			c0.046-0.202-0.081-0.4-0.282-0.445l-2.165-0.485c-0.201-0.045-0.4,0.081-0.445,0.282C29.179,7.533,29.194,7.625,29.237,7.702z"/>
	</g>
</g>
</svg>
