<svg xmlns="http://www.w3.org/2000/svg" width="589.041" height="384.669" viewBox="343.274 147.825 589.041 384.669"><path fill="#FFF" d="M871.088 147.825H404.502c-33.764 0-61.228 27.464-61.228 61.228v262.212c0 33.764 27.464 61.229 61.228 61.229h466.586c33.764 0 61.228-27.465 61.228-61.229V209.053c-.001-33.764-27.464-61.228-61.228-61.228zm-125.001 179.16l157.125-128.654c1.129 3.388 1.892 6.946 1.892 10.715v262.212c0 3.293-.619 6.409-1.497 9.43l-157.52-153.703zm125.001-151.947c4.959 0 9.646 1.123 13.905 3.041L637.795 380.485 390.597 178.079c4.259-1.918 8.939-3.041 13.905-3.041h466.586zm-499.105 305.65c-.877-3.015-1.497-6.13-1.497-9.43V209.053c0-3.769.762-7.327 1.891-10.715l157.125 128.654-157.519 153.696zm32.519 24.586c-5.415 0-10.463-1.388-15.014-3.646l161.207-157.295 87.101 71.324 87.101-71.317 161.206 157.295c-4.551 2.259-9.599 3.646-15.014 3.646H404.502v-.007z"/></svg>