<?xml version="1.0" encoding="utf-8"?>
<!-- Generator: Adobe Illustrator 16.0.0, SVG Export Plug-In . SVG Version: 6.00 Build 0)  -->
<!DOCTYPE svg PUBLIC "-//W3C//DTD SVG 1.1//EN" "http://www.w3.org/Graphics/SVG/1.1/DTD/svg11.dtd" [
	<!ENTITY ns_flows "http://ns.adobe.com/Flows/1.0/">
	<!ENTITY ns_extend "http://ns.adobe.com/Extensibility/1.0/">
	<!ENTITY ns_ai "http://ns.adobe.com/AdobeIllustrator/10.0/">
	<!ENTITY ns_graphs "http://ns.adobe.com/Graphs/1.0/">
]>
<svg version="1.1" id="Layer_1" xmlns:x="&ns_extend;" xmlns:i="&ns_ai;" xmlns:graph="&ns_graphs;"
	 xmlns="http://www.w3.org/2000/svg" xmlns:xlink="http://www.w3.org/1999/xlink" xmlns:a="http://ns.adobe.com/AdobeSVGViewerExtensions/3.0/"
	 x="0px" y="0px" width="589.041px" height="384.669px" viewBox="343.274 147.825 589.041 384.669"
	 enable-background="new 343.274 147.825 589.041 384.669" xml:space="preserve">
<path fill="#FFFFFF" d="M871.088,147.825H404.502c-33.764,0-61.228,27.464-61.228,61.228v262.212
	c0,33.764,27.464,61.229,61.228,61.229h466.586c33.764,0,61.228-27.465,61.228-61.229V209.053
	C932.315,175.289,904.852,147.825,871.088,147.825z M746.087,326.985l157.125-128.654c1.129,3.388,1.892,6.946,1.892,10.715v262.212
	c0,3.293-0.619,6.409-1.497,9.43L746.087,326.985z M871.088,175.038c4.959,0,9.646,1.123,13.905,3.041L637.795,380.485
	L390.597,178.079c4.259-1.918,8.939-3.041,13.905-3.041H871.088z M371.983,480.688c-0.877-3.015-1.497-6.13-1.497-9.43V209.053
	c0-3.769,0.762-7.327,1.891-10.715l157.125,128.654L371.983,480.688z M404.502,505.274c-5.415,0-10.463-1.388-15.014-3.646
	l161.207-157.295l87.101,71.324l87.101-71.317l161.206,157.295c-4.551,2.259-9.599,3.646-15.014,3.646H404.502V505.274z"/>
</svg>
