<?xml version="1.0" encoding="utf-8"?>
<!-- Generator: Adobe Illustrator 16.0.0, SVG Export Plug-In . SVG Version: 6.00 Build 0)  -->
<!DOCTYPE svg PUBLIC "-//W3C//DTD SVG 1.1//EN" "http://www.w3.org/Graphics/SVG/1.1/DTD/svg11.dtd">
<svg version="1.1" id="Layer_1" xmlns="http://www.w3.org/2000/svg" xmlns:xlink="http://www.w3.org/1999/xlink" x="0px" y="0px"
	 width="286.085px" height="426.032px" viewBox="494.752 127.144 286.085 426.032"
	 enable-background="new 494.752 127.144 286.085 426.032" xml:space="preserve">
<path d="M780.552,401.752v-191.42c0-23.375-18.308-42.376-40.819-42.376c-22.511,0-40.818,19.001-40.818,42.376v19.124
	c-7.231-6.483-16.742-10.47-27.213-10.47c-14.218,0-26.735,7.306-34.049,18.361c-7.307-11.055-19.831-18.361-34.05-18.361
	c-10.463,0-19.987,3.986-27.213,10.47v-61.493c0-22.512-18.307-40.819-40.818-40.819s-40.819,18.307-40.819,40.819v198.793v5.674
	v47.541c0.286,1.367,0.511,2.762,0.66,4.156c0.041,0.055,0.062,0.109,0.096,0.143c7.381,72.311,68.378,128.906,142.287,128.906
	c78.875,0,143.042-64.446,143.042-143.662C780.83,406.895,780.701,404.33,780.552,401.752z M644.496,259.797
	c0-15.014,12.205-27.212,27.213-27.212c15.014,0,27.212,12.198,27.212,27.212v71.14v13.144c0,15.001-12.198,27.213-27.212,27.213
	c-5.354,0-10.341-1.619-14.553-4.307c-2.592-5.816-6.483-10.946-11.334-14.96c-0.782-2.523-1.326-5.17-1.326-7.946V259.797z
	 M603.603,232.585c15.001,0,27.212,12.198,27.212,27.212v84.284c0,0.041-0.014,0.096-0.014,0.137
	c-3.496-0.973-7.156-1.531-10.945-1.531H576.39v-82.889C576.39,244.783,588.595,232.585,603.603,232.585z M535.571,140.743
	c15.001,0,27.212,12.198,27.212,27.212v91.842v82.889h-27.212c-10.463,0-19.987,3.987-27.213,10.471V167.956
	C508.358,152.941,520.563,140.743,535.571,140.743z M637.795,539.569c-69.937,0-126.96-56.018-129.273-125.701
	c-0.067-0.157-0.102-0.334-0.156-0.49v-26.205c0.089-0.137,0.144-0.279,0.231-0.415c-0.136-1.075-0.231-2.15-0.231-3.259
	c0-15.015,12.205-27.213,27.213-27.213h84.284c15.001,0,27.212,12.198,27.212,27.213c0,15.001-12.211,27.212-27.212,27.212h-27.968
	v13.606h27.968c22.511,0,40.818-18.308,40.818-40.818c0-0.082-0.014-0.144-0.014-0.211c3.511,1.021,7.204,1.605,11.042,1.605
	c22.511,0,40.818-18.308,40.818-40.819V330.72v-70.922v-49.465c0-15.865,12.211-28.771,27.212-28.771
	c15.015,0,27.213,12.899,27.213,28.771v190.1c-0.027,0.055-0.041,0.096-0.082,0.136c0.041,0.572,0.041,1.157,0.082,1.715v13.871
	C763.469,484.77,706.955,539.569,637.795,539.569z"/>
</svg>
