<svg xmlns="http://www.w3.org/2000/svg" width="465.503" height="465.426" viewBox="405.491 107.852 465.503 465.426"><path fill="#FFF" d="M679.676 185.911c-18.387 18.387-18.387 51.074 0 69.461l34.73 32.688c-26.559 53.118-75.59 102.149-128.707 128.708l-32.688-34.73c-18.387-18.387-51.075-18.387-69.462 0l-53.117 53.117c-18.387 18.387-18.387 49.032 2.043 69.462l51.074 51.074c102.149 102.148 471.929-269.673 369.779-369.779l-51.074-51.075c-20.43-20.43-51.074-20.43-69.462 0l-53.116 51.074zm-77.633-51.075c16.344-4.086 10.215-30.645-8.172-26.559-91.935 24.516-163.438 96.02-187.954 187.954-4.086 18.387 22.473 24.516 26.559 8.172 22.472-81.718 85.804-147.093 169.567-169.567zm16.344 63.333c18.387-4.086 10.215-30.645-6.129-26.559-69.461 18.387-124.622 73.547-143.009 143.009-4.086 16.344 22.473 24.516 26.559 6.129 16.343-59.247 63.333-106.235 122.579-122.579zm81.718 6.129l51.075-51.074c8.172-8.172 22.473-8.172 30.645 0l51.074 51.074c75.591 75.59-255.372 406.553-330.963 330.963l-51.074-51.074c-8.172-8.173-8.172-22.474 0-30.646l51.074-51.074c8.172-10.215 22.473-10.215 32.688 0l38.816 38.816c4.086 4.086 10.215 6.129 16.344 4.086 63.332-28.602 124.621-89.891 153.224-153.223 2.043-4.086 2.043-12.258-4.086-16.344l-38.817-38.817c-10.214-10.214-10.214-24.515 0-32.687z"/></svg>