<?xml version="1.0" encoding="utf-8"?>
<!-- Generator: Adobe Illustrator 16.0.0, SVG Export Plug-In . SVG Version: 6.00 Build 0)  -->
<!DOCTYPE svg PUBLIC "-//W3C//DTD SVG 1.1//EN" "http://www.w3.org/Graphics/SVG/1.1/DTD/svg11.dtd" [
	<!ENTITY ns_flows "http://ns.adobe.com/Flows/1.0/">
	<!ENTITY ns_extend "http://ns.adobe.com/Extensibility/1.0/">
	<!ENTITY ns_ai "http://ns.adobe.com/AdobeIllustrator/10.0/">
	<!ENTITY ns_graphs "http://ns.adobe.com/Graphs/1.0/">
]>
<svg version="1.1" id="Layer_1" xmlns:x="&ns_extend;" xmlns:i="&ns_ai;" xmlns:graph="&ns_graphs;"
	 xmlns="http://www.w3.org/2000/svg" xmlns:xlink="http://www.w3.org/1999/xlink" xmlns:a="http://ns.adobe.com/AdobeSVGViewerExtensions/3.0/"
	 x="0px" y="0px" width="465.503px" height="465.426px" viewBox="405.491 107.852 465.503 465.426"
	 enable-background="new 405.491 107.852 465.503 465.426" xml:space="preserve">
<g>
	<path fill="#FFFFFF" d="M679.676,185.911c-18.387,18.387-18.387,51.074,0,69.461l34.73,32.688
		c-26.559,53.118-75.59,102.149-128.707,128.708l-32.688-34.73c-18.387-18.387-51.075-18.387-69.462,0l-53.117,53.117
		c-18.387,18.387-18.387,49.032,2.043,69.462l51.074,51.074c102.149,102.148,471.929-269.673,369.779-369.779l-51.074-51.075
		c-20.43-20.43-51.074-20.43-69.462,0L679.676,185.911z M602.043,134.836c16.344-4.086,10.215-30.645-8.172-26.559
		c-91.935,24.516-163.438,96.02-187.954,187.954c-4.086,18.387,22.473,24.516,26.559,8.172
		C454.948,222.685,518.28,157.31,602.043,134.836z M618.387,198.169c18.387-4.086,10.215-30.645-6.129-26.559
		c-69.461,18.387-124.622,73.547-143.009,143.009c-4.086,16.344,22.473,24.516,26.559,6.129
		C512.151,261.501,559.141,214.513,618.387,198.169z M700.105,204.298l51.075-51.074c8.172-8.172,22.473-8.172,30.645,0
		l51.074,51.074c75.591,75.59-255.372,406.553-330.963,330.963l-51.074-51.074c-8.172-8.173-8.172-22.474,0-30.646l51.074-51.074
		c8.172-10.215,22.473-10.215,32.688,0l38.816,38.816c4.086,4.086,10.215,6.129,16.344,4.086
		c63.332-28.602,124.621-89.891,153.224-153.223c2.043-4.086,2.043-12.258-4.086-16.344l-38.817-38.817
		C689.891,226.771,689.891,212.47,700.105,204.298z"/>
</g>
</svg>
