<?xml version="1.0" encoding="utf-8"?>
<!-- Generator: Adobe Illustrator 16.0.0, SVG Export Plug-In . SVG Version: 6.00 Build 0)  -->
<!DOCTYPE svg PUBLIC "-//W3C//DTD SVG 1.1//EN" "http://www.w3.org/Graphics/SVG/1.1/DTD/svg11.dtd" [
	<!ENTITY ns_flows "http://ns.adobe.com/Flows/1.0/">
	<!ENTITY ns_extend "http://ns.adobe.com/Extensibility/1.0/">
	<!ENTITY ns_ai "http://ns.adobe.com/AdobeIllustrator/10.0/">
	<!ENTITY ns_graphs "http://ns.adobe.com/Graphs/1.0/">
]>
<svg version="1.1" xmlns:x="&ns_extend;" xmlns:i="&ns_ai;" xmlns:graph="&ns_graphs;"
	 xmlns="http://www.w3.org/2000/svg" xmlns:xlink="http://www.w3.org/1999/xlink" xmlns:a="http://ns.adobe.com/AdobeSVGViewerExtensions/3.0/"
	 x="0px" y="0px" width="21.773px" height="27.856px" viewBox="0 0 21.773 27.856" enable-background="new 0 0 21.773 27.856"
	 xml:space="preserve">
<g id="Layer_2">
</g>
<g id="Isolation_Mode">
	<g>
		<g>
			<path fill="#FFFFFF" d="M8.016,13.638c0.236,0.035,0.474,0.066,0.71,0.094L8.14,5.069L8.016,13.638z"/>
		</g>
		<g>
			<path fill="#FFFFFF" d="M4.035,12.683c0.204,0.067,0.408,0.133,0.611,0.194l-0.574-2.709L4.035,12.683z"/>
		</g>
		<g>
			<polygon fill="#FFFFFF" points="10.501,10.7 10.703,13.683 10.703,13.683 			"/>
		</g>
		<g>
			<path fill="#FFFFFF" d="M21.395,11.839c-0.205-0.002-0.371-0.172-0.368-0.378c0.004-0.206,0.171-0.37,0.377-0.367h0.003
				c0.205,0.003,0.37,0.173,0.367,0.378C21.77,11.678,21.601,11.842,21.395,11.839z"/>
		</g>
		<g>
			<path fill="#FFFFFF" d="M16.025,13.69c-0.099-0.001-0.193-0.041-0.264-0.113c-0.09-0.095-0.125-0.229-0.091-0.355l1.728-6.476
				c0.026-0.095,0.088-0.176,0.174-0.226c0.086-0.049,0.188-0.062,0.282-0.038l1.91,0.511c0.198,0.052,0.316,0.257,0.264,0.455
				l-1.43,5.357c-0.032,0.121-0.125,0.219-0.245,0.258c-0.755,0.245-1.508,0.453-2.241,0.618
				C16.083,13.688,16.055,13.691,16.025,13.69z M18.023,7.299l-1.472,5.512c0.455-0.116,0.917-0.248,1.379-0.395l1.282-4.8
				L18.023,7.299z"/>
		</g>
		<g>
			<path fill="#FFFFFF" d="M10.844,14.239L10.844,14.239l-0.137-0.002c-0.193-0.004-0.352-0.154-0.363-0.348l-0.013-0.182
				c-0.003-0.04,0.001-0.081,0.012-0.119l2.71-10.322c0.053-0.199,0.258-0.319,0.455-0.266l1.91,0.501
				c0.097,0.026,0.178,0.087,0.229,0.173c0.049,0.086,0.063,0.188,0.038,0.282l-2.612,9.952c-0.041,0.153-0.175,0.266-0.334,0.276
				C12.11,14.23,11.473,14.249,10.844,14.239z M13.679,3.816l-2.542,9.681c0.428,0.001,0.857-0.012,1.283-0.037l2.449-9.331
				L13.679,3.816z"/>
		</g>
		<g>
			<path fill="#FFFFFF" d="M6.777,13.794c-0.023,0-0.046-0.002-0.07-0.007c-0.714-0.147-1.443-0.333-2.169-0.554
				c-0.13-0.039-0.228-0.146-0.256-0.279l-1.5-7.063C2.762,5.794,2.779,5.692,2.834,5.61c0.054-0.083,0.139-0.142,0.235-0.162
				l1.933-0.411c0.097-0.02,0.197-0.001,0.28,0.053s0.142,0.139,0.161,0.235l1.703,8.02c0.026,0.122-0.011,0.25-0.1,0.34
				C6.976,13.757,6.877,13.796,6.777,13.794z M4.965,12.583c0.445,0.131,0.891,0.249,1.333,0.352l-1.506-7.09L3.588,6.101
				L4.965,12.583z"/>
		</g>
		<g>
			<path fill="#FFFFFF" d="M10.65,14.235c-0.002,0.001-0.003,0-0.004,0.001c-0.652-0.015-1.312-0.061-1.963-0.135
				c-0.18-0.021-0.317-0.165-0.33-0.345L7.712,4.264C7.705,4.165,7.738,4.066,7.803,3.992c0.066-0.075,0.159-0.12,0.258-0.126
				l1.969-0.134c0.209-0.011,0.384,0.142,0.397,0.347l0.647,9.579c0.003,0.04-0.001,0.081-0.011,0.12l-0.048,0.181
				C10.972,14.124,10.821,14.238,10.65,14.235z M9.076,13.394c0.412,0.041,0.826,0.07,1.24,0.087L9.708,4.502L8.48,4.585
				L9.076,13.394z"/>
		</g>
		<g>
			<path fill="#FFFFFF" d="M10.709,14.237l-0.043-0.001c-0.113-0.004-0.23-0.06-0.298-0.15s-0.103-0.208-0.073-0.317l0.048-0.18
				c0.046-0.177,0.213-0.293,0.396-0.277c0.182,0.018,0.324,0.164,0.336,0.347l0.013,0.183c0.007,0.104-0.03,0.205-0.103,0.281
				C10.914,14.198,10.813,14.239,10.709,14.237z"/>
		</g>
		<g>
			<path fill="#FFFFFF" d="M4.029,13.055c-0.037,0-0.075-0.007-0.111-0.019c-0.66-0.22-1.331-0.473-1.993-0.752
				c-0.141-0.06-0.229-0.197-0.229-0.35l0.128-8.701c0.002-0.205,0.171-0.37,0.377-0.367l1.976,0.029
				c0.206,0.003,0.37,0.173,0.367,0.378L4.51,5.607C4.508,5.781,4.385,5.931,4.215,5.967L3.588,6.101l0.848,3.989
				c0.006,0.028,0.009,0.056,0.008,0.083l-0.036,2.514c-0.001,0.121-0.06,0.231-0.157,0.3C4.186,13.032,4.107,13.056,4.029,13.055z
				 M2.445,11.694c0.408,0.166,0.817,0.324,1.225,0.469l0.028-1.959L2.782,5.891C2.762,5.794,2.779,5.692,2.834,5.61
				c0.054-0.083,0.139-0.142,0.235-0.162L3.77,5.3l0.023-1.665l-1.23-0.018L2.445,11.694z"/>
		</g>
		<g>
			<path fill="#FFFFFF" d="M4.065,10.541c-0.169-0.003-0.321-0.123-0.358-0.296L3.646,9.962C3.641,9.935,3.638,9.905,3.639,9.878
				C3.641,9.708,3.76,9.557,3.934,9.52c0.203-0.044,0.399,0.087,0.442,0.287l0.06,0.283c0.006,0.028,0.009,0.057,0.008,0.083
				c-0.002,0.171-0.121,0.322-0.295,0.359C4.121,10.538,4.094,10.541,4.065,10.541z"/>
		</g>
		<g>
			<path fill="#FFFFFF" d="M8.01,14.011c-0.017,0-0.033-0.002-0.049-0.004c-0.425-0.062-0.846-0.137-1.254-0.22
				c-0.145-0.03-0.258-0.144-0.289-0.288l-0.693-3.264c-0.006-0.027-0.009-0.056-0.008-0.083l0.112-7.759
				c0.003-0.206,0.173-0.371,0.378-0.367l1.976,0.028c0.206,0.003,0.371,0.173,0.368,0.378L8.524,4.239
				C8.523,4.308,8.503,4.372,8.47,4.429l0.041,0.615c0.001,0.01,0.001,0.021,0.001,0.03l-0.124,8.569
				c-0.002,0.107-0.05,0.209-0.132,0.278C8.188,13.98,8.1,14.012,8.01,14.011z M7.096,13.104c0.183,0.035,0.367,0.068,0.553,0.099
				l0.118-8.124L7.712,4.264C7.706,4.176,7.73,4.089,7.782,4.019L7.8,2.794l-1.23-0.018l-0.106,7.345L7.096,13.104z"/>
		</g>
		<g>
			<path fill="#FFFFFF" d="M6.777,13.794c-0.012,0-0.021-0.001-0.033-0.002c-0.126-0.013-0.238-0.09-0.296-0.205
				c-0.013-0.026-0.023-0.057-0.03-0.088l-0.693-3.264c-0.006-0.027-0.009-0.056-0.008-0.082c0.002-0.171,0.121-0.323,0.295-0.36
				C6.215,9.75,6.411,9.88,6.454,10.081l0.692,3.264c0.01,0.042,0.012,0.083,0.006,0.123c-0.014,0.107-0.072,0.203-0.16,0.263l0,0
				H6.991c-0.039,0.025-0.083,0.045-0.131,0.056C6.832,13.792,6.805,13.795,6.777,13.794z"/>
		</g>
		<g>
			<path fill="#FFFFFF" d="M8.134,5.442C7.941,5.439,7.781,5.29,7.768,5.095L7.712,4.264C7.711,4.253,7.711,4.242,7.711,4.231
				C7.714,4.051,7.848,3.897,8.025,3.87l0,0l0,0C8.037,3.868,8.05,3.867,8.061,3.866l0.01-0.002C8.276,3.854,8.453,4.01,8.465,4.215
				c0,0.01,0.001,0.019,0.001,0.028C8.465,4.262,8.464,4.28,8.461,4.298l0.05,0.746c0.001,0.012,0.001,0.021,0.001,0.031
				C8.51,5.267,8.359,5.428,8.164,5.441C8.154,5.442,8.144,5.442,8.134,5.442z"/>
		</g>
		<g>
			<path fill="#FFFFFF" d="M10.698,14.056c-0.011,0-0.021-0.001-0.03-0.002c-0.182-0.017-0.324-0.163-0.337-0.346L9.865,6.827
				c-0.001-0.01-0.001-0.021-0.001-0.03l0.094-6.429C9.961,0.162,10.13-0.003,10.336,0l1.976,0.029
				c0.206,0.002,0.37,0.171,0.367,0.378L12.568,8c0,0.03-0.004,0.061-0.012,0.089l-1.493,5.689
				C11.02,13.944,10.867,14.058,10.698,14.056z M10.61,6.792l0.311,4.594l0.903-3.441l0.104-7.176l-1.231-0.018L10.61,6.792z"/>
		</g>
		<g>
			<path fill="#FFFFFF" d="M10.698,14.056c-0.03,0-0.06-0.004-0.09-0.012c-0.169-0.045-0.28-0.198-0.278-0.366
				c0.001-0.03,0.004-0.06,0.013-0.089l1.364-5.201c0.053-0.199,0.258-0.319,0.455-0.266c0.17,0.044,0.281,0.197,0.279,0.365
				c-0.001,0.029-0.005,0.059-0.013,0.089l-1.365,5.202C11.019,13.946,10.865,14.059,10.698,14.056z"/>
		</g>
		<g>
			<path fill="#FFFFFF" d="M10.494,11.073c-0.001-0.001-0.003,0-0.005-0.001c-0.174-0.005-0.322-0.132-0.354-0.302v-0.002
				c-0.003-0.014-0.005-0.028-0.006-0.043L9.865,6.827c-0.001-0.01-0.001-0.021-0.001-0.03c0.003-0.192,0.152-0.354,0.348-0.366
				c0.208-0.012,0.384,0.141,0.397,0.347l0.264,3.897c0,0.012,0.001,0.023,0,0.035l0,0l0,0c-0.004,0.175-0.13,0.322-0.3,0.356
				l-0.002,0.001c-0.002-0.001-0.002-0.001-0.002-0.001s-0.001,0-0.002,0.001h-0.001c-0.014,0.002-0.026,0.004-0.04,0.005
				C10.516,11.073,10.505,11.073,10.494,11.073z"/>
		</g>
		<g>
			<path fill="#FFFFFF" d="M14.376,13.999c-0.088-0.001-0.173-0.033-0.24-0.092c-0.082-0.072-0.129-0.177-0.127-0.285l0.095-6.534
				c0-0.03,0.004-0.061,0.012-0.09l0.754-2.869l-0.438-0.114c-0.165-0.044-0.28-0.195-0.277-0.366l0.024-1.638
				c0.002-0.205,0.172-0.371,0.377-0.367l1.977,0.029c0.205,0.002,0.369,0.172,0.367,0.377l-0.145,9.961
				c-0.001,0.031-0.005,0.061-0.013,0.091l-0.351,1.313c-0.035,0.134-0.143,0.236-0.278,0.267c-0.544,0.123-1.107,0.228-1.676,0.313
				C14.416,13.998,14.396,14,14.376,13.999z M14.848,7.144l-0.087,6.045c0.326-0.055,0.65-0.117,0.968-0.185l0.28-1.05l0.139-9.542
				l-1.231-0.019l-0.014,0.973l0.516,0.136c0.097,0.026,0.178,0.087,0.229,0.173c0.049,0.086,0.063,0.188,0.038,0.283L14.848,7.144z
				"/>
		</g>
		<g>
			<path fill="#FFFFFF" d="M18.232,13.082c-0.092-0.002-0.182-0.037-0.25-0.103c-0.1-0.094-0.14-0.234-0.104-0.367l1.335-4.996
				L17.97,7.284c-0.08,0.076-0.191,0.115-0.308,0.099c-0.187-0.026-0.324-0.187-0.321-0.374l0.051-3.55
				c0.004-0.206,0.173-0.369,0.379-0.366l1.976,0.028c0.206,0.003,0.37,0.172,0.367,0.379l-0.127,8.725
				c-0.002,0.153-0.096,0.288-0.238,0.343c-0.464,0.179-0.934,0.345-1.395,0.496C18.314,13.076,18.273,13.082,18.232,13.082z
				 M19.27,10.291l-0.492,1.841c0.156-0.056,0.312-0.112,0.469-0.17L19.27,10.291z M18.093,6.546l1.226,0.327l0.045-3.013
				l-1.231-0.018L18.093,6.546z"/>
		</g>
		<g>
			<path fill="#FFFFFF" d="M19.663,7.726c-0.03-0.002-0.06-0.005-0.091-0.013l-1.909-0.51c-0.169-0.045-0.279-0.198-0.277-0.365
				c0.001-0.03,0.005-0.061,0.013-0.092c0.054-0.198,0.258-0.315,0.456-0.264l1.91,0.511c0.168,0.045,0.278,0.197,0.276,0.364
				c-0.001,0.03-0.005,0.062-0.013,0.091C19.982,7.618,19.829,7.728,19.663,7.726z"/>
		</g>
		<g>
			<path fill="#FFFFFF" d="M18.233,13.082c-0.03-0.001-0.061-0.005-0.091-0.013c-0.169-0.046-0.279-0.199-0.276-0.366
				c0-0.029,0.005-0.06,0.012-0.091l1.43-5.355c0.054-0.198,0.258-0.316,0.457-0.264c0.168,0.045,0.278,0.198,0.276,0.365
				c-0.001,0.029-0.005,0.061-0.013,0.09l-1.43,5.357C18.554,12.974,18.4,13.084,18.233,13.082z"/>
		</g>
		<g>
			<g>
				<path fill="#FFFFFF" d="M10.763,19.768l-0.177-0.004c-0.672-0.017-1.332-0.062-1.982-0.136
					c-0.241-0.026-0.482-0.059-0.723-0.095c-0.42-0.062-0.842-0.136-1.254-0.22c-0.714-0.146-1.443-0.333-2.169-0.554
					c-0.207-0.062-0.414-0.128-0.621-0.196c-0.661-0.221-1.331-0.475-1.992-0.754c-0.157-0.066-0.314-0.136-0.472-0.206
					l-0.104-0.047c-0.113-0.05-0.194-0.154-0.216-0.276l-1.047-6.055c-0.024-0.139,0.031-0.279,0.145-0.363
					c0.112-0.084,0.263-0.098,0.388-0.033c0.538,0.267,1.103,0.525,1.677,0.769c0.644,0.271,1.295,0.518,1.938,0.731
					c0.201,0.066,0.401,0.131,0.604,0.191c0.702,0.214,1.409,0.395,2.102,0.536c0.394,0.081,0.802,0.153,1.212,0.212
					c0.233,0.035,0.466,0.065,0.698,0.093c0.628,0.071,1.266,0.114,1.896,0.129c0.002,0.001,0.027,0.001,0.029,0.002l0.16,0.003
					c0.608,0.009,1.225-0.01,1.831-0.053c0.533-0.039,1.085-0.101,1.642-0.185c0.551-0.083,1.096-0.185,1.622-0.303
					c0.71-0.16,1.442-0.362,2.175-0.601c0.448-0.146,0.905-0.309,1.356-0.483c0.6-0.23,1.19-0.48,1.757-0.743
					c0.127-0.059,0.277-0.041,0.388,0.047c0.11,0.086,0.162,0.229,0.135,0.366l-1.224,6.021c-0.023,0.122-0.108,0.224-0.223,0.271
					l-0.047,0.019c-0.199,0.082-0.398,0.165-0.598,0.24c-0.468,0.182-0.938,0.348-1.395,0.496c-0.755,0.246-1.508,0.454-2.24,0.619
					c-0.54,0.122-1.104,0.229-1.677,0.314c-0.572,0.085-1.144,0.149-1.698,0.189C12.03,19.758,11.393,19.776,10.763,19.768z
					 M1.753,16.957c0.128,0.058,0.255,0.113,0.382,0.167c0.643,0.271,1.295,0.518,1.938,0.731c0.201,0.067,0.402,0.131,0.604,0.192
					c0.701,0.213,1.409,0.395,2.102,0.535c0.398,0.082,0.805,0.153,1.212,0.213c0.233,0.034,0.466,0.065,0.698,0.091
					c0.628,0.072,1.266,0.117,1.896,0.131c0.001-0.001,0.027,0.001,0.028,0.001l0.161,0.003c0.608,0.009,1.224-0.009,1.83-0.053
					c0.536-0.039,1.089-0.101,1.643-0.184c0.555-0.084,1.1-0.187,1.622-0.304c0.71-0.16,1.442-0.362,2.175-0.602
					c0.444-0.143,0.901-0.306,1.356-0.482c0.149-0.056,0.298-0.116,0.446-0.178l1.038-5.117c-0.372,0.162-0.753,0.316-1.136,0.465
					c-0.464,0.179-0.934,0.345-1.395,0.496c-0.755,0.245-1.508,0.453-2.241,0.618c-0.544,0.123-1.107,0.228-1.676,0.313
					c-0.575,0.086-1.146,0.15-1.698,0.19c-0.628,0.045-1.266,0.063-1.895,0.054l-0.178-0.003c-0.672-0.015-1.332-0.061-1.982-0.135
					c-0.241-0.027-0.482-0.06-0.723-0.095c-0.425-0.062-0.846-0.137-1.254-0.22c-0.714-0.147-1.443-0.333-2.169-0.554
					c-0.207-0.062-0.414-0.129-0.62-0.197c-0.66-0.22-1.331-0.473-1.993-0.752c-0.358-0.151-0.714-0.31-1.062-0.473L1.753,16.957z"
					/>
			</g>
			<g>
				<path fill="#FFFFFF" d="M10.727,22.271L10.727,22.271l-0.17-0.003c-0.002-0.001-0.025-0.001-0.027-0.002
					c-0.651-0.015-1.312-0.061-1.962-0.134c-0.241-0.028-0.481-0.06-0.723-0.095c-0.419-0.062-0.841-0.136-1.254-0.221
					c-0.713-0.146-1.442-0.332-2.169-0.553c-0.207-0.062-0.414-0.129-0.621-0.197c-0.66-0.22-1.331-0.474-1.992-0.752l-0.043-0.02
					c-0.115-0.05-0.219-0.164-0.24-0.287L1.053,17.28c-0.023-0.136,0.029-0.273,0.139-0.357c0.107-0.085,0.254-0.102,0.38-0.047
					l0.105,0.047c0.153,0.068,0.306,0.137,0.458,0.201c0.643,0.271,1.295,0.518,1.938,0.731c0.201,0.067,0.402,0.131,0.604,0.192
					c0.701,0.213,1.409,0.395,2.102,0.535c0.398,0.082,0.805,0.153,1.212,0.213c0.233,0.034,0.466,0.065,0.698,0.091
					c0.628,0.072,1.266,0.117,1.896,0.131c0.001-0.001,0.026,0.001,0.028,0.001l0.161,0.003c0.608,0.009,1.224-0.009,1.83-0.053
					c0.536-0.039,1.089-0.101,1.643-0.184c0.555-0.084,1.101-0.186,1.622-0.304c0.71-0.16,1.442-0.362,2.175-0.602
					c0.444-0.143,0.901-0.306,1.356-0.482c0.194-0.074,0.388-0.154,0.582-0.234l0.047-0.019c0.127-0.053,0.272-0.03,0.38,0.057
					c0.105,0.088,0.155,0.228,0.127,0.361l-0.55,2.714c-0.026,0.123-0.112,0.227-0.23,0.271l-0.123,0.051
					c-0.47,0.181-0.938,0.348-1.395,0.495c-0.752,0.245-1.507,0.453-2.241,0.618c-0.543,0.123-1.107,0.229-1.676,0.314
					c-0.573,0.086-1.145,0.149-1.698,0.189C11.994,22.262,11.356,22.28,10.727,22.271z M2.225,19.682
					c0.603,0.251,1.211,0.479,1.811,0.678c0.202,0.067,0.402,0.131,0.604,0.192c0.704,0.215,1.41,0.395,2.102,0.536
					c0.399,0.082,0.807,0.152,1.212,0.213c0.232,0.034,0.465,0.065,0.698,0.091c0.628,0.072,1.266,0.115,1.896,0.131l0.033,0.001
					c0,0,0.024,0,0.025,0.001l0.131,0.002l0,0c0.608,0.008,1.225-0.009,1.831-0.053c0.535-0.039,1.088-0.102,1.641-0.184
					c0.552-0.083,1.098-0.186,1.623-0.305c0.713-0.16,1.444-0.362,2.175-0.6c0.421-0.137,0.854-0.291,1.288-0.457l0.373-1.835
					c-0.469,0.181-0.938,0.347-1.395,0.495c-0.755,0.246-1.508,0.454-2.24,0.619c-0.54,0.122-1.104,0.229-1.677,0.314
					c-0.572,0.085-1.144,0.149-1.698,0.189c-0.628,0.046-1.266,0.064-1.896,0.056l-0.177-0.004
					c-0.672-0.017-1.332-0.062-1.982-0.136c-0.24-0.027-0.482-0.059-0.723-0.095c-0.42-0.062-0.842-0.136-1.254-0.22
					c-0.714-0.146-1.443-0.333-2.169-0.554c-0.207-0.062-0.414-0.128-0.621-0.196c-0.641-0.215-1.29-0.458-1.933-0.728L2.225,19.682
					z"/>
			</g>
			<g>
				<path fill="#FFFFFF" d="M18.135,27.856L3.154,27.64c-0.18-0.002-0.332-0.133-0.363-0.309l-1.266-7.322
					c-0.023-0.136,0.029-0.272,0.136-0.357c0.108-0.085,0.253-0.104,0.38-0.049l0.057,0.026c0.645,0.271,1.296,0.518,1.938,0.73
					c0.202,0.067,0.402,0.131,0.604,0.192c0.704,0.215,1.41,0.395,2.102,0.536c0.399,0.082,0.807,0.152,1.212,0.213
					c0.232,0.034,0.465,0.065,0.698,0.092c0.628,0.071,1.266,0.114,1.896,0.13l0.033,0.001c0,0,0.024,0,0.025,0.001l0.131,0.002
					c0.608,0.008,1.225-0.009,1.831-0.053c0.535-0.039,1.087-0.102,1.641-0.184c0.552-0.083,1.098-0.186,1.623-0.305
					c0.713-0.16,1.444-0.362,2.175-0.6c0.442-0.145,0.899-0.307,1.356-0.483l0.121-0.049c0.126-0.049,0.271-0.025,0.375,0.062
					s0.152,0.226,0.126,0.36l-1.479,7.282C18.47,27.734,18.314,27.86,18.135,27.856z M3.473,26.899l14.364,0.207l1.283-6.316
					c-0.298,0.108-0.593,0.21-0.883,0.304c-0.752,0.245-1.507,0.453-2.241,0.618c-0.543,0.123-1.107,0.229-1.676,0.314
					c-0.573,0.086-1.145,0.149-1.698,0.189c-0.628,0.046-1.266,0.064-1.896,0.056l-0.17-0.003c-0.002-0.001-0.025-0.001-0.027-0.002
					c-0.651-0.015-1.312-0.061-1.962-0.134c-0.241-0.028-0.481-0.06-0.723-0.095c-0.419-0.062-0.841-0.136-1.254-0.221
					c-0.713-0.146-1.442-0.332-2.169-0.553c-0.207-0.062-0.414-0.129-0.621-0.197c-0.473-0.157-0.95-0.332-1.427-0.521L3.473,26.899
					z"/>
			</g>
		</g>
	</g>
</g>
</svg>
