<svg xmlns="http://www.w3.org/2000/svg" width="21.773" height="27.856" viewBox="0 0 21.773 27.856"><path fill="#FFF" d="M8.016 13.638c.236.035.474.066.71.094L8.14 5.069l-.124 8.569zM4.035 12.683c.204.067.408.133.611.194l-.574-2.709-.037 2.515zM10.501 10.7l.202 2.983zM21.395 11.839a.373.373 0 0 1 .009-.745h.003a.373.373 0 0 1-.012.745zM16.025 13.69a.375.375 0 0 1-.264-.113.374.374 0 0 1-.091-.355l1.728-6.476a.376.376 0 0 1 .456-.264l1.91.511a.373.373 0 0 1 .264.455l-1.43 5.357a.373.373 0 0 1-.245.258c-.755.245-1.508.453-2.241.618a.318.318 0 0 1-.087.009zm1.998-6.391l-1.472 5.512a24.61 24.61 0 0 0 1.379-.395l1.282-4.8-1.189-.317zM10.844 14.239l-.137-.002a.37.37 0 0 1-.363-.348l-.013-.182a.34.34 0 0 1 .012-.119l2.71-10.322A.373.373 0 0 1 13.508 3l1.91.501a.377.377 0 0 1 .229.173.377.377 0 0 1 .038.282l-2.612 9.952a.372.372 0 0 1-.334.276c-.629.046-1.266.065-1.895.055zm2.835-10.423l-2.542 9.681c.428.001.857-.012 1.283-.037l2.449-9.331-1.19-.313z"/><path fill="#FFF" d="M6.777 13.794a.34.34 0 0 1-.07-.007 24.316 24.316 0 0 1-2.169-.554.37.37 0 0 1-.256-.279l-1.5-7.063a.373.373 0 0 1 .287-.443l1.933-.411a.374.374 0 0 1 .441.288l1.703 8.02a.373.373 0 0 1-.369.449zm-1.812-1.211c.445.131.891.249 1.333.352l-1.506-7.09-1.204.256 1.377 6.482zM10.65 14.235l-.004.001a21.91 21.91 0 0 1-1.963-.135.373.373 0 0 1-.33-.345l-.641-9.492a.374.374 0 0 1 .349-.398l1.969-.134a.372.372 0 0 1 .397.347l.647 9.579a.374.374 0 0 1-.011.12l-.048.181a.37.37 0 0 1-.365.276zm-1.574-.841c.412.041.826.07 1.24.087l-.608-8.979-1.228.083.596 8.809z"/><path fill="#FFF" d="M10.709 14.237l-.043-.001c-.113-.004-.23-.06-.298-.15s-.103-.208-.073-.317l.048-.18a.373.373 0 0 1 .732.07l.013.183a.37.37 0 0 1-.379.395zM4.029 13.055a.355.355 0 0 1-.111-.019c-.66-.22-1.331-.473-1.993-.752a.377.377 0 0 1-.229-.35l.128-8.701a.371.371 0 0 1 .377-.367l1.976.029c.206.003.37.173.367.378L4.51 5.607a.373.373 0 0 1-.295.36l-.627.134.848 3.989a.338.338 0 0 1 .008.083l-.036 2.514a.37.37 0 0 1-.379.368zm-1.584-1.361c.408.166.817.324 1.225.469l.028-1.959-.916-4.313a.373.373 0 0 1 .287-.443L3.77 5.3l.023-1.665-1.23-.018-.118 8.077z"/><path fill="#FFF" d="M4.065 10.541a.375.375 0 0 1-.358-.296l-.061-.283a.37.37 0 0 1 .288-.442.372.372 0 0 1 .442.287l.06.283a.371.371 0 0 1-.371.451zM8.01 14.011c-.017 0-.033-.002-.049-.004a22.876 22.876 0 0 1-1.254-.22.374.374 0 0 1-.289-.288l-.693-3.264a.334.334 0 0 1-.008-.083l.112-7.759a.372.372 0 0 1 .378-.367l1.976.028a.374.374 0 0 1 .368.378l-.027 1.807a.388.388 0 0 1-.054.19l.041.615a.31.31 0 0 1 .001.03l-.124 8.569a.373.373 0 0 1-.378.368zm-.914-.907c.183.035.367.068.553.099l.118-8.124-.055-.815a.368.368 0 0 1 .07-.245L7.8 2.794l-1.23-.018-.106 7.345.632 2.983z"/><path fill="#FFF" d="M6.777 13.794l-.033-.002a.376.376 0 0 1-.326-.293l-.693-3.264a.372.372 0 0 1 .729-.154l.692 3.264a.377.377 0 0 1-.154.386h-.001a.415.415 0 0 1-.131.056.388.388 0 0 1-.083.007zM8.134 5.442a.372.372 0 0 1-.366-.347l-.056-.831-.001-.033a.373.373 0 0 1 .314-.361l.036-.004.01-.002a.375.375 0 0 1 .394.351l.001.028a.489.489 0 0 1-.005.055l.05.746a.372.372 0 0 1-.347.397l-.03.001zM10.698 14.056a.373.373 0 0 1-.367-.348l-.466-6.881-.001-.03.094-6.429A.373.373 0 0 1 10.336 0l1.976.029a.37.37 0 0 1 .367.378L12.568 8a.33.33 0 0 1-.012.089l-1.493 5.689a.374.374 0 0 1-.365.278zm-.088-7.264l.311 4.594.903-3.441.104-7.176-1.231-.018-.087 6.041z"/><path fill="#FFF" d="M10.698 14.056a.374.374 0 0 1-.355-.467l1.364-5.201a.373.373 0 0 1 .721.188l-1.365 5.202a.373.373 0 0 1-.365.278zM10.494 11.073l-.005-.001a.372.372 0 0 1-.354-.302v-.002a.297.297 0 0 1-.006-.043l-.264-3.898-.001-.03a.372.372 0 0 1 .348-.366.372.372 0 0 1 .397.347l.264 3.897v.035a.373.373 0 0 1-.3.356l-.002.001-.002-.001-.002.001h-.001l-.04.005a.331.331 0 0 1-.032.001zM14.376 13.999a.372.372 0 0 1-.367-.377l.095-6.534c0-.03.004-.061.012-.09l.754-2.869-.438-.114a.373.373 0 0 1-.277-.366l.024-1.638a.371.371 0 0 1 .377-.367l1.977.029a.373.373 0 0 1 .367.377l-.145 9.961a.4.4 0 0 1-.013.091l-.351 1.313a.372.372 0 0 1-.278.267c-.544.123-1.107.228-1.676.313a.318.318 0 0 1-.061.004zm.472-6.855l-.087 6.045c.326-.055.65-.117.968-.185l.28-1.05.139-9.542-1.231-.019-.014.973.516.136a.377.377 0 0 1 .229.173.379.379 0 0 1 .038.283l-.838 3.186zM18.232 13.082a.37.37 0 0 1-.25-.103.37.37 0 0 1-.104-.367l1.335-4.996-1.243-.332a.371.371 0 0 1-.629-.275l.051-3.55a.373.373 0 0 1 .379-.366l1.976.028c.206.003.37.172.367.379l-.127 8.725a.372.372 0 0 1-.238.343c-.464.179-.934.345-1.395.496a.424.424 0 0 1-.122.018zm1.038-2.791l-.492 1.841c.156-.056.312-.112.469-.17l.023-1.671zm-1.177-3.745l1.226.327.045-3.013-1.231-.018-.04 2.704z"/><path fill="#FFF" d="M19.663 7.726a.487.487 0 0 1-.091-.013l-1.909-.51a.373.373 0 1 1 .192-.721l1.91.511a.372.372 0 0 1 .263.455.374.374 0 0 1-.365.278z"/><path fill="#FFF" d="M18.233 13.082a.373.373 0 0 1-.355-.47l1.43-5.355a.373.373 0 1 1 .72.191l-1.43 5.357a.372.372 0 0 1-.365.277z"/><path fill="#FFF" d="M10.763 19.768l-.177-.004a22.548 22.548 0 0 1-3.959-.451 23.978 23.978 0 0 1-2.169-.554 24.705 24.705 0 0 1-2.613-.95c-.157-.066-.314-.136-.472-.206l-.104-.047a.375.375 0 0 1-.216-.276L.006 11.225a.37.37 0 0 1 .533-.396c.538.267 1.103.525 1.677.769a26.533 26.533 0 0 0 2.542.922c.702.214 1.409.395 2.102.536a24.284 24.284 0 0 0 1.91.305c.628.071 1.266.114 1.896.129l.029.002.16.003c.608.009 1.225-.01 1.831-.053a21.658 21.658 0 0 0 1.642-.185 23.28 23.28 0 0 0 1.622-.303c.71-.16 1.442-.362 2.175-.601.448-.146.905-.309 1.356-.483.6-.23 1.19-.48 1.757-.743a.374.374 0 1 1 .523.413l-1.224 6.021a.368.368 0 0 1-.223.271l-.047.019c-.199.082-.398.165-.598.24-.468.182-.938.348-1.395.496a25.03 25.03 0 0 1-2.24.619 22.867 22.867 0 0 1-5.271.562zm-9.01-2.811a26.36 26.36 0 0 0 2.924 1.09 22.814 22.814 0 0 0 3.314.748 21.166 21.166 0 0 0 2.594.222c.001-.001.027.001.028.001l.161.003a21.076 21.076 0 0 0 3.473-.237c.555-.084 1.1-.187 1.622-.304a23.93 23.93 0 0 0 2.175-.602 25.188 25.188 0 0 0 1.802-.66l1.038-5.117a28.797 28.797 0 0 1-2.531.961c-.755.245-1.508.453-2.241.618a23.108 23.108 0 0 1-3.374.503c-.628.045-1.266.063-1.895.054l-.178-.003a21.805 21.805 0 0 1-2.705-.23 22.876 22.876 0 0 1-3.423-.774 27.764 27.764 0 0 1-3.675-1.422l.891 5.149z"/><path fill="#FFF" d="M10.727 22.271l-.17-.003-.027-.002a22.263 22.263 0 0 1-3.939-.45 24.14 24.14 0 0 1-2.79-.75 28.04 28.04 0 0 1-1.992-.752l-.043-.02a.415.415 0 0 1-.24-.287l-.473-2.727a.372.372 0 1 1 .519-.404l.105.047c.153.068.306.137.458.201a26.36 26.36 0 0 0 2.542.923 22.814 22.814 0 0 0 3.314.748 21.166 21.166 0 0 0 2.594.222c.001-.001.026.001.028.001l.161.003a21.076 21.076 0 0 0 3.473-.237 22.88 22.88 0 0 0 3.797-.906 25.188 25.188 0 0 0 1.938-.716l.047-.019a.375.375 0 0 1 .38.057.374.374 0 0 1 .127.361l-.55 2.714a.37.37 0 0 1-.23.271l-.123.051a26.372 26.372 0 0 1-3.636 1.113 23.007 23.007 0 0 1-3.374.503 20.7 20.7 0 0 1-1.896.058zm-8.502-2.589a26.168 26.168 0 0 0 2.415.87 22.83 22.83 0 0 0 3.314.749 21.509 21.509 0 0 0 2.594.222l.033.001.025.001.131.002c.608.008 1.225-.009 1.831-.053a22.323 22.323 0 0 0 3.264-.489c.713-.16 1.444-.362 2.175-.6a27.09 27.09 0 0 0 1.288-.457l.373-1.835a26.965 26.965 0 0 1-3.635 1.114 22.867 22.867 0 0 1-3.375.503c-.628.046-1.266.064-1.896.056l-.177-.004a22.548 22.548 0 0 1-3.959-.451 23.978 23.978 0 0 1-2.169-.554 24.705 24.705 0 0 1-2.554-.924l.322 1.849z"/><path fill="#FFF" d="M18.135 27.856L3.154 27.64a.374.374 0 0 1-.363-.309l-1.266-7.322a.373.373 0 0 1 .516-.406l.057.026a26.406 26.406 0 0 0 2.542.922 22.83 22.83 0 0 0 3.314.749 21.896 21.896 0 0 0 2.594.222l.033.001.025.001.131.002c.608.008 1.225-.009 1.831-.053a22.384 22.384 0 0 0 3.264-.489c.713-.16 1.444-.362 2.175-.6.442-.145.899-.307 1.356-.483l.121-.049c.126-.049.271-.025.375.062s.152.226.126.36l-1.479 7.282a.371.371 0 0 1-.371.3zm-14.662-.957l14.364.207 1.283-6.316c-.298.108-.593.21-.883.304-.752.245-1.507.453-2.241.618a23.007 23.007 0 0 1-3.374.503c-.628.046-1.266.064-1.896.056l-.17-.003-.027-.002a22.263 22.263 0 0 1-3.939-.45 24.14 24.14 0 0 1-2.79-.75 26.82 26.82 0 0 1-1.427-.521l1.1 6.354z"/></svg>