<?xml version="1.0" encoding="utf-8"?>
<!-- Generator: Adobe Illustrator 16.0.0, SVG Export Plug-In . SVG Version: 6.00 Build 0)  -->
<!DOCTYPE svg PUBLIC "-//W3C//DTD SVG 1.1//EN" "http://www.w3.org/Graphics/SVG/1.1/DTD/svg11.dtd" [
	<!ENTITY ns_flows "http://ns.adobe.com/Flows/1.0/">
	<!ENTITY ns_extend "http://ns.adobe.com/Extensibility/1.0/">
	<!ENTITY ns_ai "http://ns.adobe.com/AdobeIllustrator/10.0/">
	<!ENTITY ns_graphs "http://ns.adobe.com/Graphs/1.0/">
]>
<svg version="1.1" xmlns:x="&ns_extend;" xmlns:i="&ns_ai;" xmlns:graph="&ns_graphs;"
	 xmlns="http://www.w3.org/2000/svg" xmlns:xlink="http://www.w3.org/1999/xlink" xmlns:a="http://ns.adobe.com/AdobeSVGViewerExtensions/3.0/"
	 x="0px" y="0px" width="29.215px" height="28.07px" viewBox="0 0 29.215 28.07" enable-background="new 0 0 29.215 28.07"
	 xml:space="preserve">
<g id="Layer_2">
</g>
<g id="Isolation_Mode">
	<g>
		<g>
			<path fill="#FFFFFF" d="M0.241,11.443C0.303,5.072,5.535-0.062,11.905,0l5.791,0.054c6.371,0.062,11.503,5.294,11.443,11.664
				c-0.003,0.206-0.172,0.371-0.377,0.369L0.61,11.818C0.405,11.816,0.24,11.648,0.241,11.443z M17.689,0.8l-5.792-0.055
				C6.063,0.689,1.25,5.291,0.997,11.077l27.394,0.262C28.249,5.55,23.523,0.856,17.689,0.8z"/>
		</g>
		<g>
			<path fill="#FFFFFF" d="M0.126,23.599c0.002-0.207,0.17-0.371,0.376-0.369l28.151,0.27c0.205,0.002,0.371,0.17,0.369,0.375
				c-0.028,2.965-1.13,4.22-3.684,4.195l0,0c-0.932-0.008-2.027-0.18-3.188-0.36c-1.422-0.222-3.035-0.473-4.715-0.489l-5.791-0.055
				c-1.681-0.017-3.297,0.205-4.724,0.399c-1.163,0.159-2.262,0.308-3.194,0.299C1.175,27.838,0.097,26.564,0.126,23.599z
				 M22.267,26.974c1.182,0.184,2.202,0.342,3.08,0.351c1.709,0.016,2.803-0.506,2.92-3.084L0.874,23.979
				c0.068,2.58,1.151,3.124,2.861,3.14c0.878,0.008,1.901-0.131,3.086-0.292c1.451-0.198,3.097-0.423,4.831-0.406l5.791,0.055
				C19.178,26.492,20.819,26.748,22.267,26.974z"/>
		</g>
		<g>
			<path fill="#FFFFFF" d="M10.735,20.054l-8.259-6.615c-0.124-0.101-0.171-0.267-0.118-0.416c0.054-0.15,0.195-0.249,0.355-0.247
				l19.25,0.183c0.168,0.002,0.313,0.115,0.356,0.278c0.044,0.161-0.027,0.332-0.172,0.417l-10.992,6.431
				c-0.06,0.035-0.126,0.053-0.191,0.051C10.883,20.135,10.803,20.107,10.735,20.054z M3.784,13.531l7.217,5.781l9.606-5.621
				L3.784,13.531z"/>
		</g>
		<g>
			<g>
				<path fill="#FFFFFF" d="M14.521,17.569c-0.042-0.161,0.028-0.332,0.173-0.417l5.139-3.007c0.058-0.033,0.124-0.051,0.191-0.051
					l7.192,0.069c1.047,0.01,1.891,0.871,1.881,1.919c-0.01,1.048-0.871,1.892-1.918,1.882l-12.301-0.118
					C14.71,17.845,14.564,17.731,14.521,17.569z M20.119,14.84l-3.886,2.273l10.952,0.104c0.637,0.006,1.159-0.507,1.166-1.144
					c0.007-0.637-0.507-1.161-1.144-1.167L20.119,14.84z"/>
			</g>
			<g>
				<path fill="#FFFFFF" d="M0.2,15.805c0.01-1.048,0.871-1.892,1.919-1.882l2.052,0.02c0.084,0,0.164,0.03,0.229,0.082l3.861,3.093
					c0.125,0.099,0.172,0.266,0.119,0.416c-0.054,0.149-0.196,0.25-0.355,0.247l-5.942-0.056C1.034,17.714,0.19,16.853,0.2,15.805z
					 M4.035,14.687l-1.923-0.019c-0.638-0.005-1.161,0.507-1.167,1.144c-0.007,0.638,0.507,1.16,1.145,1.166l4.864,0.047
					L4.035,14.687z"/>
			</g>
		</g>
		<g>
			<g>
				<path fill="#FFFFFF" d="M0.603,21.467c-0.649-0.468-0.797-1.378-0.329-2.027c0.274-0.383,0.721-0.609,1.193-0.604
					c0.3,0.002,0.589,0.098,0.835,0.274c0.57,0.41,1.379,0.417,1.957,0.017l0.148-0.102c0.784-0.542,1.705-0.823,2.662-0.814
					s1.873,0.308,2.647,0.866l0.145,0.104c0.57,0.41,1.38,0.418,1.957,0.018l0.147-0.102c0.784-0.542,1.705-0.825,2.662-0.815
					c0.958,0.01,1.873,0.309,2.647,0.867l0.144,0.104c0.571,0.412,1.381,0.419,1.959,0.018l0.146-0.101
					c0.785-0.542,1.705-0.825,2.663-0.816c0.957,0.01,1.872,0.309,2.646,0.867l0.146,0.104c0.57,0.412,1.38,0.419,1.958,0.02
					c0.247-0.172,0.538-0.262,0.839-0.258c0.473,0.004,0.914,0.239,1.183,0.626c0.22,0.319,0.304,0.705,0.234,1.087
					c-0.07,0.382-0.284,0.713-0.604,0.935c-0.784,0.542-1.705,0.824-2.662,0.815c-0.958-0.01-1.872-0.309-2.646-0.866l-0.146-0.104
					c-0.57-0.412-1.379-0.418-1.957-0.019l-0.146,0.101c-0.785,0.543-1.705,0.825-2.663,0.816c-0.957-0.01-1.873-0.309-2.647-0.867
					l-0.143-0.103c-0.571-0.412-1.381-0.42-1.959-0.02l-0.146,0.102c-0.784,0.543-1.704,0.825-2.662,0.816
					c-0.958-0.009-1.873-0.31-2.647-0.868l-0.145-0.103c-0.569-0.412-1.38-0.418-1.958-0.019l-0.148,0.102
					c-0.785,0.543-1.705,0.825-2.662,0.816l0,0C2.291,22.323,1.377,22.024,0.603,21.467z M8.454,20.829l0.144,0.104
					c0.648,0.467,1.416,0.719,2.22,0.726c0.803,0.008,1.573-0.228,2.23-0.683l0.146-0.102c0.417-0.288,0.904-0.437,1.413-0.433
					c0.509,0.005,0.994,0.164,1.405,0.46l0.143,0.103c0.649,0.468,1.417,0.719,2.219,0.727c0.803,0.008,1.574-0.229,2.232-0.684
					l0.146-0.102c0.416-0.287,0.904-0.438,1.413-0.433c0.508,0.005,0.993,0.164,1.404,0.459l0.145,0.104
					c0.648,0.467,1.415,0.718,2.218,0.726s1.575-0.229,2.232-0.683c0.154-0.107,0.259-0.27,0.293-0.455
					c0.033-0.187-0.007-0.374-0.114-0.53c-0.214-0.308-0.672-0.396-0.984-0.179c-0.417,0.289-0.905,0.438-1.413,0.433
					c-0.508-0.004-0.993-0.164-1.404-0.46l-0.145-0.104c-0.648-0.467-1.416-0.718-2.219-0.725c-0.803-0.008-1.573,0.229-2.231,0.684
					l-0.146,0.101c-0.416,0.288-0.905,0.438-1.413,0.433c-0.508-0.004-0.994-0.164-1.404-0.459l-0.144-0.103
					c-0.648-0.468-1.416-0.719-2.219-0.727s-1.574,0.229-2.231,0.683l-0.147,0.102c-0.415,0.288-0.905,0.438-1.412,0.433
					c-0.508-0.005-0.994-0.163-1.405-0.459l-0.144-0.104c-0.649-0.468-1.417-0.718-2.22-0.726c-0.802-0.008-1.573,0.228-2.23,0.682
					l-0.148,0.103c-0.416,0.288-0.905,0.438-1.413,0.433c-0.508-0.005-0.993-0.164-1.403-0.459c-0.309-0.222-0.77-0.144-0.988,0.16
					c-0.228,0.316-0.155,0.76,0.161,0.987c0.647,0.467,1.415,0.718,2.217,0.726c0.803,0.008,1.574-0.228,2.231-0.683l0.148-0.103
					c0.416-0.288,0.905-0.438,1.413-0.433C7.557,20.375,8.043,20.533,8.454,20.829z"/>
			</g>
		</g>
	</g>
</g>
</svg>
