<svg xmlns="http://www.w3.org/2000/svg" width="29.215" height="28.07" viewBox="0 0 29.215 28.07"><path fill="#FFF" d="M.241 11.443C.303 5.072 5.535-.062 11.905 0l5.791.054c6.371.062 11.503 5.294 11.443 11.664a.374.374 0 0 1-.377.369L.61 11.818a.373.373 0 0 1-.369-.375zM17.689.8L11.897.745C6.063.689 1.25 5.291.997 11.077l27.394.262C28.249 5.55 23.523.856 17.689.8zM.126 23.599a.372.372 0 0 1 .376-.369l28.151.27c.205.002.371.17.369.375-.028 2.965-1.13 4.22-3.684 4.195-.932-.008-2.027-.18-3.188-.36-1.422-.222-3.035-.473-4.715-.489l-5.791-.055c-1.681-.017-3.297.205-4.724.399-1.163.159-2.262.308-3.194.299-2.551-.026-3.629-1.3-3.6-4.265zm22.141 3.375c1.182.184 2.202.342 3.08.351 1.709.016 2.803-.506 2.92-3.084L.874 23.979c.068 2.58 1.151 3.124 2.861 3.14.878.008 1.901-.131 3.086-.292 1.451-.198 3.097-.423 4.831-.406l5.791.055c1.735.016 3.376.272 4.824.498zM10.735 20.054l-8.259-6.615a.371.371 0 1 1 .237-.663l19.25.183a.372.372 0 0 1 .356.278.371.371 0 0 1-.172.417l-10.992 6.431a.359.359 0 0 1-.191.051.38.38 0 0 1-.229-.082zm-6.951-6.523l7.217 5.781 9.606-5.621-16.823-.16z"/><path fill="#FFF" d="M14.521 17.569a.374.374 0 0 1 .173-.417l5.139-3.007a.387.387 0 0 1 .191-.051l7.192.069a1.902 1.902 0 0 1 1.881 1.919 1.902 1.902 0 0 1-1.918 1.882l-12.301-.118a.372.372 0 0 1-.357-.277zm5.598-2.729l-3.886 2.273 10.952.104a1.156 1.156 0 0 0 .022-2.311l-7.088-.066zM.2 15.805a1.903 1.903 0 0 1 1.919-1.882l2.052.02c.084 0 .164.03.229.082l3.861 3.093a.372.372 0 0 1-.236.663l-5.942-.056A1.904 1.904 0 0 1 .2 15.805zm3.835-1.118l-1.923-.019a1.155 1.155 0 0 0-.022 2.31l4.864.047-2.919-2.338z"/><g><path fill="#FFF" d="M.603 21.467a1.454 1.454 0 0 1 .864-2.631c.3.002.589.098.835.274.57.41 1.379.417 1.957.017l.148-.102c.784-.542 1.705-.823 2.662-.814s1.873.308 2.647.866l.145.104c.57.41 1.38.418 1.957.018l.147-.102a4.575 4.575 0 0 1 2.662-.815c.958.01 1.873.309 2.647.867l.144.104a1.726 1.726 0 0 0 1.959.018l.146-.101a4.586 4.586 0 0 1 2.663-.816c.957.01 1.872.309 2.646.867l.146.104c.57.412 1.38.419 1.958.02a1.457 1.457 0 0 1 2.022.368c.22.319.304.705.234 1.087-.07.382-.284.713-.604.935a4.582 4.582 0 0 1-2.662.815 4.585 4.585 0 0 1-2.646-.866l-.146-.104a1.726 1.726 0 0 0-1.957-.019l-.146.101a4.579 4.579 0 0 1-2.663.816 4.585 4.585 0 0 1-2.647-.867l-.143-.103a1.728 1.728 0 0 0-1.959-.02l-.146.102a4.573 4.573 0 0 1-2.662.816 4.576 4.576 0 0 1-2.647-.868l-.145-.103a1.728 1.728 0 0 0-1.958-.019l-.148.102a4.578 4.578 0 0 1-2.662.816 4.595 4.595 0 0 1-2.648-.867zm7.851-.638l.144.104a3.835 3.835 0 0 0 2.22.726 3.826 3.826 0 0 0 2.23-.683l.146-.102a2.435 2.435 0 0 1 1.413-.433 2.43 2.43 0 0 1 1.405.46l.143.103a3.84 3.84 0 0 0 2.219.727 3.835 3.835 0 0 0 2.232-.684l.146-.102a2.433 2.433 0 0 1 1.413-.433c.508.005.993.164 1.404.459l.145.104c.648.467 1.415.718 2.218.726s1.575-.229 2.232-.683a.709.709 0 0 0 .179-.985.724.724 0 0 0-.984-.179 2.423 2.423 0 0 1-1.413.433 2.422 2.422 0 0 1-1.404-.46l-.145-.104a3.833 3.833 0 0 0-2.219-.725 3.832 3.832 0 0 0-2.231.684l-.146.101a2.428 2.428 0 0 1-1.413.433 2.426 2.426 0 0 1-1.404-.459l-.144-.103c-.648-.468-1.416-.719-2.219-.727s-1.574.229-2.231.683l-.147.102a2.425 2.425 0 0 1-1.412.433 2.432 2.432 0 0 1-1.405-.459l-.144-.104a3.84 3.84 0 0 0-2.22-.726 3.834 3.834 0 0 0-2.23.682l-.148.103a2.428 2.428 0 0 1-1.413.433 2.43 2.43 0 0 1-1.403-.459.726.726 0 0 0-.988.16.708.708 0 0 0 .161.987 3.835 3.835 0 0 0 2.217.726 3.829 3.829 0 0 0 2.231-.683l.148-.103a2.44 2.44 0 0 1 2.817.027z"/></g></svg>