<svg id="Layer_2" data-name="Layer 2" xmlns="http://www.w3.org/2000/svg" viewBox="0 0 80.69 22.26"><defs><style>.cls-1{fill:#fff;}</style></defs><title>Artboard 1</title><path class="cls-1" d="M26.28,9.17a2.83,2.83,0,0,0,.94.81.7.7,0,0,0,.51,0,1.37,1.37,0,0,0,.47-.26,1,1,0,0,0,.28-.36c.06-.13,0-.22,0-.28A2.49,2.49,0,0,1,27.61,8a4.42,4.42,0,0,1-.33-1.5,6.18,6.18,0,0,1,.16-1.69,5.88,5.88,0,0,1,.64-1.64,5.5,5.5,0,0,1,1.1-1.36A4,4,0,0,1,30.73,1a4,4,0,0,1,2.16.07,3.76,3.76,0,0,1,1.6,1.05,4.38,4.38,0,0,1,.93,1.74A5.16,5.16,0,0,1,35.56,6a5.08,5.08,0,0,1-.37,1.36,5.26,5.26,0,0,1-.71,1.2,5.6,5.6,0,0,1-1,1,4.12,4.12,0,0,1-1.17.64.27.27,0,0,0-.18.32.27.27,0,0,0,.09.18.29.29,0,0,0,.18.06,1.36,1.36,0,0,0,.29,0l.29,0a3.41,3.41,0,0,1,1.22.49c.46.28.94.61,1.46,1l1.59,1.21c.55.42,1.08.79,1.61,1.12a7.77,7.77,0,0,0,1.51.74,2.11,2.11,0,0,0,1.32.07,1.18,1.18,0,0,0,.66-.49,2.14,2.14,0,0,0,.3-.74,1.66,1.66,0,0,0,0-.65c0-.18-.09-.26-.18-.24a3,3,0,0,1-1.32.13A5.64,5.64,0,0,1,39.86,13a9.64,9.64,0,0,1-1.36-.64l-1.36-.79L35.8,10.8a8.12,8.12,0,0,0-1.31-.57L35,9.9a3.53,3.53,0,0,0,.52-.41,6.33,6.33,0,0,0,1.2-1.35,6.86,6.86,0,0,0,.79-1.63A5.54,5.54,0,0,0,37.86,5a4.74,4.74,0,0,0-.13-1.43,4.28,4.28,0,0,0-.64-1.38,4.4,4.4,0,0,0-.53-.63A4.73,4.73,0,0,0,35.9,1,5.81,5.81,0,0,0,34.58.33a5.52,5.52,0,0,0-1.3-.3A5.72,5.72,0,0,0,32,0,7.42,7.42,0,0,0,30.77.3a5.82,5.82,0,0,0-1.61.78,8.13,8.13,0,0,0-1.45,1.26,8.94,8.94,0,0,0-1.16,1.6,7,7,0,0,0-.71,1.76,6.18,6.18,0,0,0-.17,1.22,4.18,4.18,0,0,0,.12,1.19A3,3,0,0,0,26.28,9.17Z"/><path class="cls-1" d="M31.25,11.56q.11-1.12.25-2.37t.23-2.4q.09-1.15.07-2.09a4.28,4.28,0,0,0-.22-1.46.68.68,0,0,0-.32-.38.92.92,0,0,0-.45-.1,1.67,1.67,0,0,0-.49.09A2.69,2.69,0,0,0,29.9,3a.91.91,0,0,0-.26.21c-.05.07-.05.12,0,.14s.12.22.13.54,0,.73,0,1.23-.06,1.07-.11,1.7-.1,1.28-.15,2-.1,1.34-.14,2-.06,1.28-.07,1.83,0,1.18.05,1.58a1.27,1.27,0,0,0,.19.7,1,1,0,0,0,.56.46c.21.05.16,0,.34-.05s-.1-.26,0-.38.39-.12.36-.21c-.1-.28.28-.62.3-1.2S31.19,12.3,31.25,11.56Z"/><path class="cls-1" d="M46.49,9.24q-.07,1.15-.09,2.21t0,1.91a2.56,2.56,0,0,0,.3,1.18,1,1,0,0,0,.57.49.77.77,0,0,0,.53-.08.87.87,0,0,0,.36-.36.52.52,0,0,0,.08-.38A3.51,3.51,0,0,1,48.11,13c0-.51,0-1.06.08-1.66s.12-1.23.19-1.88.13-1.29.17-1.92a14.76,14.76,0,0,0,0-1.77,4.37,4.37,0,0,0-.3-1.43.77.77,0,0,0-.34-.42.67.67,0,0,0-.43-.06A1.34,1.34,0,0,0,47,4a2.54,2.54,0,0,0-.37.29,1,1,0,0,0-.22.3c0,.1,0,.15,0,.17s.16.29.17.72,0,1,0,1.62S46.54,8.47,46.49,9.24Z"/><path class="cls-1" d="M53,8.54s0,0,0,0a8,8,0,0,0,.58-.9,5.1,5.1,0,0,0,.41-1,5.66,5.66,0,0,0,.33-2.35,4,4,0,0,0-.82-2.15,3.63,3.63,0,0,0-1.27-1.05,4.37,4.37,0,0,0-1.7-.43,5.93,5.93,0,0,0-1.35.08,7.12,7.12,0,0,0-1.38.38,8.27,8.27,0,0,0-1.31.65,7.3,7.3,0,0,0-1.16.87,9.32,9.32,0,0,0-1,1.16,7.19,7.19,0,0,0-.85,1.41,7.37,7.37,0,0,0-.55,1.74,6.33,6.33,0,0,0-.09,1.77,4.13,4.13,0,0,0,.45,1.55,2.57,2.57,0,0,0,1.08,1.08.81.81,0,0,0,.46.13,1.15,1.15,0,0,0,.43-.1,1.33,1.33,0,0,0,.35-.23,1.12,1.12,0,0,0,.23-.29.51.51,0,0,0,.07-.27.21.21,0,0,0-.15-.18,1.47,1.47,0,0,1-.68-.56,3.74,3.74,0,0,1-.52-1,6,6,0,0,1-.27-1.36,6.3,6.3,0,0,1,.06-1.51,5.8,5.8,0,0,1,.45-1.5,4.56,4.56,0,0,1,2.28-2.26,3.66,3.66,0,0,1,1.5-.33,3.49,3.49,0,0,1,1.48.34,3.61,3.61,0,0,1,1.3,1.09,3,3,0,0,1,.45.77,3.56,3.56,0,0,1,.22.78,4.32,4.32,0,0,1,.05.75,5.38,5.38,0,0,1-.05.66,5.69,5.69,0,0,1-.57,1.74A2.53,2.53,0,0,0,50,8a2,2,0,0,0-.89.67v0a1.35,1.35,0,0,0-.25,1.09.9.9,0,0,0,.47.62,1.24,1.24,0,0,0,.88.05l.59-.22.3-.14A4,4,0,0,1,54,12.93c.55,2.38-1.66,3.12-3.51,3.34-2.44.29-7.46-.86-8.31,2.46-.21.81.25.93.74.72.2.07.4.15.59.25a1.3,1.3,0,0,1,.37.25l0,0A12.1,12.1,0,0,1,42,21.32l-.31.17a.22.22,0,0,0,0,0,4.69,4.69,0,0,1-.17-1.14c0-.44-.06-.88-.07-1.33,0-.13,0-.26,0-.4.39-.09.87-.5.6-.67a1.09,1.09,0,0,0-1.27.13c-.48.38-.37,1.08-.36,1.63a10.39,10.39,0,0,0,.22,2.12c.11.48.38.56.84.42a9.15,9.15,0,0,0,3-2c.26-.22.64-.58.27-.9a3.3,3.3,0,0,0-1.1-.56l.06-.12.19-.05a6.59,6.59,0,0,1,1.17-.16c1-.07,2,0,2.95-.06,2,0,4.06-.23,5.65-1.48A5.32,5.32,0,0,0,55.47,11,5,5,0,0,0,53,8.54Zm-9.1,11.37Z"/><path class="cls-1" d="M37.8,9a4.05,4.05,0,0,0-.23.61,1.19,1.19,0,0,0-.05.52.59.59,0,0,0,.34.48,1.06,1.06,0,0,0,.57.08,1.92,1.92,0,0,0,.6-.18,1.55,1.55,0,0,0,.38-.24,4.51,4.51,0,0,0,.32.4,3.31,3.31,0,0,0,.5.46,2.5,2.5,0,0,0,.61.33,2,2,0,0,0,.52.13h.21a2.31,2.31,0,0,0,.48-.05,3,3,0,0,0,.76-.29.25.25,0,0,0,.12-.23.62.62,0,0,0,0-.24.53.53,0,0,0-.14-.2.22.22,0,0,0-.26,0,3.07,3.07,0,0,1-.92.35,1.54,1.54,0,0,1-.73,0,1.47,1.47,0,0,1-.6-.36,2.88,2.88,0,0,1-.47-.62L40,9.46a4,4,0,0,0,.31-.55,4.05,4.05,0,0,0,.39-1.58.19.19,0,0,0-.14-.21.53.53,0,0,0-.21,0,.59.59,0,0,0-.21.06.25.25,0,0,0-.15.19,6.65,6.65,0,0,1-.08.76,4.45,4.45,0,0,1-.15.6,3.38,3.38,0,0,1-.19.46l-.09.17,0-.09-.13-.37-.12-.38-.07-.25.23-.41c.09-.17.18-.34.26-.5a3.33,3.33,0,0,0,.19-.51,1.42,1.42,0,0,0,.06-.48.64.64,0,0,0-.18-.4.78.78,0,0,0-.49-.21.65.65,0,0,0-.25,0,.69.69,0,0,0-.27.15,1.08,1.08,0,0,0-.23.28,1.82,1.82,0,0,0-.17.43,1.71,1.71,0,0,0,0,.56,4.41,4.41,0,0,0,.12.71l-.28.47C38,8.55,37.9,8.76,37.8,9Zm1-2.25A1,1,0,0,1,39,6.33a.39.39,0,0,1,.13-.11l0,0a.32.32,0,0,1,0,.16,1.64,1.64,0,0,1-.07.29,3.36,3.36,0,0,1-.12.32l-.12.25c0-.08,0-.15,0-.21A1.22,1.22,0,0,1,38.82,6.71ZM38.6,9.25c0-.12.09-.26.15-.4l.15.39a5.9,5.9,0,0,0,.25.56A.84.84,0,0,1,39,10a.52.52,0,0,1-.2.1.18.18,0,0,1-.15,0s-.07-.07-.1-.21A1.16,1.16,0,0,1,38.6,9.25Z"/><path class="cls-1" d="M19,14.95c1.3-.16,2.45-1.17,1.54-2.92-.38-.72-1.85-.38-1.45.4.25.49.54,1.34-.34,1.34s-.76-.63-.53-1.23c.29-.76-1.06-1.06-1.4-.45s-1.1.34-1.53.11c-.79-.43-.16-.87,0-1,.74-.5.14-1.31-.62-1.16s-2.3-.61-1.25-1.15c.88-.45,0-1.48-.8-1.09a1.69,1.69,0,0,0-1,2,1.67,1.67,0,0,0,.22.45C9.51,11.1,6.76,11.4,4.59,10c-.19-.12-.4-.25-.59-.4s0-.17.13-.16h.41q1.24,0,2.48,0a23.28,23.28,0,0,0,3.55.36c.64,0,1.27-1.35.57-1.37A27.78,27.78,0,0,1,8,8.21a.45.45,0,0,0-.25-.05H7.64a8.45,8.45,0,0,1-5-2.37c-.37-.42-.87-1.47-1.23-2-.15-.18,0-.23.12-.17,1.15.49,2,1.49,3.18,2A23.63,23.63,0,0,0,15.5,7.17.57.57,0,0,0,15.82,7a5.25,5.25,0,0,0,3.09,1.11c.55,0,1.08-1.41.46-1.41s-4.08-.95-2.14-1.45c1.05-.27,2.58-.55,3.54.17,1.31,1,.9,2.61,1.22,4a13,13,0,0,0,1.46,3.8c1,1.69,2.81,4.32,5.23,3.4,1.74-.66,2.45-1.22,2.45-3.14,0-1-1.62-.25-1.7.36-.2,1.59-2.06,1.51-3,.77a9.82,9.82,0,0,1-3-4.54c-.75-2.26,0-5.68-3-6.41-1.52-.38-4.24.05-5,1.6a1.54,1.54,0,0,0-.15.5A27.13,27.13,0,0,1,9,5.38,11.92,11.92,0,0,1,4,3.43C3.28,2.88,1.94,1.69.89,2.14c-2,.85-.23,3.8.7,4.72A8.5,8.5,0,0,0,3.07,8a1.93,1.93,0,0,0-.4.07c-1,.31-1,1.41-.34,2.08a7.26,7.26,0,0,0,5,2.09c-.83.39-1.46.8-1.28,1.13.34.61,1.35.76,2,.79a10.65,10.65,0,0,0,3.8-.6c-.47.38-.94.77-1.43,1.12s-1,1-.35,1.53c1.14.9,2.7.49,4.11-.26-.36.4-.74.89-.52,1.25.36.6,1.43.54,2,.38A6,6,0,0,0,19,15ZM7.66,12.79c-.07-.22.75-.38,1.16-.54A14,14,0,0,0,13,11.13h0a3.89,3.89,0,0,0,.5.14,1.33,1.33,0,0,0,0,1.12.81.81,0,0,0-.43.18l-.17.14C11.25,13.27,8.05,13.94,7.66,12.79Zm4.14,2.54,0,0,1-.82,1.3-1.07a.76.76,0,0,0,.17-.19,3.34,3.34,0,0,0,1,.4,7.94,7.94,0,0,1-2.92,1.68C12.26,15.34,11.84,15.49,11.8,15.33Zm3.68,1.12a2.15,2.15,0,0,1-.36,0c.6-.71,1.18-1.45,1.76-2.18a1.9,1.9,0,0,0,1,.63A3.15,3.15,0,0,1,15.48,16.44Z"/><path class="cls-1" d="M79.79,2.48c-1.05-.45-2.39.75-3.12,1.3a11.94,11.94,0,0,1-5,2,27.06,27.06,0,0,1-6.3.48,1.53,1.53,0,0,0-.15-.5c-.75-1.55-3.48-2-5-1.58-2.92.74-2.2,4.15-2.94,6.42a9.81,9.81,0,0,1-3,4.55,3,3,0,0,1-2.05.82l0,1c2.22.93,4-1.53,5-3.17a13,13,0,0,0,1.44-3.8c.31-1.41-.1-3,1.2-4,1-.73,2.49-.45,3.54-.19,1.94.49-1.46,1.46-2.13,1.46s-.09,1.4.46,1.4a5.25,5.25,0,0,0,3.08-1.13.56.56,0,0,0,.32.14A23.6,23.6,0,0,0,76,6c1.15-.52,2-1.51,3.17-2,.11-.06.27,0,.12.17-.36.54-.86,1.59-1.22,2a8.46,8.46,0,0,1-5,2.4H73a.47.47,0,0,0-.25.05,27.47,27.47,0,0,1-3.17.28c-.7,0-.07,1.4.58,1.37a23.24,23.24,0,0,0,3.55-.38q1.24,0,2.48,0h.41c.12,0,.21.1.13.16s-.4.28-.59.4c-2.17,1.38-4.92,1.09-7.28.27a1.67,1.67,0,0,0,.22-.45,1.69,1.69,0,0,0-1-2c-.77-.39-1.68.65-.8,1.09,1.06.54-.47,1.3-1.24,1.15s-1.36.67-.62,1.16c.2.13.84.57,0,1-.43.24-1.23.42-1.53-.1s-1.7-.3-1.4.46c.24.6.32,1.23-.52,1.24s-.6-.85-.35-1.34c.4-.78-1.08-1.11-1.45-.39-.9,1.75.26,2.75,1.56,2.91l.05.08A6,6,0,0,0,65.1,18c.57.15,1.65.21,2-.4.21-.36-.17-.85-.53-1.25,1.42.75,3,1.14,4.11.24.67-.54.15-1.17-.35-1.53s-1-.73-1.43-1.11a10.61,10.61,0,0,0,3.8.58c.63,0,1.63-.18,2-.8.18-.33-.45-.74-1.29-1.12a7.25,7.25,0,0,0,5-2.12c.66-.67.68-1.78-.35-2.08a2.06,2.06,0,0,0-.4-.07A8.42,8.42,0,0,0,79.11,7.2C80,6.28,81.75,3.32,79.79,2.48ZM65.28,16.85a3.14,3.14,0,0,1-2.4-1.57,1.89,1.89,0,0,0,1-.64c.58.73,1.17,1.46,1.77,2.17A2.28,2.28,0,0,1,65.28,16.85Zm3.64-1.16,0,0c0,.17-.46,0-.6,0A8,8,0,0,1,65.42,14a3.4,3.4,0,0,0,1-.41.76.76,0,0,0,.17.19l1.31,1.06Zm4.16-2.54c-.39,1.16-3.59.51-5.26,0L67.65,13a.78.78,0,0,0-.43-.18,1.33,1.33,0,0,0,0-1.12,3.48,3.48,0,0,0,.5-.14h0a13.94,13.94,0,0,0,4.2,1.09C72.32,12.78,73.15,12.93,73.08,13.15Z"/></svg>