<?xml version="1.0" encoding="utf-8"?>
<!-- Generator: Adobe Illustrator 16.0.0, SVG Export Plug-In . SVG Version: 6.00 Build 0)  -->
<!DOCTYPE svg PUBLIC "-//W3C//DTD SVG 1.1//EN" "http://www.w3.org/Graphics/SVG/1.1/DTD/svg11.dtd" [
	<!ENTITY ns_flows "http://ns.adobe.com/Flows/1.0/">
	<!ENTITY ns_extend "http://ns.adobe.com/Extensibility/1.0/">
	<!ENTITY ns_ai "http://ns.adobe.com/AdobeIllustrator/10.0/">
	<!ENTITY ns_graphs "http://ns.adobe.com/Graphs/1.0/">
]>
<svg version="1.1" id="Layer_2" xmlns:x="&ns_extend;" xmlns:i="&ns_ai;" xmlns:graph="&ns_graphs;"
	 xmlns="http://www.w3.org/2000/svg" xmlns:xlink="http://www.w3.org/1999/xlink" xmlns:a="http://ns.adobe.com/AdobeSVGViewerExtensions/3.0/"
	 x="0px" y="0px" width="203.575px" height="101.284px" viewBox="0 0 203.575 101.284" enable-background="new 0 0 203.575 101.284"
	 xml:space="preserve">
<path fill="#C32C27" d="M198.977,36.275c2.099-2.196,5.134-6.689,4.518-11.109c-0.366-2.614-1.9-4.707-4.324-5.896
	c-0.929-0.457-1.938-0.709-2.999-0.75c-3.324-0.126-6.105,1.84-7.985,3.166c-0.16,0.112-0.312,0.218-0.454,0.314
	c-2.522,1.718-5.758,2.387-8.589,2.814c-2.912,0.439-6.035,0.598-9.278,0.475l-0.005,0c-2.539-3.634-7.409-5.089-11.195-5.233
	c-1.244-0.047-2.414,0.038-3.48,0.253c-7.611,1.526-8.816,8.407-9.535,12.519c-0.238,1.357-0.463,2.641-0.81,3.548
	c-0.142,0.364-0.291,0.724-0.453,1.077c-0.617-0.955-1.546-1.678-2.601-2.026c-0.427-0.53-0.855-1.221-1.269-2.056
	c-0.488-0.98-0.946-2.073-1.358-3.245c-0.444-1.265-0.861-2.541-1.24-3.794c-0.128-0.423-0.252-0.834-0.369-1.236
	c0.152-0.045,0.303-0.092,0.455-0.137c1.044-0.328,2.034-0.72,2.946-1.168c1.235-0.608,2.249-1.351,3.006-2.202
	c1.797-1.959,2.032-3.965,1.913-5.303c-0.119-1.356-0.548-2.595-1.27-3.678c-0.723-1.077-1.622-1.898-2.678-2.451
	c0.491-1.249,0.688-2.368,0.613-3.481c-0.21-2.658-1.518-4.193-2.579-5.013c-1.067-0.823-2.245-1.344-3.507-1.55
	c-1.282-0.211-2.416-0.129-3.561,0.253c-1.679,0.576-2.916,1.805-3.393,3.371c-0.098,0.32-0.165,0.651-0.197,0.987
	c-0.271,0.465-0.632,1.033-1.074,1.689c-0.654,0.972-1.41,2.064-2.271,3.289l-0.671,0.948c-0.062-0.057-0.127-0.114-0.19-0.169
	c-0.681-0.583-1.453-1.039-2.297-1.352c-0.574-0.212-1.122-0.363-1.739-0.477l-0.19-0.028c-1.4-0.179-2.831-0.1-4.227,0.226
	c-1.413,0.334-2.798,0.957-4.116,1.853c-0.403,0.275-0.804,0.582-1.198,0.916c-0.203-0.398-0.438-0.774-0.708-1.127
	c-0.56-0.738-1.257-1.361-2.072-1.85c-0.997-0.597-2.122-0.917-3.448-0.979c-1.627-0.062-3.213,0.206-4.71,0.799
	c-1.265,0.497-2.448,1.19-3.523,2.066c-0.122-0.229-0.244-0.454-0.375-0.677c-0.465-0.807-1.024-1.597-1.66-2.342
	c-0.622-0.731-1.341-1.435-2.146-2.103c-1.332-1.061-2.717-1.915-4.115-2.539c-1.386-0.617-2.8-1.058-4.201-1.309
	c-1.352-0.243-2.788-0.341-4.14-0.282c-1.302,0.056-2.602,0.222-3.857,0.496c-1.838,0.392-3.663,1.1-5.426,2.106
	c-1.663,0.946-3.235,2.112-4.675,3.462c-1.41,1.328-2.688,2.828-3.797,4.462c-1.152,1.705-2.043,3.492-2.646,5.316
	c-0.419,1.263-0.709,2.565-0.859,3.871c-0.174,1.448-0.141,2.884,0.096,4.271c0.26,1.546,0.812,3.015,1.642,4.37
	c0.881,1.432,2.099,2.66,3.654,3.677l0.344,0.198c0.136,0.07,0.271,0.135,0.409,0.196c-1.33,0.784-2.334,2.022-2.904,3.253
	c-1.9-1.669-3.488-4.305-4.371-7.265c-0.277-0.929-0.404-2.224-0.539-3.609c-0.405-4.151-1.085-11.1-8.557-13.198
	c-1.037-0.292-2.232-0.47-3.452-0.517c-3.788-0.144-8.757,0.938-11.562,4.369l-0.062-0.002c-3.194-0.122-6.274-0.516-9.155-1.174
	c-2.791-0.64-5.966-1.552-8.356-3.459l-0.479-0.394c-1.729-1.43-4.345-3.591-7.671-3.717c-1.057-0.04-2.08,0.133-3.043,0.519
	c-2.51,1.005-4.199,2.976-4.762,5.552c-0.949,4.358,1.733,9.068,3.662,11.416c-0.021,0.066-0.041,0.13-0.061,0.195
	c-0.722,2.514,0.015,5.344,1.921,7.391c1.813,1.947,3.96,3.466,6.386,4.516c0.096,0.486,0.261,0.955,0.491,1.396
	c0.86,1.661,2.803,3.713,7.17,4.262c0.317,1.297,1.062,2.464,2.183,3.401c2,1.671,4.455,2.438,7.263,2.256
	c1.306,1.389,3.188,2.166,5.47,2.253c1.01,0.038,2.091-0.068,3.043-0.299c3.348-0.811,6.214-2.68,8.757-5.709
	c1.626-0.523,3.009-1.411,4.055-2.597c1.437,2.105,2.977,3.762,4.594,4.942c-0.49,0.473-0.975,0.975-1.447,1.499
	c-1.167,1.292-2.163,2.68-2.961,4.123c-0.907,1.616-1.618,3.369-2.115,5.213c-0.509,1.895-0.749,3.782-0.713,5.609
	c0.034,2.008,0.438,3.917,1.202,5.676c0.88,2.021,2.295,3.699,4.066,4.836c0.82,0.573,1.705,0.954,2.641,1.137
	c0.001,0.107,0,0.217,0,0.324c0.003,0.945,0.063,1.779,0.186,2.523c-2.933,0.31-5.307,1.145-7.224,2.542
	c-1.896-0.292-3.94,0.179-5.532,1.266c-3.096,2.116-3.198,5.678-3.24,7.204c-0.005,0.137-0.008,0.268-0.014,0.393
	c-0.09,1.844-0.158,3.992,0.186,6.164c0.597,3.761,3.344,5.197,5.715,5.287c0.609,0.022,1.24-0.035,1.926-0.178
	c3.621-0.742,6.701-2.977,9.178-4.772l0.415-0.3c0.503-0.365,1.94-1.407,2.675-3.143c0.248,0.019,0.49,0.037,0.725,0.055l0.241,0.02
	c0.742,0.059,1.483,0.115,2.222,0.159c0.551,0.034,1.106,0.061,1.664,0.083c4.48,0.17,10.266-0.059,15.276-3.369
	c5.893-3.897,8.001-10.116,8.028-14.832c0.531-0.238,1.046-0.544,1.538-0.908c0.084-0.064,0.171-0.13,0.255-0.197
	c0.115,0.062,0.231,0.118,0.346,0.172c0.801,0.372,1.662,0.579,2.559,0.613c0.477,0.018,0.959-0.011,1.323-0.075
	c1.52-0.196,2.938-0.87,4.216-2.006c0.506-0.448,0.999-0.958,1.472-1.521c0.543,0.714,1.198,1.301,1.951,1.748
	c0.474,0.287,0.976,0.512,1.5,0.671c-1.382,1.721-2.024,3.433-1.957,5.205c0.05,1.294,0.62,4.486,4.839,6.199
	c1.348,0.548,2.729,0.852,4.109,0.904c8.278,0.313,12.942-8.222,13.43-9.165c0.161-0.277,0.84-1.423,1.645-2.786
	c0.006,0.003,0.006,0.005,0.011,0.007c1.456,1.082,3.094,1.704,4.869,1.851c1.454,0.112,2.935-0.032,4.366-0.431
	c0.896-0.248,1.796-0.586,2.686-1.013c0.235,1.006,0.672,1.919,1.298,2.723c0.829,1.067,1.952,1.851,3.226,2.258
	c1.402,0.5,3.024,0.55,4.648,0.136c1.062-0.273,2.166-0.705,3.279-1.282c0.876-0.455,1.777-0.998,2.686-1.612l0.635-0.431
	l0.556-0.724c0.877-1.214,1.48-3.271,0.506-5.296c0.03-0.029,0.061-0.059,0.092-0.089c1.02-0.995,1.923-2.019,2.68-3.042
	c1.158-1.573,1.79-3.213,1.881-4.878c0.104-2.029-0.507-3.812-1.771-5.158c-0.867-0.927-1.892-1.612-3.038-2.036
	c-0.089-0.032-0.176-0.061-0.263-0.091c-0.065-0.598-0.207-1.186-0.427-1.758c-0.35-0.911-0.877-1.695-1.539-2.336l0.065-0.04
	c0.851,0.849,1.901,1.544,3.087,2.028c2.301,3.213,5.018,5.292,8.295,6.355c0.932,0.304,2.004,0.49,3.016,0.529
	c2.281,0.088,4.216-0.545,5.623-1.829c2.78,0.396,5.291-0.183,7.416-1.7c1.187-0.849,2.02-1.954,2.435-3.226
	c4.396-0.216,6.485-2.109,7.464-3.695c0.267-0.428,0.469-0.886,0.604-1.365c2.496-0.863,4.751-2.213,6.709-4.019
	c2.056-1.896,3.006-4.663,2.475-7.216C199.007,36.41,198.992,36.342,198.977,36.275z"/>
<path fill="#2C1312" d="M195.928,35.578c0.241-0.199,0.479-0.4,0.705-0.605c1.631-1.47,4.836-5.719,4.314-9.452
	c-0.247-1.765-1.253-3.128-2.913-3.944c-0.604-0.296-1.263-0.46-1.962-0.486c-2.453-0.094-4.799,1.561-6.351,2.657
	c-0.192,0.138-0.376,0.266-0.542,0.378c-2.953,2.011-6.537,2.762-9.654,3.231c-3.512,0.527-7.281,0.673-11.186,0.429
	c-1.644-3.595-6.271-5.026-9.773-5.159c-1.039-0.04-2.006,0.029-2.879,0.204c-5.886,1.18-6.822,6.531-7.508,10.437
	c-0.26,1.487-0.504,2.891-0.941,4.029c-1.309,3.414-3.479,6.399-5.961,8.193c-0.442,0.32-1.316,0.532-2.074,0.503
	c-1.392-0.053-1.438-0.623-1.452-0.812c-0.017-0.215-0.058-0.436-0.12-0.658c0.484-0.029,0.955-0.124,1.403-0.282
	c0.832-0.299,1.541-0.699,2.104-1.192c0.649-0.567,1.096-1.203,1.326-1.891c0.327-0.994,0.091-1.74-0.165-2.189
	c-0.341-0.597-0.917-1.021-1.562-1.164c-0.265-0.067-0.598-0.328-0.932-0.739c-0.553-0.677-1.089-1.534-1.592-2.546
	c-0.538-1.08-1.035-2.27-1.48-3.537c-0.456-1.298-0.886-2.611-1.276-3.905c-0.39-1.294-0.736-2.479-1.043-3.552
	c-0.024-0.085-0.049-0.17-0.072-0.253c0.05-0.01,0.1-0.021,0.149-0.033c0.929-0.207,1.851-0.453,2.743-0.73
	c0.919-0.29,1.788-0.634,2.579-1.02c0.938-0.462,1.695-1.017,2.25-1.634c1.162-1.27,1.318-2.515,1.245-3.336
	c-0.081-0.926-0.366-1.759-0.845-2.477c-0.483-0.718-1.064-1.256-1.729-1.602c-0.412-0.208-0.833-0.321-1.252-0.337
	c-1.03-0.039-1.916,0.517-2.306,1.433c-0.007,0.006-0.013,0.009-0.02,0.015c-0.046,0.04-0.094,0.078-0.145,0.119
	c0.834-1.252,1.518-2.395,2.035-3.397c0.696-1.356,0.988-2.431,0.926-3.393c-0.138-1.718-0.938-2.678-1.588-3.179
	c-0.725-0.559-1.516-0.911-2.352-1.05c-0.861-0.14-1.594-0.091-2.312,0.151c-1.214,0.415-1.63,1.242-1.768,1.696
	c-0.091,0.293-0.122,0.604-0.094,0.909c-0.021,0.042-0.047,0.09-0.076,0.142c-0.315,0.592-0.797,1.368-1.428,2.305
	c-0.664,0.983-1.427,2.092-2.299,3.328c-0.879,1.248-1.791,2.53-2.73,3.85c-0.121,0.169-0.243,0.338-0.363,0.508
	c-0.033-0.547-0.155-1.058-0.369-1.527c-0.286-0.62-0.68-1.151-1.176-1.578c-0.448-0.385-0.957-0.686-1.51-0.891
	c-0.432-0.159-0.836-0.274-1.249-0.351l-0.112-0.018c-1.102-0.14-2.221-0.078-3.316,0.18c-1.105,0.261-2.202,0.758-3.261,1.476
	c-1.002,0.681-1.978,1.59-2.901,2.698c-0.648,0.783-1.278,1.7-1.877,2.739c-0.09-0.31-0.211-0.592-0.366-0.847
	c0.092-0.116,0.174-0.234,0.245-0.354c0.388-0.55,0.582-1.241,0.576-2.119l-0.032-0.324c-0.062-0.341-0.154-0.699-0.28-1.104
	c-0.172-0.538-0.432-1.036-0.77-1.479c-0.357-0.472-0.81-0.876-1.346-1.195c-0.62-0.373-1.343-0.575-2.221-0.613
	c-1.27-0.049-2.506,0.16-3.67,0.618c-1.135,0.447-2.191,1.094-3.141,1.919c-0.871,0.758-1.666,1.649-2.361,2.649
	c-0.006-0.03-0.01-0.057-0.016-0.087c-0.254-1.462-0.776-2.875-1.547-4.196c-0.392-0.674-0.86-1.334-1.396-1.96
	c-0.525-0.616-1.123-1.206-1.79-1.759c-1.161-0.926-2.358-1.667-3.561-2.204c-1.193-0.532-2.406-0.91-3.606-1.125
	c-1.179-0.211-2.392-0.295-3.575-0.245c-1.158,0.049-2.312,0.2-3.434,0.443c-1.577,0.336-3.155,0.951-4.688,1.825
	c-1.489,0.849-2.897,1.892-4.187,3.101c-1.276,1.201-2.429,2.557-3.429,4.031c-1.021,1.51-1.807,3.085-2.335,4.687
	c-0.364,1.094-0.615,2.226-0.748,3.361c-0.143,1.205-0.116,2.395,0.079,3.54c0.206,1.22,0.642,2.38,1.296,3.451
	c0.68,1.104,1.62,2.055,2.823,2.843l0.165,0.096c0.847,0.437,1.813,0.54,2.771,0.303c0.421-0.104,0.819-0.25,1.193-0.438
	c-0.015,0.105-0.03,0.21-0.045,0.314c-0.214,1.538-0.386,2.992-0.511,4.326c-0.335-0.171-0.708-0.27-1.104-0.285
	c-1.899-0.072-3.684,1.856-3.952,3.564c-0.03,0.186-0.116,0.75-1.51,0.696c-0.759-0.028-1.613-0.305-2.03-0.659
	c-2.336-1.974-4.276-5.117-5.321-8.62c-0.349-1.168-0.486-2.589-0.634-4.09c-0.386-3.946-0.914-9.354-6.693-10.976
	c-0.845-0.238-1.831-0.384-2.854-0.424c-3.505-0.133-8.229,0.946-10.14,4.406c-3.907-0.055-7.661-0.487-11.116-1.277
	c-3.073-0.706-6.593-1.726-9.385-3.955c-0.129-0.103-0.268-0.218-0.414-0.339l-0.098-0.08c-1.465-1.21-3.679-3.038-6.134-3.131
	c-0.695-0.027-1.365,0.086-1.989,0.336c-1.717,0.686-2.824,1.969-3.205,3.712c-0.801,3.683,2.07,8.162,3.586,9.755
	c0.213,0.22,0.431,0.438,0.656,0.653c-0.306,0.409-0.539,0.871-0.681,1.368c-0.474,1.648,0.036,3.537,1.331,4.927
	c1.952,2.098,4.331,3.604,7.074,4.493c-0.188,0.673-0.117,1.371,0.205,1.989c0.88,1.699,2.905,2.722,5.854,2.959
	c0.525,0.043,1.047,0.062,1.574,0.061c-0.077,0.273-0.124,0.549-0.137,0.829c-0.038,0.802,0.176,1.979,1.428,3.023
	c1.793,1.5,4.111,2.008,6.812,1.483c0.03,0.064,0.062,0.126,0.096,0.188c0.754,1.368,2.271,2.163,4.271,2.24
	c0.78,0.029,1.611-0.052,2.341-0.229c2.999-0.727,5.577-2.517,7.881-5.468c1.896-0.425,3.444-1.495,4.274-2.964
	c0.516-0.913,0.945-2.29,0.545-4.109c0.409,1.025,0.869,1.993,1.381,2.914c2.646,4.744,5.556,7.499,8.666,8.214
	c-0.425,0.283-0.836,0.581-1.232,0.892c-1.021,0.803-2.045,1.772-3.045,2.878c-1.034,1.145-1.918,2.378-2.627,3.659
	c-0.801,1.429-1.432,2.983-1.873,4.622c-0.446,1.657-0.656,3.305-0.627,4.896c0.029,1.669,0.363,3.248,0.99,4.695
	c0.68,1.562,1.783,2.861,3.161,3.738c0.709,0.504,1.481,0.773,2.3,0.805c0.54,0.019,1.064-0.045,1.568-0.189
	c-0.074,1.076-0.11,2.068-0.107,2.966c0.002,1.806,0.25,3.074,0.771,3.967c0.204,0.378,0.426,0.716,0.665,1.01
	c-3.211-0.094-7.557,0.176-10.426,2.914c-1.481-0.61-3.302-0.392-4.701,0.565c-2.012,1.377-2.082,3.733-2.122,5.142
	c-0.005,0.159-0.009,0.313-0.017,0.458c-0.082,1.715-0.147,3.709,0.157,5.635c0.444,2.798,2.618,3.096,3.274,3.121
	c0.398,0.016,0.827-0.024,1.311-0.125c3.076-0.632,5.912-2.687,8.188-4.338l0.411-0.296c0.523-0.38,1.916-1.392,2.05-3.001
	c0.018-0.215,0.017-0.479-0.036-0.772c1.098,0.049,2.214,0.135,3.209,0.212c0.77,0.059,1.539,0.118,2.308,0.166
	c0.531,0.032,1.065,0.059,1.604,0.08c4.096,0.155,9.361-0.039,13.759-2.947c5.428-3.587,7.436-9.865,6.747-14.613
	c0.123-0.01,0.242-0.024,0.354-0.043c0.812-0.105,1.602-0.445,2.354-1.004c0.562-0.416,1.105-0.937,1.618-1.541
	c0.443,0.544,0.979,0.964,1.599,1.252c0.49,0.227,1.019,0.353,1.572,0.373c0.31,0.012,0.639-0.01,0.863-0.051
	c1.012-0.122,1.977-0.589,2.871-1.382c0.678-0.602,1.33-1.341,1.94-2.2c0.573-0.806,1.116-1.685,1.615-2.611
	c0.177-0.327,0.347-0.653,0.513-0.979c-0.038,0.651-0.015,1.281,0.07,1.882c0.116,0.814,0.354,1.545,0.705,2.172
	c0.407,0.724,0.954,1.291,1.619,1.688c0.598,0.361,1.271,0.559,2.006,0.588c0.175,0.006,0.354,0.002,0.389-0.004
	c1.016-0.016,2.025-0.374,3.007-1.07c0.59-0.425,1.173-0.936,1.737-1.522c0.406,0.522,0.913,0.983,1.518,1.379
	c-5.395,3.22-7.974,6.042-7.877,8.605c0.039,0.987,0.509,2.807,3.236,3.916c1.07,0.434,2.159,0.675,3.24,0.715
	c6.729,0.256,10.68-7.054,11.089-7.854c0.209-0.36,2.047-3.465,3.444-5.822c0.438,0.855,1.106,1.605,1.984,2.238
	c1.066,0.79,2.261,1.246,3.549,1.354c1.135,0.095,2.308-0.023,3.474-0.348c1.094-0.303,2.2-0.771,3.286-1.393
	c1.012-0.578,2.017-1.253,2.987-2.006c0.077-0.061,0.155-0.121,0.231-0.184c-0.262,0.587-0.462,1.173-0.596,1.745
	c-0.185,0.811-0.226,1.579-0.121,2.282c0.121,0.818,0.425,1.546,0.908,2.165c0.519,0.666,1.219,1.145,2.062,1.415
	c0.933,0.334,1.997,0.359,3.142,0.065c0.877-0.226,1.797-0.585,2.734-1.071c0.785-0.409,1.602-0.9,2.429-1.459l0.32-0.219
	l0.229-0.315c0.635-0.878,0.812-2.343-0.3-3.481c-0.207-0.212-0.423-0.387-0.648-0.529c0.624-0.559,1.238-1.129,1.834-1.708
	c0.917-0.894,1.728-1.811,2.403-2.726c0.855-1.163,1.322-2.336,1.386-3.487c0.067-1.331-0.295-2.43-1.077-3.267
	c-0.598-0.631-1.285-1.096-2.054-1.381c-0.679-0.248-1.32-0.329-1.952-0.235c-0.081,0.013-0.162,0.026-0.245,0.04
	c0.023-0.062,0.047-0.12,0.066-0.18c0.32-0.986,0.294-2.01-0.069-2.962c-0.416-1.083-1.188-1.86-2.234-2.245
	c-1.139-0.417-2.293-0.394-3.287,0.064c1.801-1.27,3.576-3.222,5.314-5.848c0.58-0.88,1.112-1.811,1.598-2.803
	c-0.537,1.784-0.211,3.19,0.232,4.14c0.715,1.528,2.177,2.713,4.035,3.279c2.068,3.116,4.506,5.097,7.445,6.051
	c0.713,0.231,1.534,0.376,2.316,0.405c2,0.076,3.572-0.603,4.428-1.908c0.039-0.061,0.076-0.12,0.11-0.182
	c2.649,0.729,5.005,0.397,6.909-0.962c1.323-0.947,1.627-2.104,1.65-2.907c0.009-0.279-0.016-0.56-0.073-0.835
	c0.525,0.04,1.046,0.059,1.572,0.057c2.96-0.012,5.055-0.877,6.059-2.502c0.37-0.595,0.496-1.287,0.358-1.973
	c2.805-0.676,5.289-2,7.396-3.942c1.396-1.288,2.049-3.132,1.7-4.812C196.399,36.488,196.204,36.01,195.928,35.578z M110.732,49.757
	c-0.688-0.331-1.428-0.52-2.143-0.547c-0.089-0.003-0.173-0.004-0.253-0.002c-0.726,0.008-1.371,0.171-1.927,0.486
	c-0.066,0.04-0.136,0.081-0.207,0.122c0.002-0.068-0.001-0.133-0.002-0.199c-0.059-1.037-0.451-1.981-1.13-2.736
	c-0.354-0.39-0.755-0.695-1.192-0.911c0.24-0.216,0.461-0.456,0.663-0.722c0.587-0.771,1.005-1.596,1.247-2.45
	c0.251-0.873,0.336-1.69,0.254-2.433c-0.212-1.83-1.397-2.525-2.456-2.565l-0.26-0.002l-0.374,0.066
	c-0.766,0.182-1.524,0.2-2.281,0.047c-0.887-0.176-1.794-0.481-2.695-0.905c-0.96-0.453-1.927-1.009-2.877-1.651
	c-1.04-0.708-2.083-1.426-3.129-2.158c-1.017-0.709-2.029-1.393-3.012-2.034c1.2-0.916,2.279-1.987,3.222-3.19
	c0.208-0.265,0.41-0.542,0.606-0.825c0.236,1.107,0.688,2.104,1.358,2.969c1.036,1.355,2.537,2.163,4.349,2.341
	c1.385,0.113,2.675-0.227,3.867-0.979c0.968-0.615,1.863-1.401,2.661-2.336c0.675-0.789,1.286-1.653,1.823-2.572
	c0.088,0.814,0.293,1.599,0.619,2.342c0.54,1.239,1.488,2.223,2.814,2.918c0.043,0.025,0.086,0.046,0.129,0.069
	c-0.252,0.43-0.473,0.922-0.663,1.464c-0.252,0.714-0.379,1.577-0.375,2.562c-0.001,0.538,0.039,1.129,0.116,1.761
	c-0.168,0.238-0.347,0.492-0.533,0.762c-0.472,0.68-0.909,1.375-1.303,2.065c-0.425,0.748-0.777,1.499-1.055,2.234
	c-0.364,0.988-0.505,1.854-0.428,2.637c0.129,1.496,0.878,2.697,2.111,3.378c0.901,0.5,1.869,0.724,2.996,0.681
	c0.837-0.031,1.673-0.193,2.494-0.481c0.523,0.671,1.112,1.288,1.749,1.838c0.243,0.207,0.503,0.408,0.784,0.602
	c-0.021,0.015-0.043,0.027-0.065,0.043c-1.005,0.672-1.987,1.569-2.914,2.665c-0.05,0.06-0.101,0.12-0.152,0.184
	c0.02-0.672-0.065-1.297-0.255-1.875C112.502,51.153,111.769,50.257,110.732,49.757z M97.8,50.785
	c-0.423-0.335-0.848-0.533-1.212-0.652c-0.863-0.281-1.731-0.354-2.547-0.217c-0.816,0.142-1.526,0.44-2.107,0.886
	c-1.022,0.788-1.145,1.709-1.126,2.188v0.002c-0.681-1.153-1.587-1.661-2.272-1.887c-0.515-0.165-1.028-0.261-1.529-0.279
	c-0.344-0.013-0.684,0.009-1.019,0.067c-0.82,0.141-1.528,0.438-2.099,0.881c-0.199,0.152-0.365,0.31-0.5,0.469
	c-0.323-1.281-0.845-2.465-1.562-3.541c-0.938-1.442-2.152-2.615-3.609-3.486c-0.513-0.306-1.055-0.575-1.627-0.806
	c0.092-0.07,0.182-0.145,0.267-0.223c1.164-1.065,1.151-2.183,1.036-2.774l-0.027-0.117c-0.039-0.149-0.154-0.764,0.021-2.356
	c0.147-1.352,0.377-2.929,0.678-4.681l0.033-0.19c0.142,0.044,0.283,0.076,0.424,0.095c0.295,0.064,0.594,0.095,0.932,0.113
	l0.59,0.006c0.527,0.163,1.157,0.506,1.876,1.02c0.98,0.704,2.048,1.563,3.164,2.552c1.168,1.035,2.374,2.109,3.62,3.228
	c1.288,1.156,2.587,2.217,3.857,3.156c1.339,0.986,2.67,1.773,3.953,2.338c0.617,0.271,1.232,0.467,1.838,0.583
	c-0.045,0.056-0.086,0.111-0.123,0.166c-0.641,0.908-0.957,1.977-0.94,3.181C97.788,50.6,97.794,50.693,97.8,50.785z M70.774,24.87
	c-0.183-0.291-0.335-0.619-0.456-0.986c-0.295-0.892-0.43-1.885-0.397-2.956c0.034-1.126,0.24-2.297,0.616-3.484
	c0.329-1.049,0.793-2.04,1.378-2.952c0.043,0.102,0.091,0.201,0.146,0.295c0.002,0.064,0.002,0.142-0.001,0.229
	c-0.017,0.714-0.096,1.644-0.232,2.764c-0.145,1.181-0.333,2.5-0.575,4.031C71.096,22.812,70.936,23.832,70.774,24.87z
	 M73.317,54.809c0.153,0.492,0.249,0.981,0.287,1.456c0.039,0.509,0.037,0.988-0.007,1.429c-0.049,0.484-0.118,0.922-0.206,1.297
	c-0.184,0.768-0.441,1.516-0.771,2.227c-1.046-0.066-2.045,0.053-2.973,0.36c-0.201,0.066-0.398,0.14-0.59,0.219
	c0.176-1.374,0.281-2.712,0.31-3.987c0.032-1.592-0.161-3.031-0.57-4.271c-0.346-1.05-0.923-1.82-1.716-2.291
	c-0.561-0.333-1.168-0.514-1.801-0.538c-0.017,0-0.033,0-0.051,0c0.854-0.265,1.735-0.369,2.553-0.301
	c0.918,0.074,1.779,0.348,2.629,0.83c0.821,0.468,1.566,1.207,2.224,2.205C72.95,53.904,73.178,54.365,73.317,54.809z
	 M85.773,20.637c-0.191,0.927-0.511,1.821-0.945,2.654c-0.439,0.841-0.986,1.618-1.626,2.312c-0.643,0.699-1.365,1.315-2.146,1.83
	c-0.438,0.286-0.893,0.529-1.365,0.723c0.362-1.896,0.676-3.714,0.939-5.412c0.297-1.909,0.498-3.68,0.6-5.261
	c0.116-1.809,0.007-3.235-0.337-4.363c-0.369-1.222-1.099-1.882-1.648-2.226c-0.552-0.34-1.157-0.551-1.804-0.63
	c0.013-0.003,0.028-0.007,0.043-0.01c1.543-0.2,2.898-0.052,4.005,0.434c1.169,0.51,2.088,1.222,2.812,2.175
	c0.744,0.978,1.258,2.154,1.527,3.497C86.105,17.737,86.088,19.175,85.773,20.637z M66.496,80.398
	c0.559-0.875,0.746-1.748,0.549-2.616l-0.029-0.109c-0.159-0.54-0.205-1.322-0.136-2.266c0.092-1.177,0.255-2.463,0.483-3.823
	l0.018-0.095c1.053,0.521,2.136,0.651,3.45,0.381c0.563-0.13,1.124-0.287,1.671-0.467c0.008-0.002,0.013-0.005,0.021-0.007
	c2.397,1.173,4.007,3.113,4.329,5.236c0.187,1.242,0.002,2.178-0.564,2.862c-0.986,1.195-3.302,1.922-6.521,2.05
	c-1.032,0.043-2.535-0.076-4.061-0.219C66.009,81.058,66.274,80.749,66.496,80.398z M118.008,62.821
	c0.239-0.644,0.515-1.237,0.814-1.753c0.578-0.975,1.146-1.854,1.688-2.619c0.321-0.455,0.633-0.862,0.936-1.225
	c0.141,0.146,0.292,0.279,0.454,0.398c-0.059,0.092-0.108,0.188-0.153,0.289c-0.524,0.771-1.104,1.663-1.72,2.653
	c-0.635,1.021-1.284,1.976-1.933,2.837c-0.144,0.191-0.286,0.374-0.427,0.546C117.75,63.585,117.863,63.209,118.008,62.821z
	 M102.301,22.896c-0.084,0.152-0.172,0.308-0.262,0.467c-0.285,0.504-0.582,0.986-0.881,1.434c0.042-0.248,0.096-0.506,0.16-0.777
	c0.153-0.629,0.352-1.275,0.592-1.926c0.015,0.035,0.026,0.071,0.041,0.106C102.047,22.446,102.165,22.678,102.301,22.896z
	 M60.354,56.724c-0.045,1.002-0.165,2.263-0.36,3.75c-0.183,1.406-0.39,2.927-0.62,4.562c-0.151-0.363-0.281-0.766-0.388-1.202
	c-0.207-0.846-0.315-1.806-0.323-2.852c-0.006-1.042,0.117-2.101,0.364-3.147c0.208-0.878,0.53-1.75,0.959-2.598
	c0.023,0.155,0.061,0.294,0.103,0.416c0.068,0.192,0.158,0.373,0.271,0.541C60.361,56.317,60.362,56.492,60.354,56.724z
	 M132.905,66.438c0.042-0.114,0.087-0.229,0.134-0.342c1.002-0.115,1.967-0.335,2.875-0.654c0.232-0.08,0.457-0.165,0.683-0.254
	c-0.274,0.203-0.552,0.396-0.83,0.584c-0.638,0.425-1.272,0.784-1.886,1.062c-0.441,0.201-0.854,0.343-1.229,0.421
	C132.71,67.006,132.792,66.732,132.905,66.438z M136.681,52.684c-1.111,0.127-2.243,0.461-3.362,0.992
	c-0.37,0.176-0.743,0.379-1.12,0.608c-0.002-0.024-0.008-0.048-0.013-0.073c-0.24-1.344-0.849-2.357-1.805-3.013
	c-0.775-0.53-1.62-0.828-2.521-0.886c0.059-0.204,0.098-0.417,0.117-0.636c0.052-0.566-0.013-1.134-0.193-1.696
	c-0.188-0.571-0.479-1.072-0.865-1.495c-0.873-0.947-2.179-1.249-3.368-0.731c-0.927,0.42-1.732,0.667-2.4,0.733
	c-0.518,0.052-0.983,0.007-1.336-0.134c-0.365-0.145-0.705-0.396-1.013-0.742c-0.125-0.141-0.25-0.298-0.368-0.466
	c0.46-0.579,0.904-1.237,1.318-1.957c0.437-0.76,0.829-1.618,1.166-2.554c0.35-0.966,0.605-2.059,0.757-3.22
	c0.236-1.342-0.496-2.63-1.778-3.132c-0.222-0.087-0.453-0.155-0.692-0.199c0.014-0.161,0.021-0.321,0.021-0.478
	c0-0.409-0.055-0.804-0.158-1.181c0.581,0.48,1.225,0.786,1.912,0.914c0.873,0.164,1.665,0.052,2.396-0.318
	c1.227-0.625,1.604-1.699,1.552-2.565c0.012-0.023,0.023-0.051,0.038-0.081c0.204-0.43,0.508-0.958,0.905-1.57
	c0.417-0.65,0.936-1.407,1.547-2.246c0.24-0.333,0.488-0.669,0.746-1.015c0.098,0.663,0.195,1.395,0.289,2.19
	c0.167,1.429,0.361,2.955,0.586,4.571c0.23,1.696,0.564,3.329,0.996,4.854c0.459,1.636,1.089,3.08,1.872,4.299
	c0.113,0.172,0.232,0.342,0.356,0.506c-0.057,0.051-0.11,0.104-0.164,0.158c-0.603,0.626-0.864,1.49-0.777,2.568
	c0.256,3.193,2.135,5.95,5.295,7.764c0.12,0.068,0.245,0.137,0.367,0.199C136.883,52.662,136.78,52.673,136.681,52.684z
	 M120.44,22.144c-0.196,0.242-0.396,0.48-0.605,0.716c-0.55,0.618-1.13,1.204-1.726,1.742c-0.566,0.514-1.146,0.961-1.719,1.33
	c-0.389,0.252-0.76,0.444-1.11,0.577c0.01-0.11,0.022-0.226,0.04-0.346c0.09-0.589,0.254-1.226,0.487-1.894
	c0.235-0.672,0.511-1.284,0.809-1.806c0.561-0.962,1.123-1.854,1.674-2.646c0.319-0.458,0.629-0.87,0.927-1.234
	c0.567,0.59,1.287,0.941,2.09,1.02c0.281,0.028,0.558,0.019,0.821-0.018C121.559,20.422,121.001,21.265,120.44,22.144z
	 M70.092,43.441c-0.191,0.01-0.381,0.023-0.568,0.041c-0.341,0.031-0.683,0.072-1.024,0.122c0.358-0.41,0.678-0.845,0.956-1.301
	c0.062,0.156,0.131,0.302,0.205,0.435C69.791,42.991,69.936,43.225,70.092,43.441z M142.877,54.67c0,0.002,0,0.004,0,0.005
	c-0.367-0.507-0.852-0.923-1.449-1.245c1.027-0.145,2.048-0.506,3.062-1.082C143.77,52.938,143.228,53.717,142.877,54.67z
	 M45.724,31.779c-0.993-0.038-1.942,0.248-2.66,0.784c-1.08-0.709-2.639-0.87-3.82-0.419c0.077-0.452,0.056-0.922-0.068-1.387
	c-0.435-1.606-2.045-2.761-3.88-2.702c0.199-0.449,0.291-0.94,0.265-1.441c0.477-0.004,0.954-0.013,1.435-0.026
	c0.055-0.003,0.108-0.005,0.164-0.011c2.09,1.453,4.883,2.187,6.657,2.255l0.124,0.002c2.054,0.043,3.498-2.048,3.801-3.775
	c0.074,0.532,0.111,1.167,0.143,1.938c0.037,0.934,0.078,1.989,0.284,3.044c0.267,1.359,0.587,2.634,0.968,3.835
	C48.517,32.62,47.244,31.836,45.724,31.779z M154.448,37.463c0.286-1.036,0.408-2.086,0.515-3.012
	c0.091-0.767,0.176-1.397,0.291-1.922c0.172,1.744,1.455,3.938,3.512,4.051l0.12,0.006c1.772,0.068,4.61-0.452,6.806-1.74
	c0.055,0.008,0.107,0.016,0.163,0.021c0.477,0.05,0.952,0.094,1.426,0.135c-0.063,0.5-0.008,0.994,0.155,1.458
	c-1.797-0.18-3.519,0.831-4.073,2.402c-0.161,0.451-0.216,0.918-0.175,1.375c-1.143-0.541-2.707-0.498-3.842,0.13
	c-0.673-0.591-1.598-0.948-2.591-0.986c-1.521-0.059-2.849,0.626-3.562,1.832C153.665,40.043,154.082,38.797,154.448,37.463z"/>
<g>
	<path fill="#F1C71C" d="M61.505,65.16c-0.265,1.856-0.479,3.643-0.649,5.363c-0.168,1.723-0.252,3.269-0.251,4.636
		c0.004,1.371,0.174,2.346,0.51,2.926c0.396,0.735,0.832,1.167,1.301,1.29c0.47,0.124,0.905,0.097,1.305-0.084
		c0.401-0.18,0.718-0.451,0.948-0.812c0.23-0.365,0.316-0.67,0.26-0.918c-0.236-0.807-0.309-1.827-0.216-3.057
		c0.094-1.23,0.261-2.569,0.507-4.021c0.244-1.448,0.518-2.958,0.823-4.528c0.307-1.568,0.567-3.11,0.783-4.625
		c0.218-1.514,0.338-2.946,0.367-4.3c0.026-1.353-0.128-2.532-0.46-3.54c-0.176-0.531-0.424-0.893-0.745-1.082
		c-0.32-0.191-0.665-0.264-1.034-0.221c-0.369,0.045-0.738,0.164-1.11,0.36c-0.368,0.198-0.692,0.412-0.967,0.64
		c-0.274,0.232-0.476,0.459-0.599,0.682c-0.126,0.225-0.119,0.367,0.023,0.424c0.231,0.139,0.326,0.738,0.281,1.792
		c-0.047,1.058-0.171,2.369-0.375,3.938C62.004,61.593,61.769,63.305,61.505,65.16z"/>
	<path fill="#F1C71C" d="M64.798,26.394c0.509,0.829,1.216,1.542,2.122,2.135c0.373,0.194,0.782,0.233,1.228,0.123
		c0.445-0.109,0.841-0.288,1.189-0.537c0.345-0.248,0.598-0.521,0.757-0.815c0.158-0.297,0.149-0.524-0.026-0.683
		c-0.831-0.707-1.435-1.632-1.813-2.775c-0.379-1.143-0.547-2.382-0.508-3.715c0.04-1.331,0.279-2.692,0.716-4.079
		c0.437-1.387,1.062-2.669,1.874-3.851c0.813-1.181,1.789-2.208,2.938-3.084c1.148-0.874,2.446-1.463,3.896-1.77
		c1.982-0.263,3.728-0.066,5.23,0.592c1.507,0.659,2.734,1.615,3.685,2.863c0.948,1.247,1.593,2.714,1.93,4.395
		c0.341,1.682,0.322,3.403-0.054,5.161c-0.236,1.131-0.62,2.206-1.151,3.225c-0.532,1.019-1.185,1.949-1.957,2.783
		c-0.77,0.838-1.622,1.564-2.556,2.179c-0.936,0.615-1.926,1.061-2.975,1.336c-0.361,0.119-0.526,0.369-0.5,0.749
		c0.013,0.19,0.076,0.341,0.194,0.451c0.116,0.11,0.261,0.172,0.433,0.187c0.225,0.051,0.458,0.078,0.697,0.081
		c0.241,0.003,0.48,0.002,0.72,0.004c0.853,0.196,1.807,0.672,2.864,1.432c1.058,0.758,2.172,1.656,3.344,2.693
		c1.171,1.038,2.381,2.116,3.627,3.236c1.249,1.116,2.48,2.125,3.694,3.021c1.216,0.895,2.395,1.594,3.535,2.096
		c1.138,0.501,2.201,0.644,3.19,0.429c0.709-0.165,1.275-0.521,1.695-1.072c0.417-0.551,0.715-1.127,0.883-1.727
		c0.173-0.598,0.232-1.123,0.182-1.571c-0.051-0.447-0.181-0.652-0.389-0.611c-1.076,0.257-2.148,0.278-3.219,0.065
		c-1.072-0.212-2.141-0.571-3.21-1.075c-1.066-0.502-2.126-1.111-3.174-1.821c-1.048-0.713-2.099-1.437-3.151-2.172
		c-1.055-0.735-2.094-1.437-3.12-2.104c-1.028-0.667-2.051-1.215-3.069-1.646c0.464-0.208,0.927-0.438,1.395-0.685
		c0.467-0.247,0.918-0.546,1.351-0.896c1.197-0.859,2.258-1.879,3.179-3.058c0.92-1.178,1.664-2.453,2.237-3.814
		c0.515-1.185,0.85-2.383,1.008-3.595c0.159-1.211,0.143-2.378-0.049-3.494c-0.213-1.213-0.643-2.37-1.287-3.476
		c-0.324-0.562-0.712-1.107-1.162-1.636c-0.449-0.527-0.946-1.015-1.486-1.462c-1.022-0.814-2.049-1.451-3.084-1.913
		c-1.036-0.461-2.071-0.786-3.1-0.97c-1.032-0.186-2.062-0.256-3.094-0.213c-1.033,0.045-2.055,0.178-3.067,0.398
		c-1.356,0.288-2.708,0.815-4.056,1.583c-1.347,0.768-2.603,1.7-3.767,2.792c-1.165,1.096-2.201,2.315-3.114,3.663
		c-0.911,1.345-1.601,2.726-2.068,4.143c-0.315,0.952-0.534,1.929-0.652,2.929c-0.116,0.998-0.095,1.97,0.065,2.915
		C63.956,24.678,64.291,25.565,64.798,26.394z"/>
	<path fill="#F1C71C" d="M76.421,33.15c0.31-1.794,0.659-3.692,1.048-5.696c0.388-2.003,0.727-3.93,1.013-5.783
		c0.287-1.85,0.479-3.536,0.577-5.063c0.099-1.524,0.016-2.72-0.246-3.584c-0.139-0.455-0.369-0.785-0.694-0.986
		c-0.328-0.202-0.686-0.312-1.07-0.334c-0.388-0.021-0.788,0.021-1.198,0.125s-0.769,0.228-1.076,0.372
		c-0.309,0.145-0.535,0.298-0.684,0.459c-0.148,0.16-0.155,0.276-0.022,0.347c0.165,0.113,0.238,0.556,0.224,1.33
		c-0.02,0.774-0.101,1.767-0.249,2.977c-0.147,1.21-0.343,2.579-0.583,4.108c-0.243,1.529-0.487,3.101-0.735,4.715
		c-0.251,1.615-0.487,3.226-0.714,4.838c-0.224,1.609-0.397,3.088-0.518,4.438c-0.123,1.349-0.184,2.517-0.182,3.504
		c0,0.989,0.111,1.677,0.33,2.068c0.344,0.657,0.765,1.069,1.265,1.237c0.5,0.167,0.968,0.209,1.406,0.125
		c0.438-0.086,0.799-0.259,1.085-0.519c0.284-0.26,0.406-0.495,0.366-0.704c-0.183-0.687-0.195-1.738-0.039-3.154
		C75.879,36.553,76.111,34.947,76.421,33.15z"/>
	<path fill="#F1C71C" d="M95.921,28.044c0.67,0.872,1.593,1.368,2.771,1.483c0.892,0.069,1.73-0.146,2.52-0.644
		c0.785-0.498,1.508-1.133,2.162-1.904c0.657-0.77,1.237-1.604,1.742-2.503c0.503-0.902,0.92-1.717,1.247-2.453
		c0.655,0.023,1.31-0.038,1.956-0.18c0.548-0.124,1.047-0.296,1.512-0.503c-0.107,0.277-0.218,0.549-0.316,0.842
		c-0.303,0.909-0.465,1.796-0.481,2.661c-0.015,0.868,0.143,1.687,0.479,2.455c0.336,0.772,0.95,1.393,1.848,1.863
		c0.807,0.438,1.656,0.632,2.549,0.577c0.89-0.05,1.775-0.276,2.654-0.675s1.747-0.942,2.609-1.626
		c0.3-0.239,0.585-0.494,0.871-0.745c-0.265,0.641-0.384,1.148-0.344,1.511c0.059,0.737,0.26,1.277,0.607,1.618
		c0.351,0.34,0.713,0.543,1.096,0.614c0.381,0.069,0.713,0.032,0.997-0.112c0.285-0.144,0.397-0.319,0.347-0.524
		c-0.071-0.232,0.016-0.602,0.256-1.106c0.242-0.505,0.585-1.109,1.038-1.81c0.448-0.702,0.99-1.487,1.621-2.355
		c0.632-0.87,1.315-1.782,2.048-2.736c0.186-0.081,0.412-0.161,0.681-0.236s0.582-0.158,0.938-0.252
		c0.36,0.223,0.634,0.832,0.815,1.827c0.183,0.994,0.358,2.199,0.524,3.612c0.166,1.415,0.358,2.928,0.58,4.533
		c0.22,1.607,0.532,3.125,0.934,4.556c0.402,1.428,0.938,2.663,1.605,3.701c0.666,1.038,1.538,1.684,2.613,1.938
		c0.707,0.175,1.35,0.162,1.922-0.043s1.035-0.461,1.392-0.771c0.354-0.312,0.582-0.619,0.684-0.924
		c0.101-0.305,0.046-0.479-0.16-0.524c-0.752-0.185-1.458-0.681-2.115-1.488c-0.654-0.807-1.274-1.792-1.853-2.955
		c-0.58-1.166-1.109-2.428-1.586-3.788c-0.48-1.359-0.915-2.693-1.309-4c-0.395-1.305-0.744-2.5-1.053-3.581
		c-0.31-1.083-0.577-1.926-0.81-2.533c0.8-0.142,1.642-0.312,2.526-0.512c0.883-0.197,1.738-0.426,2.561-0.683
		c0.824-0.26,1.579-0.557,2.267-0.894c0.685-0.339,1.217-0.72,1.599-1.146c0.5-0.545,0.727-1.096,0.677-1.651
		c-0.049-0.555-0.209-1.036-0.483-1.447c-0.272-0.407-0.57-0.694-0.897-0.862c-0.325-0.165-0.508-0.145-0.552,0.063
		c-0.046,0.209-0.245,0.46-0.599,0.763c-0.354,0.298-0.799,0.62-1.343,0.963c-0.542,0.342-1.154,0.714-1.842,1.11
		c-0.685,0.396-1.389,0.786-2.106,1.165c-0.718,0.378-1.427,0.739-2.124,1.086c-0.7,0.346-1.335,0.663-1.901,0.952
		c1.036-1.35,2.067-2.712,3.095-4.09c1.027-1.376,1.948-2.672,2.764-3.889c0.813-1.218,1.467-2.305,1.961-3.264
		c0.492-0.959,0.726-1.694,0.689-2.211c-0.058-0.738-0.303-1.275-0.736-1.61c-0.433-0.333-0.888-0.54-1.363-0.619
		c-0.476-0.077-0.89-0.057-1.241,0.061c-0.347,0.122-0.459,0.267-0.326,0.439c0.107,0.168-0.019,0.589-0.38,1.262
		c-0.358,0.672-0.875,1.504-1.545,2.498c-0.67,0.995-1.445,2.116-2.325,3.369c-0.881,1.25-1.795,2.535-2.738,3.858
		c-0.944,1.321-1.869,2.634-2.774,3.941c-0.781,1.126-1.475,2.182-2.113,3.186c-0.24,0.296-0.487,0.592-0.75,0.888
		c-0.602,0.677-1.231,1.316-1.894,1.912c-0.663,0.601-1.331,1.115-2.001,1.546c-0.668,0.432-1.312,0.74-1.937,0.928
		c-0.62,0.188-1.186,0.208-1.687,0.062c-0.436-0.14-0.71-0.482-0.819-1.029c-0.109-0.543-0.11-1.181-0.003-1.908
		c0.109-0.725,0.305-1.489,0.587-2.294c0.281-0.802,0.608-1.53,0.982-2.183c0.6-1.033,1.191-1.966,1.771-2.798
		c0.58-0.834,1.131-1.526,1.646-2.082c0.519-0.553,0.99-0.971,1.419-1.249c0.43-0.276,0.809-0.385,1.133-0.33
		c0.258,0.025,0.43,0.187,0.52,0.479c-0.178,0.104-0.325,0.23-0.446,0.384c-0.123,0.155-0.192,0.326-0.211,0.515
		c-0.03,0.306,0.055,0.563,0.261,0.774c0.2,0.213,0.44,0.332,0.722,0.358c0.327,0.034,0.597-0.058,0.81-0.274
		c0.23-0.188,0.372-0.521,0.418-0.99c0.047-0.472-0.007-0.874-0.159-1.212c-0.155-0.337-0.359-0.611-0.61-0.829
		c-0.249-0.215-0.527-0.379-0.834-0.493c-0.309-0.113-0.602-0.199-0.881-0.25c-0.838-0.107-1.681-0.062-2.528,0.137
		c-0.848,0.201-1.692,0.585-2.528,1.155c-0.836,0.568-1.65,1.328-2.446,2.282c-0.754,0.911-1.468,2.017-2.144,3.308
		c-0.08,0.091-0.154,0.18-0.256,0.273c-0.314,0.285-0.756,0.545-1.319,0.782c-0.563,0.238-1.316,0.37-2.255,0.395
		c0.28-0.946,0.406-1.668,0.382-2.163c-0.022-0.498-0.13-0.859-0.317-1.084c-0.189-0.224-0.413-0.348-0.67-0.371
		c-0.261-0.021-0.473-0.033-0.637-0.034c-0.471,0.002-0.857,0.192-1.164,0.569c-0.304,0.38-0.49,0.816-0.561,1.314
		c-0.068,0.498-0.011,0.99,0.18,1.472c0.191,0.484,0.531,0.834,1.024,1.046c-0.303,0.616-0.659,1.284-1.071,2.006
		c-0.41,0.723-0.831,1.393-1.266,2.008c-0.433,0.616-0.866,1.12-1.299,1.51c-0.436,0.392-0.829,0.553-1.181,0.481
		c-0.495-0.093-0.849-0.371-1.062-0.831c-0.211-0.461-0.312-1.045-0.302-1.757c0.011-0.708,0.121-1.496,0.329-2.359
		c0.21-0.864,0.491-1.739,0.842-2.626c0.353-0.888,0.753-1.754,1.213-2.594c0.457-0.841,0.929-1.579,1.423-2.222
		c0.281-0.353,0.568-0.703,0.862-1.046c0.293-0.345,0.578-0.617,0.861-0.819c0.281-0.2,0.546-0.302,0.792-0.303
		c0.246,0,0.467,0.165,0.653,0.494c-0.165,0.122-0.3,0.263-0.404,0.427c-0.105,0.167-0.159,0.344-0.157,0.533
		c0,0.309,0.111,0.556,0.335,0.746c0.225,0.188,0.476,0.281,0.761,0.28c0.397,0,0.692-0.179,0.881-0.533
		c0.14-0.167,0.211-0.438,0.208-0.817c-0.048-0.26-0.119-0.536-0.214-0.833c-0.094-0.296-0.235-0.568-0.426-0.817
		c-0.188-0.248-0.429-0.46-0.721-0.636c-0.297-0.177-0.665-0.277-1.112-0.298c-0.987-0.046-1.937,0.11-2.839,0.466
		c-0.903,0.357-1.737,0.866-2.499,1.532c-0.764,0.662-1.448,1.44-2.059,2.326c-0.611,0.89-1.124,1.83-1.546,2.827
		c-0.419,0.994-0.734,2.005-0.944,3.034c-0.212,1.03-0.302,2.017-0.277,2.964C94.885,26.107,95.247,27.169,95.921,28.044z"/>
	<path fill="#F1C71C" d="M109.596,40.867c-0.371,0.654-0.675,1.298-0.905,1.913c-0.245,0.667-0.345,1.219-0.299,1.684
		c0.066,0.763,0.396,1.313,0.982,1.638c0.532,0.293,1.152,0.434,1.848,0.409c0.665-0.025,1.342-0.165,2.013-0.421
		c0.505-0.189,0.939-0.42,1.302-0.692c0.271,0.468,0.583,0.931,0.927,1.386c0.451,0.587,0.963,1.132,1.523,1.616
		c0.571,0.492,1.214,0.91,1.911,1.237c0.518,0.249,1.077,0.429,1.657,0.535c0.216,0.04,0.438,0.071,0.669,0.092
		c0.493,0.036,1.021,0.017,1.564-0.058c0.845-0.114,1.706-0.363,2.562-0.739c0.19-0.083,0.422-0.274,0.461-0.724
		c0.024-0.271-0.007-0.541-0.092-0.809c-0.091-0.271-0.223-0.502-0.393-0.689c-0.246-0.266-0.544-0.345-0.838-0.217
		c-1.146,0.52-2.186,0.827-3.092,0.919c-0.888,0.089-1.684-0.007-2.37-0.278c-0.691-0.276-1.312-0.723-1.848-1.331
		c-0.509-0.578-0.976-1.292-1.382-2.126l0.923-1.148c0.393-0.493,0.779-1.066,1.149-1.707c0.369-0.645,0.709-1.384,1.003-2.203
		c0.295-0.82,0.519-1.782,0.655-2.83c0.069-0.322-0.092-0.601-0.417-0.726c-0.202-0.08-0.431-0.116-0.679-0.11
		c-0.241,0.009-0.471,0.056-0.688,0.146c-0.354,0.15-0.479,0.385-0.528,0.594c-0.121,0.91-0.276,1.73-0.462,2.441
		c-0.185,0.71-0.396,1.351-0.626,1.903c-0.232,0.554-0.475,1.039-0.719,1.446c-0.111,0.186-0.225,0.359-0.338,0.521
		c-0.031-0.102-0.063-0.208-0.099-0.32c-0.12-0.39-0.232-0.802-0.339-1.234c-0.111-0.437-0.208-0.854-0.296-1.258
		c-0.071-0.325-0.124-0.603-0.161-0.831c0.27-0.389,0.56-0.813,0.865-1.273c0.346-0.518,0.668-1.049,0.961-1.58
		c0.301-0.541,0.552-1.087,0.744-1.617c0.2-0.551,0.301-1.07,0.303-1.546c-0.002-0.517-0.16-0.976-0.473-1.361
		c-0.312-0.389-0.816-0.658-1.528-0.808c-0.244-0.044-0.516-0.041-0.809,0.016c-0.313,0.059-0.623,0.201-0.922,0.421
		c-0.288,0.211-0.561,0.503-0.812,0.868c-0.248,0.359-0.467,0.812-0.656,1.353c-0.169,0.479-0.25,1.089-0.25,1.822
		c0.003,0.672,0.076,1.458,0.224,2.334c-0.304,0.411-0.647,0.894-1.032,1.45C110.365,39.587,109.961,40.225,109.596,40.867z
		 M113.489,33.793c0.196-0.573,0.41-0.978,0.638-1.203c0.232-0.229,0.377-0.303,0.448-0.327c0.045,0.014,0.051,0.029,0.06,0.058
		c0.025,0.084,0.044,0.245-0.022,0.532c-0.06,0.269-0.164,0.576-0.309,0.914c-0.142,0.34-0.307,0.68-0.487,1.01
		c-0.151,0.276-0.306,0.544-0.459,0.797c-0.012-0.252-0.016-0.487-0.008-0.706C113.36,34.396,113.408,34.034,113.489,33.793z
		 M112.131,42.005c0.17-0.399,0.371-0.823,0.606-1.266c0.123,0.449,0.246,0.89,0.372,1.322c0.185,0.638,0.409,1.275,0.667,1.897
		c-0.153,0.165-0.33,0.311-0.524,0.437c-0.24,0.154-0.475,0.245-0.694,0.27c-0.182,0.021-0.329-0.021-0.467-0.135
		c-0.075-0.061-0.208-0.236-0.259-0.729C111.779,43.204,111.881,42.598,112.131,42.005z"/>
	<path fill="#F1C71C" d="M129.664,55.758c0.327-0.851,0.455-1.48,0.381-1.892c-0.134-0.747-0.427-1.273-0.879-1.583
		c-0.451-0.308-0.924-0.476-1.417-0.505c-0.493-0.028-0.914,0.032-1.26,0.184c-0.348,0.154-0.471,0.306-0.366,0.458
		c0.157,0.276,0.012,0.923-0.439,1.939s-1.072,2.237-1.863,3.666c-0.027,0.021-0.042,0.066-0.049,0.137
		c-0.561,0.814-1.175,1.76-1.846,2.835c-0.67,1.075-1.349,2.072-2.038,2.991c-0.688,0.919-1.36,1.646-2.007,2.181
		c-0.647,0.532-1.217,0.667-1.708,0.402c-0.404-0.208-0.661-0.591-0.766-1.146c-0.106-0.556-0.11-1.188-0.009-1.898
		c0.098-0.711,0.289-1.446,0.57-2.208c0.284-0.762,0.611-1.465,0.986-2.112c0.609-1.021,1.203-1.944,1.787-2.77
		c0.584-0.823,1.135-1.508,1.656-2.058c0.518-0.547,0.992-0.956,1.425-1.23c0.432-0.274,0.809-0.38,1.133-0.321
		c0.26,0.026,0.429,0.188,0.518,0.479c-0.178,0.1-0.325,0.225-0.448,0.377c-0.123,0.153-0.194,0.323-0.213,0.509
		c-0.033,0.306,0.051,0.562,0.254,0.773c0.201,0.21,0.443,0.33,0.723,0.36c0.327,0.036,0.597-0.054,0.811-0.267
		c0.231-0.19,0.373-0.518,0.424-0.984c0.047-0.467-0.004-0.869-0.157-1.204c-0.153-0.336-0.354-0.611-0.603-0.827
		c-0.25-0.215-0.524-0.381-0.832-0.496c-0.309-0.115-0.6-0.2-0.879-0.254c-0.838-0.113-1.681-0.072-2.529,0.12
		c-0.848,0.192-1.693,0.57-2.533,1.13c-0.839,0.561-1.657,1.312-2.455,2.257c-0.498,0.585-0.977,1.265-1.439,2.015
		c-0.037,0.048-0.074,0.108-0.133,0.207c-0.029,0.049-0.064,0.109-0.096,0.164c-0.203,0.344-0.403,0.702-0.6,1.077
		c-0.046,0.091-0.087,0.193-0.135,0.285c-0.013,0.023-0.024,0.048-0.036,0.072c-0.323,0.616-0.689,1.267-1.101,1.954
		c-0.414,0.689-0.851,1.377-1.312,2.063c-0.461,0.69-0.909,1.313-1.349,1.871c-0.438,0.56-0.844,1.018-1.213,1.376
		c-0.373,0.356-0.664,0.549-0.874,0.576c-0.541,0.056-0.784-0.159-0.732-0.641c0.051-0.484,0.267-1.133,0.641-1.949
		c0.377-0.816,0.845-1.746,1.405-2.789c0.562-1.043,1.089-2.096,1.578-3.161s0.869-2.086,1.138-3.065
		c0.269-0.98,0.291-1.81,0.07-2.488c-0.222-0.678-0.569-1.131-1.043-1.361c-0.474-0.227-0.945-0.339-1.415-0.331
		c-0.352,0.005-0.632,0.067-0.844,0.188c-0.209,0.121-0.419,0.247-0.629,0.379c-0.21,0.133-0.461,0.26-0.752,0.381
		c-0.292,0.124-0.697,0.188-1.215,0.193c-0.234,0.004-0.454-0.004-0.653-0.024s-0.358-0.076-0.478-0.169
		c0.09-0.355,0.147-0.803,0.176-1.343c0.027-0.542,0.039-0.964,0.033-1.27c-0.031-0.54-0.219-1.002-0.565-1.385
		c-0.346-0.383-0.757-0.571-1.227-0.564c-0.749,0.011-1.312,0.277-1.681,0.8c-0.368,0.523-0.546,1.148-0.537,1.875
		c0.009,0.564,0.21,1.126,0.607,1.684c0.396,0.56,0.865,0.965,1.409,1.217c-0.065,0.306-0.188,0.688-0.37,1.148
		c-0.183,0.463-0.363,0.937-0.546,1.42c-0.18,0.485-0.36,0.946-0.544,1.382c-0.054,0.133-0.102,0.251-0.146,0.362
		c-0.043,0.092-0.081,0.181-0.097,0.247c0,0.003-0.005,0.012-0.005,0.016c-0.053,0.138-0.096,0.257-0.125,0.351
		c-0.004,0.012-0.002,0.018-0.006,0.026c-0.169,0.413-0.444,0.941-0.631,1.417c-0.254,0.647-0.544,1.122-0.882,1.85
		c-0.337,0.729-0.7,1.458-1.083,2.191c-0.386,0.733-0.768,1.4-1.144,2.003c-0.375,0.604-0.73,1.101-1.061,1.496
		c-0.333,0.396-0.602,0.618-0.808,0.666c-0.532,0.111-0.799-0.075-0.797-0.561c-0.001-0.485,0.145-1.154,0.432-2.006
		c0.289-0.853,0.656-1.824,1.103-2.923c0.448-1.095,0.858-2.198,1.231-3.31c0.374-1.11,0.645-2.167,0.808-3.17
		c0.163-1.002,0.097-1.829-0.195-2.479c-0.296-0.676-0.706-1.098-1.237-1.271c-0.529-0.173-1.026-0.22-1.49-0.139
		c-0.464,0.08-0.842,0.232-1.135,0.458c-0.291,0.225-0.348,0.397-0.168,0.517c0.181,0.12,0.25,0.396,0.209,0.828
		c-0.043,0.431-0.149,0.971-0.32,1.618c-0.172,0.648-0.379,1.366-0.627,2.153c-0.248,0.789-0.498,1.612-0.749,2.471
		c-0.284,0.77-0.657,1.648-1.118,2.639c-0.461,0.992-0.938,1.938-1.433,2.838c-0.493,0.9-0.977,1.663-1.446,2.289
		c-0.468,0.625-0.84,0.966-1.119,1.023c-0.529,0.111-0.796-0.076-0.794-0.562c0-0.483,0.143-1.153,0.431-2.006
		c0.289-0.851,0.652-1.824,1.102-2.921c0.448-1.096,0.858-2.199,1.234-3.311c0.373-1.111,0.643-2.168,0.805-3.169
		c0.164-1.003,0.1-1.829-0.194-2.481c-0.295-0.676-0.707-1.098-1.235-1.271c-0.531-0.171-1.028-0.218-1.492-0.139
		c-0.463,0.08-0.842,0.232-1.134,0.459c-0.293,0.225-0.349,0.396-0.168,0.518c0.182,0.142,0.249,0.442,0.198,0.896
		c-0.052,0.459-0.174,1.029-0.361,1.715c-0.189,0.686-0.418,1.453-0.682,2.302s-0.517,1.728-0.764,2.632
		c-0.246,0.906-0.449,1.808-0.613,2.703c-0.163,0.896-0.245,1.735-0.246,2.516c0.009,0.64,0.077,1.229,0.215,1.768
		c0.137,0.54,0.332,0.99,0.59,1.349c0.256,0.36,0.567,0.624,0.93,0.793c0.365,0.17,0.778,0.215,1.242,0.135
		c0.442-0.053,0.893-0.25,1.35-0.59c0.455-0.34,0.9-0.771,1.334-1.297c0.435-0.526,0.854-1.116,1.261-1.77
		c0.405-0.653,0.791-1.333,1.154-2.04c-0.01,0.119-0.02,0.232-0.028,0.34c-0.014,0.108-0.009,0.222,0.006,0.337
		c0.005,0.64,0.077,1.229,0.212,1.769c0.137,0.54,0.334,0.988,0.591,1.349c0.256,0.36,0.566,0.624,0.93,0.793
		c0.364,0.17,0.776,0.215,1.242,0.134c0.562-0.067,1.118-0.349,1.674-0.842c0.555-0.494,1.091-1.103,1.607-1.829
		c0.516-0.726,1.006-1.518,1.47-2.38c0.464-0.861,0.888-1.711,1.271-2.551c0.382-0.84,0.722-1.495,1.033-2.209
		c0.323-0.742,0.709-1.422,0.851-1.84c0,0-0.003-0.001-0.001-0.002c0.08-0.176,0.167-0.374,0.262-0.598
		c0.202-0.484,0.407-0.979,0.61-1.489c0.204-0.508,0.394-0.98,0.564-1.419c0.168-0.438,0.287-0.738,0.355-0.904
		c0.613,0.156,1.23,0.211,1.854,0.166c0.623-0.043,1.18-0.162,1.67-0.356c-0.179,0.613-0.463,1.357-0.851,2.233
		c-0.387,0.875-0.783,1.814-1.191,2.82c-0.41,1.006-0.782,2.027-1.121,3.066c-0.337,1.039-0.547,2.019-0.626,2.936
		c-0.063,0.636-0.055,1.229,0.022,1.78c0.08,0.553,0.229,1.019,0.445,1.405c0.216,0.384,0.497,0.68,0.841,0.885
		c0.342,0.208,0.752,0.296,1.222,0.266c0.562-0.007,1.146-0.228,1.754-0.659c0.604-0.433,1.201-0.981,1.79-1.648
		c0.592-0.666,1.162-1.402,1.714-2.211c0.129-0.187,0.247-0.374,0.373-0.56c-0.003,0.057-0.011,0.111-0.012,0.169
		c-0.021,0.859,0.134,1.675,0.466,2.441c0.332,0.769,0.945,1.391,1.839,1.864c0.965,0.504,1.858,0.688,2.688,0.553
		c0.832-0.137,1.621-0.496,2.369-1.078c-0.275,0.488-0.538,0.963-0.79,1.43c-3.843,1.911-16.237,8.518-9.709,11.168
		c7.046,2.863,11.571-6.166,11.571-6.166c0.182-0.319,4.386-7.415,4.991-8.427c0.604-1.012,1.239-2.089,1.905-3.236
		c0.663-1.146,1.268-2.245,1.807-3.3C128.905,57.562,129.338,56.609,129.664,55.758z M109.09,77.97
		c-4.377-0.748,7.9-7.875,7.797-7.146C116.887,70.823,113.465,78.718,109.09,77.97z"/>
	<path fill="#F1C71C" d="M152.445,58.588c-0.331-0.121-0.616-0.164-0.854-0.129c-0.239,0.038-0.481,0.082-0.727,0.13
		c-0.24,0.047-0.521,0.077-0.838,0.084c-0.316,0.01-0.716-0.075-1.201-0.256c-0.22-0.08-0.424-0.167-0.601-0.259
		c-0.18-0.09-0.309-0.201-0.386-0.33c0.209-0.297,0.425-0.695,0.646-1.188c0.219-0.495,0.383-0.887,0.488-1.174
		c0.165-0.515,0.154-1.015-0.03-1.494c-0.186-0.482-0.5-0.806-0.941-0.968c-0.707-0.261-1.325-0.214-1.854,0.144
		c-0.534,0.352-0.927,0.874-1.178,1.556c-0.197,0.53-0.211,1.125-0.041,1.79c0.168,0.663,0.463,1.212,0.883,1.64
		c-0.175,0.263-0.427,0.576-0.762,0.941c-0.336,0.364-0.676,0.741-1.019,1.127c-0.345,0.387-0.679,0.753-1.006,1.095
		c-0.093,0.098-1.404,1.599-1.974,2.195c-0.574,0.599-1.202,1.187-1.894,1.767c-0.688,0.58-1.402,1.117-2.141,1.611
		c-0.741,0.495-1.474,0.907-2.196,1.236c-0.723,0.328-1.406,0.542-2.046,0.637c-0.641,0.095-1.202,0.035-1.682-0.18
		c-0.326-0.154-0.533-0.411-0.625-0.773c-0.094-0.36-0.104-0.787-0.029-1.278c0.07-0.489,0.216-1.018,0.429-1.583
		c0.213-0.564,0.473-1.124,0.779-1.678c1.266-0.025,2.454-0.232,3.566-0.623c1.115-0.39,2.104-0.884,2.968-1.481
		c0.861-0.597,1.572-1.249,2.137-1.959c0.562-0.706,0.927-1.392,1.09-2.055c0.164-0.66,0.096-1.247-0.201-1.757
		c-0.296-0.509-0.867-0.869-1.709-1.077c-0.823-0.204-1.67-0.255-2.542-0.158c-0.873,0.099-1.761,0.362-2.666,0.793
		c-0.906,0.43-1.816,1.046-2.729,1.848c-0.912,0.804-1.816,1.833-2.711,3.088c-0.479,0.681-0.937,1.445-1.368,2.296
		c-0.427,0.852-0.711,1.706-0.851,2.567c-0.141,0.86-0.1,1.688,0.127,2.484c0.229,0.794,0.751,1.487,1.575,2.079
		c0.735,0.545,1.542,0.854,2.42,0.926s1.778-0.018,2.7-0.274c0.924-0.255,1.854-0.649,2.782-1.181
		c0.934-0.533,1.84-1.144,2.724-1.831c0.886-0.689,1.71-1.417,2.471-2.187c0.602-0.611,2.28-2.348,2.644-2.726
		c0.365-0.38,0.735-0.769,1.107-1.171c0.373-0.4,0.718-0.774,1.034-1.122s0.536-0.585,0.659-0.715
		c0.517,0.364,1.073,0.639,1.669,0.823c0.598,0.182,1.16,0.271,1.688,0.264c-0.389,0.51-0.922,1.103-1.595,1.779
		c-0.679,0.677-1.386,1.412-2.13,2.204c-0.743,0.791-1.457,1.609-2.147,2.457c-0.688,0.85-1.234,1.687-1.642,2.514
		c-0.285,0.572-0.492,1.13-0.616,1.671c-0.123,0.542-0.154,1.033-0.089,1.471c0.064,0.436,0.219,0.813,0.467,1.131
		c0.244,0.314,0.592,0.544,1.041,0.685c0.531,0.195,1.154,0.199,1.877,0.015c0.718-0.184,1.472-0.482,2.261-0.893
		c0.731-0.38,1.469-0.826,2.21-1.328c0.039-0.053,0.213-0.342-0.088-0.65c-0.333-0.341-0.541-0.356-0.848-0.156
		c-0.002,0.001-0.005,0-0.005,0c-0.354,0.235-0.705,0.458-1.041,0.658c-0.609,0.363-1.156,0.645-1.63,0.848
		c-0.473,0.2-0.814,0.273-1.021,0.223c-0.525-0.144-0.674-0.43-0.452-0.863c0.222-0.431,0.656-0.96,1.299-1.586
		c0.645-0.627,1.415-1.326,2.315-2.098c0.898-0.771,1.768-1.565,2.606-2.383c0.841-0.817,1.562-1.637,2.165-2.451
		c0.604-0.817,0.922-1.583,0.959-2.297s-0.124-1.26-0.484-1.645C153.286,59.025,152.887,58.752,152.445,58.588z M132.875,61.376
		c1.461-1.892,2.81-3.325,4.047-4.303c1.233-0.977,2.157-1.378,2.767-1.202c0.403,0.124,0.529,0.482,0.369,1.071
		c-0.156,0.591-0.554,1.236-1.189,1.939c-0.632,0.704-1.491,1.361-2.576,1.978c-1.087,0.615-2.372,0.992-3.858,1.131
		C132.552,61.803,132.698,61.598,132.875,61.376z"/>
	<path fill="#F1C71C" d="M77.541,64.697c0.028-0.045,0.042-0.079,0.024-0.093c0.574-0.659,1.101-1.353,1.579-2.079
		c0.477-0.728,0.876-1.503,1.198-2.327c0.839-1.886,1.255-3.769,1.253-5.651c-0.031-2.043-0.562-3.835-1.589-5.376
		c-0.757-1.163-1.72-2.094-2.894-2.796c-1.172-0.701-2.523-1.159-4.055-1.373c-1.062-0.143-2.164-0.162-3.305-0.058
		c-1.142,0.104-2.283,0.326-3.42,0.665c-1.139,0.339-2.243,0.778-3.315,1.319c-1.073,0.538-2.069,1.171-2.993,1.897
		s-1.848,1.601-2.771,2.625c-0.925,1.023-1.706,2.11-2.34,3.26c-0.718,1.275-1.274,2.649-1.668,4.114
		c-0.395,1.469-0.578,2.897-0.553,4.286c0.025,1.391,0.297,2.677,0.811,3.855c0.512,1.18,1.318,2.12,2.414,2.821
		c0.358,0.253,0.724,0.387,1.098,0.399c0.377,0.013,0.73-0.042,1.062-0.164s0.631-0.288,0.893-0.5
		c0.265-0.211,0.472-0.433,0.616-0.667c0.146-0.233,0.217-0.449,0.214-0.646c-0.004-0.196-0.108-0.347-0.317-0.453
		c-0.578-0.253-1.098-0.751-1.551-1.491c-0.455-0.741-0.81-1.621-1.06-2.64c-0.249-1.019-0.378-2.14-0.386-3.364
		c-0.008-1.223,0.135-2.444,0.425-3.667c0.288-1.221,0.751-2.408,1.385-3.558c0.635-1.15,1.476-2.17,2.519-3.061
		c1.064-0.896,2.219-1.561,3.461-1.997c1.243-0.435,2.481-0.603,3.716-0.501c1.232,0.099,2.413,0.47,3.542,1.113
		c1.127,0.643,2.114,1.604,2.957,2.884c0.438,0.648,0.756,1.298,0.96,1.949c0.201,0.652,0.328,1.297,0.378,1.937
		c0.051,0.639,0.047,1.247-0.01,1.822c-0.058,0.575-0.143,1.104-0.256,1.587c-0.354,1.479-0.926,2.855-1.718,4.133
		c-1.271-0.322-2.429-0.312-3.478,0.036c-1.004,0.331-1.772,0.819-2.301,1.463l-0.045,0.091c-0.359,0.414-0.596,0.854-0.717,1.312
		c-0.121,0.462-0.151,0.893-0.095,1.295c0.111,0.706,0.448,1.238,1.013,1.597c0.639,0.359,1.351,0.458,2.139,0.296
		c0.505-0.117,0.999-0.256,1.479-0.414c0.255-0.084,0.512-0.185,0.766-0.297c3.171,1.259,5.93,3.83,6.453,7.291
		c0.889,5.894-4.634,7.264-9.177,7.442c-5.983,0.237-17.968-3.513-20.659,4.392c-0.654,1.924,0.438,2.312,1.658,1.886
		c0.473,0.214,0.937,0.45,1.385,0.714c0.299,0.178,0.645,0.394,0.866,0.675c-0.029,0.024-0.053,0.042-0.093,0.072
		c-1.451,1.108-3.081,2.092-4.713,2.905c-0.257,0.129-0.521,0.251-0.791,0.352c-0.003-0.036-0.003-0.069-0.018-0.115
		c-0.246-0.881-0.189-1.908-0.203-2.814c-0.018-1.078,0.018-2.158,0.081-3.233c0.018-0.325,0.052-0.646,0.086-0.967
		c0.958-0.138,2.215-1.061,1.576-1.517c-0.96-0.688-2.15-0.573-3.103,0.077c-1.236,0.845-1.118,2.552-1.181,3.887
		c-0.083,1.709-0.134,3.489,0.133,5.184c0.188,1.189,0.81,1.421,1.966,1.182c2.776-0.569,5.493-2.631,7.746-4.258
		c0.68-0.493,1.662-1.296,0.836-2.134c-0.691-0.701-1.644-1.166-2.558-1.564c0.06-0.091,0.114-0.182,0.161-0.276
		c0.16-0.042,0.338-0.069,0.479-0.096c0.943-0.173,1.922-0.166,2.875-0.162c2.391,0.008,4.783,0.273,7.167,0.421
		c4.753,0.287,9.903,0.213,14.015-2.505c4.296-2.84,7.156-9.016,5.398-14.077C82.051,68.327,80.009,66.146,77.541,64.697z
		 M53.252,90.583C53.325,90.511,53.389,90.472,53.252,90.583L53.252,90.583z"/>
	<path fill="#F1C71C" d="M43.784,40.116c2.722-0.253,5.197-2.283,3.405-5.99c-0.743-1.539-3.846-0.913-3.053,0.731
		c0.5,1.032,1.045,2.831-0.803,2.773c-1.756-0.056-1.545-1.371-1.018-2.614c0.661-1.564-2.141-2.281-2.901-1.028
		c-0.659,1.085-2.32,0.645-3.198,0.13c-1.632-0.953-0.27-1.836,0.156-2.104c1.583-1.003,0.367-2.734-1.231-2.467
		c-1.627,0.275-4.776-1.414-2.538-2.477c1.867-0.885,0.026-3.103-1.61-2.328c-1.674,0.796-2.81,2.318-2.267,4.196
		c0.1,0.35,0.252,0.668,0.439,0.957c-4.981,1.582-10.746,2.025-15.195-0.96c-0.395-0.263-0.813-0.555-1.217-0.873
		c-0.162-0.125,0.03-0.349,0.281-0.329c0.283,0.022,0.567,0.038,0.851,0.054c1.726,0.085,3.454,0.131,5.181,0.138
		c2.428,0.54,4.935,0.823,7.398,0.983c1.342,0.088,2.744-2.736,1.276-2.831c-2.057-0.135-4.339-0.341-6.612-0.756
		c-0.126-0.078-0.294-0.124-0.521-0.125c-0.048,0.003-0.096,0.001-0.142-0.001c-3.979-0.8-7.857-2.3-10.351-5.286
		c-0.746-0.895-1.727-3.125-2.449-4.266c-0.301-0.383,0.037-0.483,0.266-0.342c2.367,1.103,4.149,3.236,6.524,4.378
		c6.855,3.293,14.954,4.185,22.503,3.971c0.24-0.006,0.472-0.109,0.683-0.269c1.618,1.582,4.697,2.482,6.371,2.517
		c1.159,0.022,2.341-2.882,1.045-2.907c-1.405-0.031-8.457-2.249-4.381-3.161c2.218-0.497,5.431-0.99,7.386,0.577
		c2.672,2.145,1.715,5.509,2.296,8.479c0.542,2.78,1.409,5.541,2.798,8.028c2.004,3.596,5.849,9.041,10.736,6.708
		c2.33-1.111,4.223-3.038,4.641-5.692c0.32-2.054-1.899-0.568-2.096,0.685c-0.518,3.309-5.219,3.004-7.141,1.38
		c-2.889-2.441-4.939-6.083-6.012-9.674c-1.425-4.778,0.262-11.87-5.811-13.574c-3.158-0.889-8.868-0.165-10.522,3.032
		c-0.188,0.358-0.298,0.704-0.345,1.035c-4.38,0.048-8.887-0.361-13.14-1.336c-3.672-0.842-7.281-1.999-10.267-4.379
		c-1.493-1.192-4.213-3.782-6.442-2.89c-4.134,1.653-0.717,7.928,1.159,9.897c0.931,0.973,1.941,1.808,3.019,2.523
		c-0.291,0.015-0.579,0.046-0.846,0.118c-2.17,0.578-2.192,2.885-0.85,4.326c2.845,3.056,6.513,4.425,10.369,4.692
		c-1.768,0.756-3.108,1.584-2.745,2.28c0.675,1.304,2.768,1.672,4.075,1.776c2.715,0.219,5.378-0.261,7.972-1.01
		c-1.003,0.775-2.015,1.538-3.054,2.25c-1.073,0.735-2.201,2.023-0.818,3.179c2.328,1.947,5.602,1.203,8.599-0.284
		c-0.777,0.807-1.594,1.821-1.173,2.583c0.706,1.281,2.964,1.225,4.164,0.934c2.997-0.728,5.253-2.741,7.043-5.185
		C43.715,40.227,43.747,40.171,43.784,40.116z M20.212,34.873c-0.14-0.46,1.598-0.737,2.463-1.052
		c3.024-0.184,6.071-0.956,8.835-2.053c0.004-0.002,0.004-0.004,0.008-0.006c0.336,0.135,0.681,0.243,1.036,0.327
		c-0.354,0.751-0.418,1.552-0.081,2.345c-0.313,0.023-0.629,0.128-0.909,0.349c-0.177,0.139-0.177,0.139-0.354,0.279
		C27.68,36.123,20.959,37.314,20.212,34.873z M28.706,40.448c0.021-0.017,0.046-0.033,0.067-0.05
		c0.729-0.541,1.455-1.087,2.175-1.638c0.933-0.715,1.864-1.435,2.792-2.154c0.161-0.128,0.273-0.259,0.362-0.393
		c0.601,0.4,1.31,0.71,2.063,0.907c-1.852,1.394-3.962,2.857-6.213,3.325C29.663,40.507,28.77,40.803,28.706,40.448z M36.317,43.016
		c-0.248-0.013-0.508-0.033-0.755-0.087c1.305-1.453,2.567-2.946,3.822-4.442c0.481,0.655,1.2,1.115,2.023,1.382
		C40.178,41.453,38.453,43.134,36.317,43.016z"/>
	<path fill="#F1C71C" d="M158.154,48.019c1.598,2.573,3.695,4.752,6.63,5.706c1.172,0.38,3.419,0.607,4.222-0.617
		c0.475-0.727-0.26-1.799-0.976-2.664c2.879,1.711,6.085,2.699,8.554,0.936c1.468-1.046,0.439-2.417-0.576-3.23
		c-0.979-0.79-1.932-1.627-2.873-2.478c2.53,0.946,5.148,1.624,7.874,1.613c1.31-0.006,3.425-0.214,4.195-1.462
		c0.416-0.667-0.858-1.595-2.563-2.483c3.867,0.026,7.628-1.061,10.696-3.889c1.448-1.337,1.603-3.639-0.521-4.381
		c-0.26-0.092-0.543-0.144-0.833-0.18c1.129-0.634,2.201-1.386,3.201-2.287c2.021-1.822,5.904-7.819,1.907-9.782
		c-2.154-1.059-5.063,1.316-6.644,2.392c-3.156,2.149-6.843,3.028-10.57,3.59c-4.314,0.647-8.838,0.714-13.202,0.333
		c-0.022-0.333-0.102-0.687-0.265-1.058c-1.408-3.314-7.046-4.468-10.262-3.822c-6.185,1.238-5.042,8.438-6.825,13.094
		c-1.341,3.5-3.661,6.975-6.727,9.19c-2.04,1.474-6.75,1.422-7.016-1.918c-0.101-1.264-2.202-2.914-2.039-0.841
		c0.215,2.678,1.957,4.743,4.194,6.028c4.698,2.698,8.945-2.441,11.218-5.872c1.572-2.376,2.646-5.064,3.397-7.793
		c0.806-2.916,0.106-6.346,2.932-8.28c2.069-1.416,5.237-0.68,7.409-0.016c3.994,1.219-3.205,2.895-4.609,2.818
		c-1.293-0.071-0.334,2.913,0.822,2.978c1.673,0.093,4.81-0.571,6.543-2.026c0.199,0.178,0.424,0.296,0.661,0.319
		c7.513,0.788,15.654,0.513,22.74-2.25c2.454-0.957,4.394-2.949,6.837-3.871c0.24-0.123,0.568,0.004,0.239,0.361
		c-0.807,1.083-1.954,3.233-2.766,4.069c-2.713,2.789-6.694,3.987-10.722,4.485c-0.047-0.004-0.095-0.005-0.143-0.011
		c-0.227-0.018-0.396,0.016-0.528,0.084c-2.298,0.242-4.589,0.274-6.65,0.252c-1.472-0.018-0.287,2.905,1.058,2.919
		c2.468,0.027,4.989-0.064,7.452-0.418c1.722,0.126,3.448,0.209,5.175,0.255c0.283,0.009,0.568,0.011,0.854,0.01
		c0.252,0,0.425,0.237,0.256,0.352c-0.428,0.287-0.868,0.544-1.281,0.776c-4.663,2.643-10.379,1.761-15.223-0.194
		c0.207-0.274,0.383-0.58,0.509-0.921c0.684-1.829-0.332-3.436-1.941-4.354c-1.572-0.898-3.575,1.175-1.781,2.199
		c2.15,1.227-1.116,2.673-2.718,2.276c-1.576-0.388-2.918,1.248-1.417,2.366c0.405,0.303,1.697,1.285-0.002,2.111
		c-0.915,0.445-2.605,0.759-3.181-0.373c-0.662-1.306-3.512-0.807-2.97,0.808c0.429,1.279,0.541,2.604-1.215,2.525
		c-1.845-0.081-1.165-1.835-0.589-2.824c0.914-1.581-2.132-2.441-2.989-0.962c-2.068,3.562,0.246,5.772,2.94,6.23
		C158.089,47.896,158.116,47.953,158.154,48.019z M170.978,43.754c-0.166-0.153-0.166-0.153-0.332-0.305
		c-0.263-0.241-0.569-0.367-0.882-0.416c0.399-0.764,0.396-1.57,0.1-2.345c0.361-0.057,0.713-0.14,1.057-0.246
		c0.003,0,0.006,0.005,0.008,0.005c2.674,1.303,5.653,2.303,8.652,2.719c0.84,0.378,2.553,0.786,2.377,1.235
		C181.028,46.78,174.416,45.08,170.978,43.754z M171.82,49.219c-2.209-0.638-4.203-2.258-5.941-3.787
		c0.766-0.14,1.496-0.396,2.128-0.747c0.077,0.137,0.179,0.276,0.33,0.416c0.87,0.79,1.741,1.576,2.619,2.359
		c0.677,0.605,1.359,1.205,2.046,1.8c0.02,0.018,0.043,0.038,0.063,0.055C172.976,49.664,172.105,49.302,171.82,49.219z
		 M160.443,47.771c0.842-0.201,1.594-0.605,2.123-1.224c1.138,1.588,2.281,3.172,3.474,4.722c-0.252,0.035-0.511,0.035-0.759,0.029
		C163.143,51.254,161.55,49.447,160.443,47.771z"/>
</g>
</svg>
