<svg id="Layer_1" data-name="Layer 1" xmlns="http://www.w3.org/2000/svg" viewBox="0 0 315.15 68.89"><defs><style>.cls-1{fill:#fff;}</style></defs><title>logoFuerza</title><polygon class="cls-1" points="7.11 33.9 7.11 34.32 68.13 34.32 7.11 61.31 7.11 61.78 68.28 61.78 68.28 7.11 67.69 7.11 7.11 33.9"/><path class="cls-1" d="M0,68.89H75.39V0H0ZM3.56,3.56H71.83V65.33H3.56Z"/><path class="cls-1" d="M149.86,25.25a5.55,5.55,0,0,1-.67,3.06A3.33,3.33,0,0,1,147,29.62a2.31,2.31,0,0,1-1.39,0q-2.88-.59-2.88-4.37V2.71H128.55V26.42q0,6.45,3.73,10.33t11,4.9l1.17.21h1.86q.8,0,1.6-.05c.53,0,1-.09,1.44-.16q7.24-1,11-4.9T164,26.42V2.71H149.86Z"/><polygon class="cls-1" points="124.51 13.47 127.38 2.71 98.56 2.71 98.56 41.07 112.73 41.07 112.73 27.11 122.16 27.11 124.93 16.67 112.73 16.67 112.73 13.47 124.51 13.47"/><polygon class="cls-1" points="182.03 27 192.74 27 192.74 16.67 182.03 16.67 182.03 13.47 193.91 13.47 196.84 2.71 167.86 2.71 167.86 41.07 193.8 41.07 196.89 30.31 182.03 30.31 182.03 27"/><path class="cls-1" d="M258.36,29.56a7.62,7.62,0,0,0-1.57.27c-.73.18-1.27.32-1.63.43l-.8.26,1.7-1.6,1.44-1.81,15.18-24.4H237.21l-3.36,11.51h14.22a5.05,5.05,0,0,0,1.65-.32q.9-.32,1.86-.75l1-.48-.85.69q-1.07.91-1.68,1.55a4.8,4.8,0,0,0-.77,1l-14.8,23.58,1.11,1.62H269l3.57-11.51Z"/><path class="cls-1" d="M229.78,21.43a11.63,11.63,0,0,0,1.89-6.65,15.25,15.25,0,0,0-.21-2.61q-.85-5.18-3.52-7.32t-8.63-2.14H199V41.07h14.17V29.4L219,41.07h14.44l1-1.62-9.75-14.2A9.43,9.43,0,0,0,229.78,21.43Zm-11.16-3.61a2.63,2.63,0,0,1-1.09,1.57,3.65,3.65,0,0,1-2.21.64h-2.13V12.89h1.86q3.78,0,3.78,3.36A7.2,7.2,0,0,1,218.62,17.82Z"/><path class="cls-1" d="M312.79,41.07,299.16,2.71H284.41L270.77,41.07h15.29l1.12-4.9h9.21l1.07,4.9Zm-23.92-14.6L291,17.31l.53-2.13c.07-.36.15-.71.24-1.07a6.79,6.79,0,0,0,.13-1.54l.32,2.56.48,2.18,2.08,9.16Z"/><path class="cls-1" d="M110.29,58.2a6.86,6.86,0,0,0-1.83-1,18.9,18.9,0,0,0-2.13-.61l-2.17-.49a13.94,13.94,0,0,1-2-.61,4.38,4.38,0,0,1-1.48-1A2.82,2.82,0,0,1,99.94,53a3.67,3.67,0,0,1,.08-1.55,3.4,3.4,0,0,1,.8-1.42,4.12,4.12,0,0,1,1.57-1,7.3,7.3,0,0,1,4.25-.15,4.67,4.67,0,0,1,1.56.78A3.72,3.72,0,0,1,109.28,51a4.6,4.6,0,0,1,.41,2h1.79a6.09,6.09,0,0,0-.4-2.29,5.27,5.27,0,0,0-1.25-1.89,5.77,5.77,0,0,0-2.09-1.28A8.49,8.49,0,0,0,104.8,47a9.07,9.07,0,0,0-2.93.44,6.23,6.23,0,0,0-2.11,1.19,5,5,0,0,0-1.28,1.7,4.82,4.82,0,0,0-.43,2,5.39,5.39,0,0,0,.41,2.2A4.18,4.18,0,0,0,99.6,56a6.21,6.21,0,0,0,1.61,1,13,13,0,0,0,1.91.64c.67.17,1.34.34,2,.49s1.31.33,1.91.52a7.24,7.24,0,0,1,1.61.73,3.12,3.12,0,0,1,1.53,2.83,4.12,4.12,0,0,1-.29,1.56,3.54,3.54,0,0,1-.9,1.31,4.26,4.26,0,0,1-1.57.9,7.17,7.17,0,0,1-2.29.34,8,8,0,0,1-2.13-.26,5,5,0,0,1-1.75-.84,4.31,4.31,0,0,1-1.24-1.5,6.1,6.1,0,0,1-.59-2.26H97.6a7,7,0,0,0,.54,2.82,5.43,5.43,0,0,0,1.51,2,6.44,6.44,0,0,0,2.28,1.21,9.65,9.65,0,0,0,2.87.41,10.09,10.09,0,0,0,3.92-.7,5.38,5.38,0,0,0,2.47-2,5.58,5.58,0,0,0,.87-3.12,5.41,5.41,0,0,0-.49-2.39A4.22,4.22,0,0,0,110.29,58.2Z"/><path class="cls-1" d="M314.78,54.18a10.76,10.76,0,0,0-1.13-2.88A8.65,8.65,0,0,0,311.77,49a8.1,8.1,0,0,0-2.62-1.48A10.1,10.1,0,0,0,305.8,47a9.55,9.55,0,0,0-3.23.54A7.93,7.93,0,0,0,300,49a8.6,8.6,0,0,0-1.86,2.27A10.84,10.84,0,0,0,297,54.19a13.93,13.93,0,0,0-.37,3.32,14.17,14.17,0,0,0,.37,3.28,10.89,10.89,0,0,0,1.12,2.86A8.6,8.6,0,0,0,300,65.92a8,8,0,0,0,2.59,1.49,10.44,10.44,0,0,0,6.63,0,8,8,0,0,0,2.59-1.49,8.53,8.53,0,0,0,1.86-2.26,10.84,10.84,0,0,0,1.12-2.86,13.83,13.83,0,0,0,.38-3.28A14.15,14.15,0,0,0,314.78,54.18Zm-1.77,6a9.55,9.55,0,0,1-.84,2.41,7,7,0,0,1-1.43,1.95,6.18,6.18,0,0,1-2.08,1.3,7.67,7.67,0,0,1-2.75.47,7.83,7.83,0,0,1-2.76-.47,6.26,6.26,0,0,1-2.08-1.29,7.08,7.08,0,0,1-1.45-1.94,9.49,9.49,0,0,1-.84-2.42,13.66,13.66,0,0,1,0-5.41,9.92,9.92,0,0,1,.84-2.43,7.22,7.22,0,0,1,1.44-2,6.19,6.19,0,0,1,2.06-1.32,7.4,7.4,0,0,1,2.73-.48,7.2,7.2,0,0,1,4,1.07,6.87,6.87,0,0,1,2.56,3.06,11.53,11.53,0,0,1,.91,4.76A13,13,0,0,1,313,60.21Z"/><rect class="cls-1" x="266.59" y="47.55" width="1.88" height="19.87"/><polygon class="cls-1" points="137.52 49.15 143.81 49.15 143.81 67.42 145.69 67.42 145.69 49.15 151.98 49.15 151.98 47.55 137.52 47.55 137.52 49.15"/><path class="cls-1" d="M192,59.39a11.19,11.19,0,0,1-.56,3.89,4.35,4.35,0,0,1-1.86,2.31,8,8,0,0,1-6.73,0,4.28,4.28,0,0,1-1.9-2.26,10.82,10.82,0,0,1-.61-4V47.55h-1.88V59.94a10.12,10.12,0,0,0,.84,4.33A5.93,5.93,0,0,0,181.89,67a10.26,10.26,0,0,0,8.58,0A5.92,5.92,0,0,0,193,64.31a10.06,10.06,0,0,0,.86-4.37V47.55H192Z"/><path class="cls-1" d="M238,53.9a11.13,11.13,0,0,0-.6-1.83,8.19,8.19,0,0,0-.95-1.67A6.21,6.21,0,0,0,235.11,49a7,7,0,0,0-1.92-1,9.47,9.47,0,0,0-2.05-.41,20.56,20.56,0,0,0-2.16-.09H222.2V67.42H229a19.12,19.12,0,0,0,2-.09,10.66,10.66,0,0,0,1.87-.36,7.24,7.24,0,0,0,1.72-.74A6.36,6.36,0,0,0,236,65a7.55,7.55,0,0,0,1.15-1.65,10.15,10.15,0,0,0,.74-1.88,13.22,13.22,0,0,0,.4-2,16.59,16.59,0,0,0,0-3.72A15.1,15.1,0,0,0,238,53.9Zm-1.61,5.68a10.55,10.55,0,0,1-.52,2.12,6.89,6.89,0,0,1-1,1.87,5,5,0,0,1-1.64,1.35,7.25,7.25,0,0,1-1.51.59,9,9,0,0,1-1.54.26c-.52,0-1.06.06-1.62.06h-4.5V49.15h4.5c.56,0,1.11,0,1.65.05a10.55,10.55,0,0,1,1.56.22,5.33,5.33,0,0,1,1.34.48,5.56,5.56,0,0,1,1.71,1.4,6.62,6.62,0,0,1,1,1.85,9.65,9.65,0,0,1,.52,2.12,16.41,16.41,0,0,1,0,4.31Z"/></svg>