<svg xmlns="http://www.w3.org/2000/svg" width="394.581" height="562.394" viewBox="470.574 58.956 394.581 562.394"><path fill="#FFF" d="M667.864 621.35a17.009 17.009 0 0 1-13.307-6.416c-7.518-9.436-183.983-232.592-183.983-358.687 0-108.782 88.509-197.291 197.29-197.291 108.782 0 197.291 88.508 197.291 197.291 0 125.81-176.459 349.231-183.977 358.681a17.018 17.018 0 0 1-13.314 6.422zm0-528.378c-90.025 0-163.274 73.249-163.274 163.275 0 95.509 122.144 265.614 163.268 320.175C708.976 521.82 831.14 351.538 831.14 256.247c0-90.026-73.249-163.275-163.276-163.275zm0 250.395c-48.043 0-87.12-39.077-87.12-87.121s39.077-87.121 87.12-87.121c48.044 0 87.121 39.077 87.121 87.121s-39.084 87.121-87.121 87.121zm0-140.226c-29.28 0-53.104 23.825-53.104 53.105 0 29.28 23.824 53.105 53.104 53.105 29.281 0 53.105-23.825 53.105-53.105.001-29.28-23.823-53.105-53.105-53.105z"/></svg>