<?xml version="1.0" encoding="utf-8"?>
<!-- Generator: Adobe Illustrator 16.0.0, SVG Export Plug-In . SVG Version: 6.00 Build 0)  -->
<!DOCTYPE svg PUBLIC "-//W3C//DTD SVG 1.1//EN" "http://www.w3.org/Graphics/SVG/1.1/DTD/svg11.dtd" [
	<!ENTITY ns_flows "http://ns.adobe.com/Flows/1.0/">
	<!ENTITY ns_extend "http://ns.adobe.com/Extensibility/1.0/">
	<!ENTITY ns_ai "http://ns.adobe.com/AdobeIllustrator/10.0/">
	<!ENTITY ns_graphs "http://ns.adobe.com/Graphs/1.0/">
]>
<svg version="1.1" id="Layer_1" xmlns:x="&ns_extend;" xmlns:i="&ns_ai;" xmlns:graph="&ns_graphs;"
	 xmlns="http://www.w3.org/2000/svg" xmlns:xlink="http://www.w3.org/1999/xlink" xmlns:a="http://ns.adobe.com/AdobeSVGViewerExtensions/3.0/"
	 x="0px" y="0px" width="394.581px" height="562.394px" viewBox="470.574 58.956 394.581 562.394"
	 enable-background="new 470.574 58.956 394.581 562.394" xml:space="preserve">
<g>
	<path fill="#FFFFFF" d="M667.864,621.35c-5.184,0-10.075-2.361-13.307-6.416c-7.518-9.436-183.983-232.592-183.983-358.687
		c0-108.782,88.509-197.291,197.29-197.291c108.782,0,197.291,88.508,197.291,197.291c0,125.81-176.459,349.231-183.977,358.681
		C677.947,618.982,673.056,621.35,667.864,621.35L667.864,621.35z M667.864,92.972c-90.025,0-163.274,73.249-163.274,163.275
		c0,95.509,122.144,265.614,163.268,320.175C708.976,521.82,831.14,351.538,831.14,256.247
		C831.14,166.221,757.891,92.972,667.864,92.972z M667.864,343.367c-48.043,0-87.12-39.077-87.12-87.121
		c0-48.044,39.077-87.121,87.12-87.121c48.044,0,87.121,39.077,87.121,87.121C754.985,304.29,715.901,343.367,667.864,343.367z
		 M667.864,203.141c-29.28,0-53.104,23.825-53.104,53.105c0,29.28,23.824,53.105,53.104,53.105
		c29.281,0,53.105-23.825,53.105-53.105C720.97,226.966,697.146,203.141,667.864,203.141z"/>
</g>
</svg>
